<?xml version="1.0" standalone="no"?>
<!DOCTYPE svg PUBLIC "-//W3C//DTD SVG 1.1//EN" "http://www.w3.org/Graphics/SVG/1.1/DTD/svg11.dtd" >
<svg xmlns="http://www.w3.org/2000/svg" xmlns:xlink="http://www.w3.org/1999/xlink" version="1.1">
<metadata>
Created by FontForge 20160407 at Tue Jun  7 22:37:32 2016
 By Jimmy Wärting
Copyright (c) 2013 by Gumpita Rahayu. All rights reserved.
</metadata>
<defs>
<font id="Track" horiz-adv-x="255" >
  <font-face 
    font-family="Track"
    font-weight="400"
    font-stretch="normal"
    units-per-em="1000"
    panose-1="2 0 0 0 0 0 0 0 0 0"
    ascent="750"
    descent="-250"
    x-height="799"
    cap-height="800"
    bbox="-66 -294 1237 1019"
    underline-thickness="50"
    underline-position="-98"
    unicode-range="U+0020-2122"
  />
<missing-glyph horiz-adv-x="252" 
 />
    <glyph glyph-name=".notdef" horiz-adv-x="252" 
 />
    <glyph glyph-name="space" unicode=" " horiz-adv-x="282" 
 />
    <glyph glyph-name="exclam" unicode="!" 
d="M192 768v-525c0 -16 -14 -32 -33 -32h-68c-19 0 -32 16 -32 32v525c0 16 13 32 32 32h68c19 0 33 -16 33 -32zM192 106v-74c0 -16 -14 -32 -33 -32h-68c-19 0 -30 16 -30 32l-1 74c0 16 12 32 31 32h68c19 0 33 -16 33 -32z" />
    <glyph glyph-name="quotedbl" unicode="&#x22;" horiz-adv-x="421" 
d="M144 519h-61c-16 0 -32 14 -32 33v220c0 19 16 32 32 32h61c16 0 32 -13 32 -32v-220c0 -19 -16 -33 -32 -33zM340 519h-61c-16 0 -32 14 -32 33v220c0 19 16 32 32 32h61c16 0 32 -13 32 -32v-220c0 -19 -16 -33 -32 -33z" />
    <glyph glyph-name="numbersign" unicode="#" horiz-adv-x="712" 
d="M640 298v-63c0 -16 -14 -32 -33 -32h-113l-43 -171c-4 -16 -23 -32 -42 -32h-68c-19 0 -27 16 -23 32l43 171h-155l-43 -171c-4 -16 -22 -32 -41 -32h-66c-19 0 -28 16 -24 32l41 171h-40c-19 0 -32 16 -32 32v63c0 16 11 32 30 32h74l28 113h-62c-19 0 -32 16 -32 32v63
c0 16 13 32 32 32h94l51 198c4 16 21 32 40 32h68c19 0 29 -16 25 -32l-51 -198h155l51 198c4 16 21 32 40 32h68c19 0 29 -16 25 -32l-51 -198h61c19 0 33 -16 33 -32v-63c0 -16 -14 -32 -33 -32h-93l-28 -113h81c19 0 33 -16 33 -32zM266 443l-28 -113h155l28 113h-155z
" />
    <glyph glyph-name="dollar" unicode="$" horiz-adv-x="668" 
d="M399 861v-53c47 -7 92 -27 129 -56c45 -36 73 -105 70 -182c-1 -20 -1 -39 -32 -39h-66c-19 0 -31 16 -32 32c-3 69 -26 102 -69 113v-226c37 -11 65 -17 84 -24c27 -9 50 -21 70 -34c41 -28 70 -76 70 -144c0 -76 -31 -160 -76 -200c-39 -35 -89 -51 -148 -56v-48
c0 -16 -14 -32 -33 -32h-68c-19 0 -32 16 -32 32v49c-77 7 -145 47 -184 111c-15 22 -24 44 -28 65c-8 40 -7 56 -7 79c0 20 1 39 32 39h68c16 0 26 -8 30 -24c4 -13 3 -16 3 -32c0 -5 1 -14 2 -27c9 -41 41 -74 84 -83v224c-112 29 -219 73 -219 191v14c0 21 -1 42 6 69
l-1 -1c19 104 111 179 214 190v53c0 16 13 32 32 32h68c19 0 33 -16 33 -32zM474 283c-16 13 -42 22 -75 31v-192c45 11 80 40 88 83c1 7 2 13 2 20c1 13 2 43 -15 58zM197 521c13 -13 28 -22 43 -26l26 -7v189c-41 -11 -76 -42 -85 -85v1c-3 -17 -9 -47 16 -72z" />
    <glyph glyph-name="percent" unicode="%" horiz-adv-x="883" 
d="M753 156v181c0 33 -26 61 -61 61h-16c-29 0 -54 -23 -54 -54v-195c0 -31 25 -54 54 -54h16c35 0 61 26 61 61zM692 0h-16c-80 0 -147 65 -147 149v195c0 84 67 149 147 149h16c84 0 155 -71 155 -156v-181c0 -85 -71 -156 -155 -156zM257 555v181c0 35 -27 61 -62 61h-16
c-29 0 -54 -23 -54 -54v-195c0 -31 25 -54 54 -54h16c35 0 62 28 62 61zM350 736v-181c0 -85 -71 -156 -155 -156h-16c-80 0 -147 65 -147 149v195c0 84 67 149 147 149h16c84 0 155 -71 155 -156zM769 860l-523 -840c-11 -16 -14 -20 -33 -20h-78c-19 0 -23 14 -12 30
l523 840c11 16 13 22 32 22h78c19 0 24 -16 13 -32z" />
    <glyph glyph-name="ampersand" unicode="&#x26;" horiz-adv-x="732" 
d="M433 157l-232 239c-36 -25 -51 -70 -51 -113c0 -81 42 -153 131 -153h77c29 0 54 9 75 27zM690 0h-103c-17 0 -55 47 -67 61c-45 -39 -102 -61 -162 -61h-77c-154 0 -256 123 -256 273c-1 93 17 163 96 220c-12 28 -13 53 -13 84c0 110 72 224 192 224h53
c109 0 181 -103 181 -205v-61c0 -17 -8 -25 -23 -25h-79c-49 0 5 132 -62 153c-15 5 -27 5 -42 5c-80 0 -95 -36 -95 -110v-6c19 -42 195 -207 242 -254v8c0 17 4 32 24 32h80c33 0 24 -62 24 -86c0 -28 -3 -56 -14 -81c20 -22 126 -130 126 -149c0 -13 -12 -22 -25 -22z
" />
    <glyph glyph-name="quoteright" unicode="&#x2019;" horiz-adv-x="226" 
d="M144 519h-61c-16 0 -32 14 -32 33v220c0 19 16 32 32 32h61c16 0 32 -13 32 -32v-220c0 -19 -16 -33 -32 -33z" />
    <glyph glyph-name="parenleft" unicode="(" horiz-adv-x="369" 
d="M161 672v-596c0 -44 30 -85 71 -102c21 -9 38 -9 61 -9h11c19 0 34 -14 34 -33v-68c0 -19 -15 -31 -34 -31h-11c-23 0 -42 0 -65 4c-114 18 -198 125 -198 239l-2 518v78c0 117 85 222 200 241c23 4 42 4 65 4h11c19 0 34 -12 34 -31v-68c0 -19 -15 -33 -34 -33h-11
c-23 0 -40 0 -61 -9c-41 -17 -71 -60 -71 -104z" />
    <glyph glyph-name="parenright" unicode=")" horiz-adv-x="369" 
d="M338 672v-596c0 -115 -85 -220 -200 -239c-23 -4 -40 -4 -63 -4h-11c-19 0 -34 12 -34 31v68c0 19 15 33 34 33h10c23 0 37 0 60 9c40 17 71 58 71 102v596c0 44 -31 87 -71 104c-23 9 -38 9 -61 9h-11c-19 0 -34 14 -34 33v68c0 19 15 31 34 31h11c23 0 41 0 65 -4
c115 -19 200 -124 200 -241z" />
    <glyph glyph-name="asterisk" unicode="*" horiz-adv-x="417" 
d="M331 734l36 -47c7 -13 7 -27 -9 -38l-58 -37c19 -11 36 -18 56 -29s21 -25 10 -40l-36 -51c-10 -14 -22 -17 -36 -8l-44 25c0 -16 -1 -32 -1 -49c0 -19 -9 -28 -26 -28h-50c-18 0 -27 9 -27 28v50l-49 -27c-15 -9 -27 -5 -37 10l-31 51c-7 12 -15 27 6 38l60 31l-58 36
c-13 8 -16 23 -9 38l35 47c10 13 22 15 37 6l45 -28c0 19 1 39 1 58s9 28 27 28h50c15 0 26 -11 26 -26l1 -60l45 28c14 9 26 7 36 -6z" />
    <glyph glyph-name="plus" unicode="+" horiz-adv-x="492" 
d="M213 575h63c16 0 32 -14 32 -33v-98h97c19 0 33 -16 33 -32v-63c0 -16 -14 -32 -33 -32h-97v-98c0 -19 -16 -32 -32 -32h-63c-16 0 -32 13 -32 32v98h-99c-19 0 -32 16 -32 32v63c0 16 13 32 32 32h99v98c0 19 16 33 32 33z" />
    <glyph glyph-name="comma" unicode="," 
d="M192 106v-74c3 -4 0 -8 -3 -13l-36 -85c-5 -13 -12 -15 -24 -15h-42c-19 0 -15 11 -14 18l16 63h-8c-19 0 -32 16 -32 32v74c0 16 13 32 32 32h78c19 0 33 -16 33 -32z" />
    <glyph glyph-name="hyphen" unicode="-" horiz-adv-x="492" 
d="M432 412v-63c0 -16 -14 -32 -33 -32h-323c-19 0 -32 16 -32 32v63c0 16 13 32 32 32h323c19 0 33 -16 33 -32z" />
    <glyph glyph-name="period" unicode="." 
d="M192 106v-74c0 -16 -14 -32 -33 -32h-68c-19 0 -32 16 -32 32v74c0 16 13 32 32 32h68c19 0 33 -16 33 -32z" />
    <glyph glyph-name="slash" unicode="/" horiz-adv-x="545" 
d="M508 862l-351 -840c-7 -15 -19 -22 -37 -22h-66c-19 0 -25 16 -18 32l339 840c5 15 17 22 35 22h78c19 0 27 -16 20 -32z" />
    <glyph glyph-name="zero" unicode="0" horiz-adv-x="652" 
d="M591 557v-313c0 -140 -118 -252 -258 -252h-29c-132 0 -243 103 -243 239v339c0 136 111 241 243 241h29c140 0 258 -114 258 -254zM192 570v-339c0 -61 52 -110 112 -110h29c69 0 126 55 126 123v313c0 68 -57 123 -126 123h-29c-60 0 -112 -49 -112 -110z" />
    <glyph glyph-name="one" unicode="1" horiz-adv-x="494" 
d="M432 0h-367c-27 0 -32 15 -32 40v49c0 27 8 39 37 39h108v542h-105c-27 0 -32 15 -32 40v51c0 27 8 39 39 39h199c31 0 32 -19 32 -39v-633h114c31 0 39 -12 39 -39v-49c0 -25 -5 -40 -32 -40z" />
    <glyph glyph-name="two" unicode="2" horiz-adv-x="616" 
d="M572 102v-68c0 -16 -15 -34 -34 -34h-467c-19 0 -31 18 -31 34l-1 184c0 53 3 74 62 111l279 216c16 13 27 22 32 27c21 23 30 46 25 71c-5 24 -24 36 -57 36h-107c-64 0 -87 -12 -98 -61c-1 -13 -2 -22 -2 -27v-4c0 -25 -6 -35 -33 -35h-67c-28 0 -32 10 -32 35v18
c0 23 4 73 23 112c10 19 29 40 57 61c27 21 78 31 152 31h110c228 0 239 -243 98 -351l-310 -235v-86h367c19 0 34 -18 34 -35z" />
    <glyph glyph-name="three" unicode="3" horiz-adv-x="632" 
d="M387 291l-115 90c-44 35 -32 64 -8 99l125 185h-286c-35 0 -40 5 -40 40v56c0 20 -1 39 34 39h433c19 0 32 -16 32 -32v-63c0 -7 -1 -15 -8 -22l-160 -229l92 -80c167 -115 125 -374 -105 -374h-110c-75 0 -125 10 -152 30c-28 21 -47 42 -56 61c-19 40 -23 90 -23 113
v18c0 25 3 35 31 35h67c27 0 33 -10 33 -35v-4c0 -5 1 -14 2 -27c11 -49 34 -61 98 -61h107c33 0 55 14 66 41c11 28 3 58 -25 90c-5 7 -15 17 -32 30z" />
    <glyph glyph-name="four" unicode="4" horiz-adv-x="653" 
d="M528 761v-444h62c35 0 39 -5 39 -40v-49c0 -20 -2 -40 -33 -40h-68v-149c0 -31 -12 -39 -39 -39h-54c-25 0 -40 5 -40 32v156h-344c-29 0 -31 20 -31 40v43c0 11 3 18 7 25l368 494l2 2c7 5 17 8 30 8h69c31 0 32 -19 32 -39zM194 317h201v274z" />
    <glyph glyph-name="five" unicode="5" horiz-adv-x="631" 
d="M385 1h-98c-75 0 -125 10 -152 30c-29 22 -48 42 -57 61c-19 40 -23 90 -23 113v18c0 25 4 35 32 35h67c27 0 33 -10 33 -35v-4c0 -5 1 -14 2 -27c11 -49 34 -61 98 -61h95c33 0 52 12 57 36c1 2 1 5 1 9v89c0 97 -36 98 -89 101c-44 1 -128 2 -255 -1
c-19 0 -35 18 -32 35l-2 365c0 16 13 34 32 34h419c19 0 34 -18 34 -34v-68c0 -17 -15 -35 -34 -35h-318v-165h177c23 0 73 -5 112 -24c20 -10 40 -29 61 -56s31 -78 31 -152v-92c0 -91 -60 -172 -191 -172z" />
    <glyph glyph-name="six" unicode="6" horiz-adv-x="644" 
d="M186 603v-65l252 -145c19 -11 43 -27 78 -50c132 -88 113 -343 -104 -343h-178c-131 0 -181 77 -181 186v421c0 99 65 192 181 192h112c75 0 127 -11 157 -32c31 -21 51 -42 61 -63c19 -39 24 -89 24 -112v-18c0 -25 -4 -35 -32 -35h-67c-27 0 -33 10 -33 35v4
c0 5 -1 14 -2 27c-11 49 -44 64 -108 64h-109c-43 -4 -51 -29 -51 -66zM186 392v-206c0 -11 3 -23 9 -36c7 -11 22 -17 46 -17h164c21 0 36 11 45 32c9 23 4 44 -17 65c-3 5 -9 10 -16 15c-8 7 -30 20 -65 43c-69 44 -115 72 -166 104z" />
    <glyph glyph-name="seven" unicode="7" horiz-adv-x="615" 
d="M93 54l326 541c19 32 17 70 -24 70h-181c-24 0 -39 -6 -46 -18c-6 -12 -9 -24 -9 -35v-28c0 -16 -14 -32 -33 -32h-68c-19 0 -32 16 -32 32v28c0 109 50 186 181 186h184c199 0 224 -142 149 -268l-291 -496c-13 -23 -27 -34 -52 -34h-86c-27 0 -38 21 -18 54z" />
    <glyph glyph-name="eight" unicode="8" horiz-adv-x="632" 
d="M126 782c39 23 84 27 113 27h144c228 0 241 -248 98 -351l-65 -47l84 -60c143 -103 131 -351 -98 -351h-185c-222 0 -234 247 -98 351l82 62l-60 45c-117 88 -132 255 -15 324zM188 237c-22 -23 -30 -47 -25 -73c5 -25 24 -37 57 -37h179c33 0 52 12 57 37
c5 26 -3 50 -25 73l-32 34l-91 72l-88 -72c-16 -16 -27 -27 -32 -34zM185 648c-5 -28 1 -55 25 -76l32 -29l70 -54l68 54l32 29c24 21 30 46 25 73c-5 26 -24 39 -57 39h-126c-45 0 -61 -9 -69 -36z" />
    <glyph glyph-name="nine" unicode="9" horiz-adv-x="647" 
d="M452 197v65l-252 145c-19 11 -43 27 -78 50c-128 88 -113 343 104 343h178c130 0 181 -77 181 -186v-421c0 -99 -65 -192 -181 -192h-112c-75 0 -127 11 -157 32c-31 23 -53 43 -62 62c-19 40 -23 90 -23 113v18c0 25 4 35 32 35h67c27 0 33 -10 33 -35v-4
c0 -5 1 -14 2 -27c11 -49 44 -64 108 -64h109c43 4 51 29 51 66zM452 408v206c0 12 -3 24 -10 35c-5 12 -20 18 -45 18h-164c-22 0 -37 -11 -46 -33c-9 -21 -3 -43 18 -64c3 -4 8 -9 16 -16s29 -19 64 -42z" />
    <glyph glyph-name="colon" unicode=":" 
d="M192 106v-74c0 -16 -14 -32 -33 -32h-68c-19 0 -32 16 -32 32v74c0 16 13 32 32 32h68c19 0 33 -16 33 -32zM192 464v-74c0 -16 -14 -32 -33 -32h-68c-19 0 -32 16 -32 32v74c0 16 13 32 32 32h68c19 0 33 -16 33 -32z" />
    <glyph glyph-name="semicolon" unicode=";" 
d="M192 464v-74c0 -16 -14 -32 -33 -32h-68c-19 0 -32 16 -32 32v74c0 16 13 32 32 32h68c19 0 33 -16 33 -32zM196 106v-74c0 -4 -1 -8 -3 -13l-36 -85c-5 -13 -12 -15 -24 -15h-42c-19 0 -15 11 -14 18l16 63h-8c-19 0 -32 16 -32 32v74c0 16 13 32 32 32h78
c19 0 33 -16 33 -32z" />
    <glyph glyph-name="less" unicode="&#x3c;" horiz-adv-x="492" 
d="M312 608c5 5 12 8 20 8s15 -3 20 -8l52 -51c5 -7 8 -13 8 -20c0 -8 -3 -15 -8 -20l-159 -159l150 -150c5 -5 8 -12 8 -20c0 -9 -3 -15 -8 -20l-51 -51c-5 -5 -11 -8 -20 -8c-8 0 -15 3 -20 8c-224 224 -229 216 -229 241c0 21 2 15 237 250z" />
    <glyph glyph-name="equal" unicode="=" horiz-adv-x="492" 
d="M438 512v-63c0 -16 -14 -32 -33 -32h-323c-19 0 -32 16 -32 32v63c0 16 13 32 32 32h323c19 0 33 -16 33 -32zM438 301v-63c0 -16 -14 -32 -33 -32h-323c-19 0 -32 16 -32 32v63c0 16 13 32 32 32h323c19 0 33 -16 33 -32z" />
    <glyph glyph-name="greater" unicode="&#x3e;" horiz-adv-x="492" 
d="M175 608c233 -237 237 -228 237 -250c0 -25 -5 -17 -229 -241c-5 -5 -12 -8 -20 -8c-9 0 -15 3 -20 8l-51 51c-5 5 -8 11 -8 20c0 8 3 15 8 20l150 150l-159 159c-5 5 -8 12 -8 20c0 7 3 13 8 20l52 51c5 5 12 8 20 8s15 -3 20 -8z" />
    <glyph glyph-name="question" unicode="?" horiz-adv-x="661" 
d="M430 679h-160c-64 0 -97 -15 -108 -64c-1 -13 -2 -22 -2 -27v-4c0 -25 -6 -35 -33 -35h-67c-28 0 -32 10 -32 35v18c0 23 4 73 23 112c10 19 31 40 62 63c30 21 82 32 157 32h163c217 0 236 -253 104 -341c-35 -23 -59 -39 -78 -50l-73 -40v-146c0 -20 -8 -32 -37 -32
h-67c-19 0 -29 16 -29 32v137c0 53 2 77 63 111l114 65c16 13 27 22 32 27c17 19 21 41 12 66c-8 25 -23 39 -44 41zM386 106v-74c0 -16 -14 -32 -33 -32h-68c-19 0 -32 16 -32 32v74c0 16 13 32 32 32h68c19 0 33 -16 33 -32z" />
    <glyph glyph-name="A" unicode="A" horiz-adv-x="689" 
d="M675 32c0 -21 -11 -32 -32 -32h-72c-21 0 -25 11 -32 26l-91 263l-246 -109l-55 -154c-7 -16 -9 -26 -33 -26h-69c-16 0 -33 13 -33 32c0 4 229 679 255 742c7 15 12 26 32 26h88c20 0 24 -13 31 -26l256 -730c1 -7 1 -8 1 -12zM262 361l138 61c-12 32 -20 52 -23 63
s-7 20 -10 31c-7 20 -13 41 -24 72z" />
    <glyph glyph-name="B" unicode="B" horiz-adv-x="704" 
d="M644 300v-83c0 -120 -97 -217 -217 -217h-336c-19 0 -31 16 -31 32l-2 736c0 19 14 32 33 32h328c94 0 168 -77 168 -170c0 -35 -6 -62 -18 -83s-39 -43 -80 -65c109 -20 155 -74 155 -182zM191 667v-220c77 40 237 127 256 157c4 6 6 15 6 26c0 20 -14 37 -34 37h-228z
M314 370l-123 -67v-170h236c23 0 43 8 60 25l10 12c16 19 15 43 15 47c0 11 1 19 1 30c0 9 1 19 1 28c0 72 -35 95 -72 95h-128z" />
    <glyph glyph-name="C" unicode="C" horiz-adv-x="755" 
d="M381 813c163 0 290 -113 322 -269c0 -1 -1 -9 -1 -10c-4 -13 -12 -29 -31 -29h-67c-17 0 -24 9 -31 22c-11 31 -18 55 -35 78c-36 49 -93 78 -157 78c-107 0 -195 -88 -195 -196v-174c0 -108 88 -196 195 -196c64 0 120 29 159 80c20 27 28 53 36 86l-1 -2
c3 18 13 27 31 27h67c19 0 32 -16 32 -32c0 -20 -6 -43 -13 -62c-45 -128 -175 -225 -311 -225c-179 0 -325 145 -325 324v174c0 179 146 326 325 326z" />
    <glyph glyph-name="D" unicode="D" horiz-adv-x="746" 
d="M374 667h-183v-534h183c101 0 185 84 185 184v166c0 100 -84 184 -185 184zM91 800h283c175 0 318 -143 318 -317v-166c0 -174 -143 -317 -318 -317h-283c-19 0 -32 13 -32 32l-2 736c0 16 15 32 34 32z" />
    <glyph glyph-name="E" unicode="E" horiz-adv-x="664" 
d="M588 0h-496c-19 0 -32 13 -32 32l-2 736c0 19 15 32 34 32h483c33 0 33 -19 33 -39v-55c0 -36 -5 -39 -40 -39h-375v-177h333c19 0 32 -14 32 -33v-68c0 -19 -13 -33 -32 -33h-333v-223h388c35 0 40 -3 40 -39v-54c0 -20 0 -40 -33 -40z" />
    <glyph glyph-name="F" unicode="F" horiz-adv-x="620" 
d="M159 0h-68c-16 0 -31 13 -31 32l-2 736c0 19 16 32 32 32h464c31 0 33 -19 33 -39v-55c0 -36 -4 -39 -40 -39h-355v-188h334c21 0 32 -11 32 -32v-69c0 -21 -11 -32 -32 -32h-334v-306c0 -20 0 -40 -33 -40z" />
    <glyph glyph-name="G" unicode="G" horiz-adv-x="764" 
d="M383 814c138 0 250 -88 306 -218c9 -21 -4 -40 -31 -40h-72c-13 0 -22 6 -29 19l1 -1c-37 68 -95 110 -175 110c-108 0 -197 -88 -197 -196v-162c0 -69 22 -114 58 -150c36 -35 83 -57 139 -57c77 0 149 35 184 107c7 15 12 35 15 58c3 25 5 38 5 39h-172
c-17 0 -32 16 -32 32v62c0 21 11 32 32 32h266c21 0 31 -11 31 -32c0 -15 1 -24 1 -37c1 -15 1 -28 1 -41c0 -7 -1 -24 -4 -52s-6 -51 -11 -70c-11 -37 -29 -73 -58 -110c-64 -81 -153 -120 -258 -116c-181 5 -327 135 -327 335v162c0 179 147 326 327 326z" />
    <glyph glyph-name="H" unicode="H" horiz-adv-x="701" 
d="M192 761v-343l312 134v209c0 20 2 39 33 39h67c19 0 34 -16 34 -32v-736c0 -16 -15 -32 -34 -32h-67c-31 0 -33 19 -33 39v366l-312 -132v-234c0 -20 0 -39 -33 -39h-68c-19 0 -30 16 -30 32l-2 736c0 16 13 32 32 32h68c33 0 33 -19 33 -39z" />
    <glyph glyph-name="I" unicode="I" 
d="M192 768v-736c0 -16 -14 -32 -33 -32h-68c-19 0 -30 16 -30 32l-2 736c0 16 13 32 32 32h68c19 0 33 -16 33 -32z" />
    <glyph glyph-name="J" unicode="J" horiz-adv-x="681" 
d="M619 768v-505c0 -144 -117 -263 -261 -263h-78c-117 0 -221 85 -240 200c-4 23 -5 42 -5 65v11c0 19 12 34 31 34h68c19 0 33 -15 33 -34v-11c0 -23 0 -40 9 -61c17 -41 60 -71 104 -71h78c71 0 128 59 128 130v477c-3 24 -3 60 33 60h68c19 0 32 -16 32 -32z" />
    <glyph glyph-name="K" unicode="K" horiz-adv-x="699" 
d="M191 768v-279l338 313l2 -3c1 1 4 1 11 1h93c19 0 34 -13 34 -32c0 -9 -4 -17 -12 -24l-11 -13l-278 -261l296 -408l8 -11c15 -19 8 -34 -7 -45c-6 -4 -12 -6 -19 -6h-84c-12 0 -21 3 -30 18l1 -2l-264 364c-28 -27 -49 -46 -78 -73v-275c0 -21 -11 -32 -33 -32h-67
c-21 0 -31 11 -31 32l-2 736c0 21 11 32 33 32h67c22 0 33 -11 33 -32z" />
    <glyph glyph-name="L" unicode="L" horiz-adv-x="603" 
d="M531 0h-440c-20 0 -30 11 -30 32l-2 736c0 21 11 32 32 32h69c31 0 32 -19 32 -39v-628h332c36 0 39 -3 39 -39v-54c0 -20 -1 -40 -32 -40z" />
    <glyph glyph-name="M" unicode="M" horiz-adv-x="902" 
d="M745 800h39c19 0 55 2 55 -42v-729c0 -29 -16 -29 -35 -29h-59c-35 0 -40 5 -40 40v525c-69 -88 -135 -173 -207 -258l1 2c-9 -15 -15 -15 -30 -15h-39c-19 0 -21 3 -32 16l-205 255v-525c0 -35 -5 -40 -40 -40h-59c-19 -1 -33 0 -33 27l-2 732c0 41 41 41 58 41h36
c19 0 30 -2 42 -18l255 -320l256 323c8 10 21 15 39 15z" />
    <glyph glyph-name="N" unicode="N" horiz-adv-x="732" 
d="M669 768v-736c0 -16 -14 -32 -33 -32h-68c-13 0 -22 5 -28 15c-120 179 -224 333 -347 515v-498c0 -16 -14 -32 -33 -32h-69c-19 0 -30 16 -30 32l-2 736c0 16 13 32 32 32h74c12 0 21 -5 27 -16v1l343 -516v499c0 16 14 32 33 32h68c19 0 33 -16 33 -32z" />
    <glyph glyph-name="O" unicode="O" horiz-adv-x="795" 
d="M745 480v-157c0 -184 -157 -332 -349 -332s-350 148 -350 332v157c0 184 159 331 351 331c193 0 348 -147 348 -331zM610 323v157c0 112 -97 204 -214 204c-118 0 -215 -93 -215 -204v-157c0 -112 97 -204 215 -204c117 0 214 92 214 204z" />
    <glyph glyph-name="P" unicode="P" horiz-adv-x="647" 
d="M531 457c-35 -23 -59 -39 -78 -50l-262 -145v-223c0 -20 -1 -39 -32 -39h-68c-19 0 -31 16 -31 32l-2 736c0 16 14 32 33 32h336c217 0 236 -255 104 -343zM420 667h-229v-255c51 27 111 59 162 90c24 13 84 52 95 68c13 21 17 43 12 64c-5 22 -19 33 -40 33z" />
    <glyph glyph-name="Q" unicode="Q" horiz-adv-x="807" 
d="M395 819c189 0 349 -154 349 -338v-158c0 -61 -20 -122 -51 -173l3 -3c1 0 11 -6 31 -19c19 -13 29 -25 29 -37c-1 -16 -18 -37 -30 -56c-10 -17 -21 -26 -33 -28s-29 4 -52 18l-41 25c-60 -43 -129 -61 -205 -61c-192 0 -349 149 -349 334v158c0 184 157 338 349 338z
M609 323v158c0 112 -98 206 -214 206s-214 -94 -214 -206v-158c0 -107 91 -207 206 -207c27 0 60 2 84 17c0 0 -9 6 -26 17c-17 12 -23 26 -19 42c1 1 1 1 1 2c9 12 20 27 29 43c4 4 7 8 8 11c8 10 17 15 28 15c5 0 18 -6 40 -19l47 -27c20 32 30 67 30 106z" />
    <glyph glyph-name="R" unicode="R" horiz-adv-x="699" 
d="M439 667h-245v-218c79 39 257 127 278 160v-1c4 6 6 13 6 21c0 21 -16 38 -39 38zM91 800h356c90 0 169 -79 169 -170c0 -76 -41 -120 -98 -159c21 -56 41 -108 61 -164c32 -88 65 -177 100 -266c11 -27 -4 -41 -31 -41h-76c-21 0 -27 12 -32 25l-144 381
c-69 -36 -130 -70 -202 -107v-260c0 -20 -1 -39 -32 -39h-71c-19 0 -31 16 -31 32l-2 736c0 16 14 32 33 32z" />
    <glyph glyph-name="S" unicode="S" horiz-adv-x="668" 
d="M623 248c0 -76 -31 -160 -76 -200s-109 -57 -181 -57h-76c-87 0 -165 44 -208 113c-15 22 -24 44 -28 65c-8 41 -7 58 -7 81v-2c0 20 1 39 32 39h68c16 0 26 -8 30 -24c4 -13 3 -16 3 -32c0 -5 1 -14 2 -27c11 -49 56 -85 108 -85h76c60 0 112 33 121 86c1 7 2 13 2 20
c1 13 2 43 -15 58c-28 24 -89 34 -161 51c-128 29 -266 68 -266 202v14c0 21 -1 42 6 69l-1 -1c21 111 124 192 238 192h76c60 0 117 -22 162 -58s73 -105 70 -182c-1 -20 -1 -39 -32 -39h-66c-19 0 -31 16 -32 32c-3 85 -38 117 -102 117h-76c-51 0 -98 -37 -109 -88v1
c-3 -17 -9 -47 16 -72c13 -13 28 -22 43 -26l115 -32c60 -17 103 -28 128 -37c27 -9 50 -21 70 -34c41 -28 70 -76 70 -144z" />
    <glyph glyph-name="T" unicode="T" horiz-adv-x="640" 
d="M579 671h-192v-632c0 -20 -1 -39 -32 -39h-69c-31 0 -32 19 -32 39v632h-194c-35 0 -40 7 -40 39v51c0 20 1 39 32 39h533c31 0 33 -19 33 -39v-51c0 -32 -4 -39 -39 -39z" />
    <glyph glyph-name="U" unicode="U" horiz-adv-x="700" 
d="M637 768v-514c0 -140 -118 -254 -258 -254h-77c-132 0 -243 105 -243 241v527c0 21 11 32 32 32h67c31 0 32 -19 32 -39v-520c0 -61 52 -110 112 -110h77c69 0 126 55 126 123v507c0 20 2 39 33 39h66c22 0 33 -11 33 -32z" />
    <glyph glyph-name="V" unicode="V" horiz-adv-x="712" 
d="M693 768c0 -3 -13 -48 -36 -113l-107 -297l-103 -285l-17 -47c-7 -16 -12 -26 -32 -26h-88c-23 0 -28 12 -32 25l-69 199c-63 180 -118 347 -191 527c-4 7 -4 14 -4 17c0 21 11 32 33 32h78c20 0 25 -13 32 -26l197 -583l195 583l-1 -6c0 3 2 3 2 4c6 19 17 28 32 28h79
c16 0 32 -16 32 -32z" />
    <glyph glyph-name="W" unicode="W" horiz-adv-x="965" 
d="M60 799h56c15 0 30 0 37 -25l130 -533c47 180 92 351 137 532l-1 -3c3 19 14 29 33 29h48c17 0 28 -9 32 -26l137 -532l131 533c7 25 20 25 36 25h56c16 0 46 -5 41 -34l-3 -16c-45 -239 -123 -492 -179 -728c-5 -12 -4 -21 -31 -21h-98c-23 0 -28 10 -31 22
c-24 88 -45 179 -68 267l-48 188l-114 -454c-5 -13 -7 -23 -30 -23h-99c-25 0 -25 8 -32 24l-179 725c-1 4 -2 9 -2 17c0 33 21 33 41 33z" />
    <glyph glyph-name="X" unicode="X" horiz-adv-x="670" 
d="M653 48l2 -12c0 -20 -10 -36 -31 -36h-84c-16 0 -24 10 -29 19v-1l-177 283l-179 -283l1 3c-5 -14 -15 -21 -30 -21h-75c-19 0 -33 16 -33 32c0 5 16 34 39 73c11 20 39 64 86 136c46 71 75 115 87 132l27 39l-220 338c-1 3 -5 13 -5 18c0 16 14 32 33 32h78
c16 0 23 -10 30 -19v1l165 -265c87 148 141 237 161 269c6 9 15 14 28 14h81c16 0 32 -16 32 -32c0 -4 -4 -12 -12 -25c-7 -14 -17 -30 -29 -49l-183 -282z" />
    <glyph glyph-name="Y" unicode="Y" horiz-adv-x="696" 
d="M537 789l-2 -2c7 9 16 13 27 13h90c21 0 32 -11 32 -32c0 -11 -7 -20 -12 -27c0 -1 -1 -1 -1 -2l-1 -1l-257 -367v-332c0 -20 0 -39 -33 -39h-68c-31 0 -32 19 -32 39v334l-264 377c-4 7 -4 11 -4 19c0 21 10 31 31 31h89c13 0 22 -5 29 -15l187 -277
c104 160 166 253 189 281z" />
    <glyph glyph-name="Z" unicode="Z" horiz-adv-x="654" 
d="M596 0h-543c-31 0 -33 20 -33 40v43c0 11 4 18 9 25l409 557h-357c-35 0 -40 5 -40 40v56c0 20 -1 39 34 39h509c19 0 32 -16 32 -32v-63c0 -7 -1 -15 -8 -22l-397 -548h379c35 0 39 -5 39 -40v-55c0 -20 -2 -40 -33 -40z" />
    <glyph glyph-name="bracketleft" unicode="[" horiz-adv-x="327" 
d="M51 911h2h3h68h3h122c15 0 27 -12 27 -27v-79c0 -15 -12 -27 -27 -27h-92v-812h92c15 0 27 -12 27 -27v-79c0 -15 -12 -27 -27 -27h-122h-3h-66h-3h-2c-15 0 -27 12 -27 27v2v3l-2 1014v3v2c0 15 12 27 27 27z" />
    <glyph glyph-name="backslash" unicode="\" horiz-adv-x="545" 
d="M384 22l-350 840c-7 16 0 32 19 32h78c17 0 29 -7 36 -22l340 -840c7 -16 1 -32 -18 -32h-68c-18 0 -30 7 -37 22z" />
    <glyph glyph-name="bracketright" unicode="]" horiz-adv-x="327" 
d="M269 911h1c15 0 24 -9 27 -24c1 -1 1 -4 1 -8v-936v-4v-79c0 -15 -12 -27 -27 -27h-73h-3h-120c-15 0 -27 12 -27 27v79c0 15 11 27 26 27h91v812h-93c-15 0 -27 12 -27 27v79c0 15 12 27 27 27h123h3h68h3z" />
    <glyph glyph-name="asciicircum" unicode="^" horiz-adv-x="537" 
d="M200 740l51 50l2 2l5 3l1 1c1 0 2 0 3 1h2c2 1 5 1 10 1c5 -1 11 -3 16 -8l52 -51l3 -5l167 -165c11 -11 11 -29 0 -40l-51 -51c-11 -11 -28 -11 -39 0l-150 150l-160 -159c-11 -11 -29 -11 -40 0l-50 52c-11 11 -10 29 -1 40l175 174z" />
    <glyph glyph-name="underscore" unicode="_" horiz-adv-x="579" 
d="M549 95v-63c0 -16 -14 -32 -33 -32h-458c-19 0 -32 16 -32 32v63c0 16 13 32 32 32h458c19 0 33 -16 33 -32z" />
    <glyph glyph-name="quoteleft" unicode="&#x2018;" horiz-adv-x="226" 
d="M144 519h-61c-16 0 -32 14 -32 33v220c0 19 16 32 32 32h61c16 0 32 -13 32 -32v-220c0 -19 -16 -33 -32 -33z" />
    <glyph glyph-name="a" unicode="a" horiz-adv-x="689" 
d="M675 32c0 -21 -11 -32 -32 -32h-72c-21 0 -25 11 -32 26l-91 263l-246 -109l-55 -154c-7 -16 -9 -26 -33 -26h-69c-16 0 -33 13 -33 32c0 4 229 679 255 742c7 15 12 26 32 26h88c20 0 24 -13 31 -26l256 -730c1 -7 1 -8 1 -12zM262 361l138 61c-12 32 -20 52 -23 63
s-7 20 -10 31c-7 20 -13 41 -24 72z" />
    <glyph glyph-name="b" unicode="b" horiz-adv-x="704" 
d="M644 300v-83c0 -120 -97 -217 -217 -217h-336c-19 0 -31 16 -31 32l-2 736c0 19 14 32 33 32h328c94 0 168 -77 168 -170c0 -35 -6 -62 -18 -83s-39 -43 -80 -65c109 -20 155 -74 155 -182zM191 667v-220c77 40 237 127 256 157c4 6 6 15 6 26c0 20 -14 37 -34 37h-228z
M314 370l-123 -67v-170h236c23 0 43 8 60 25l10 12c16 19 18 26 18 47c0 35 -1 53 -1 58c0 72 -35 95 -72 95h-128z" />
    <glyph glyph-name="c" unicode="c" horiz-adv-x="755" 
d="M381 813c163 0 290 -113 322 -269c0 -1 -1 -9 -1 -10c-4 -13 -12 -29 -31 -29h-67c-17 0 -24 9 -31 22c-11 31 -18 55 -35 78c-36 49 -93 78 -157 78c-107 0 -195 -88 -195 -196v-174c0 -108 88 -196 195 -196c64 0 120 29 159 80c20 27 28 53 36 86l-1 -2
c3 18 13 27 31 27h67c19 0 32 -16 32 -32c0 -20 -6 -43 -13 -62c-45 -128 -175 -225 -311 -225c-179 0 -325 145 -325 324v174c0 179 146 326 325 326z" />
    <glyph glyph-name="d" unicode="d" horiz-adv-x="746" 
d="M374 667h-183v-534h183c101 0 185 84 185 184v166c0 100 -84 184 -185 184zM91 800h283c175 0 318 -143 318 -317v-166c0 -174 -143 -317 -318 -317h-283c-19 0 -32 13 -32 32l-2 736c0 16 15 32 34 32z" />
    <glyph glyph-name="e" unicode="e" horiz-adv-x="664" 
d="M588 0h-496c-19 0 -32 13 -32 32l-2 736c0 19 15 32 34 32h483c33 0 33 -19 33 -39v-55c0 -36 -5 -39 -40 -39h-375v-177h333c19 0 32 -14 32 -33v-68c0 -19 -13 -33 -32 -33h-333v-223h388c35 0 40 -3 40 -39v-54c0 -20 0 -40 -33 -40z" />
    <glyph glyph-name="f" unicode="f" horiz-adv-x="620" 
d="M159 0h-68c-16 0 -31 13 -31 32l-2 736c0 19 16 32 32 32h464c31 0 33 -19 33 -39v-55c0 -36 -4 -39 -40 -39h-355v-188h334c21 0 32 -11 32 -32v-69c0 -21 -11 -32 -32 -32h-334v-306c0 -20 0 -40 -33 -40z" />
    <glyph glyph-name="g" unicode="g" horiz-adv-x="764" 
d="M383 814c138 0 250 -88 306 -218c9 -21 -4 -40 -31 -40h-72c-13 0 -22 6 -29 19l1 -1c-37 68 -95 110 -175 110c-108 0 -197 -88 -197 -196v-162c0 -69 22 -114 58 -150c36 -35 83 -57 139 -57c77 0 149 35 184 107c7 15 12 35 15 58c3 25 5 38 5 39h-172
c-17 0 -32 16 -32 32v62c0 21 11 32 32 32h266c21 0 31 -11 31 -32c0 -15 1 -24 1 -37c1 -15 1 -28 1 -41c0 -7 -1 -24 -4 -52s-6 -51 -11 -70c-11 -37 -29 -73 -58 -110c-64 -81 -153 -120 -258 -116c-181 5 -327 135 -327 335v162c0 179 147 326 327 326z" />
    <glyph glyph-name="h" unicode="h" horiz-adv-x="701" 
d="M192 761v-343l312 134v209c0 20 2 39 33 39h67c19 0 34 -16 34 -32v-736c0 -16 -15 -32 -34 -32h-67c-31 0 -33 19 -33 39v366l-312 -132v-234c0 -20 0 -39 -33 -39h-68c-19 0 -30 16 -30 32l-2 736c0 16 13 32 32 32h68c33 0 33 -19 33 -39z" />
    <glyph glyph-name="i" unicode="i" 
d="M192 768v-736c0 -16 -14 -32 -33 -32h-68c-19 0 -30 16 -30 32l-2 736c0 16 13 32 32 32h68c19 0 33 -16 33 -32z" />
    <glyph glyph-name="j" unicode="j" horiz-adv-x="681" 
d="M619 768v-505c0 -144 -117 -263 -261 -263h-78c-117 0 -221 85 -240 200c-4 23 -5 42 -5 65v11c0 19 12 34 31 34h68c19 0 33 -15 33 -34v-11c0 -23 0 -40 9 -61c17 -41 60 -71 104 -71h78c71 0 128 59 128 130v477c-3 24 -3 60 33 60h68c19 0 32 -16 32 -32z" />
    <glyph glyph-name="k" unicode="k" horiz-adv-x="699" 
d="M191 768v-279l338 313l2 -3c1 1 4 1 11 1h93c19 0 34 -13 34 -32c0 -9 -4 -17 -12 -24l-11 -13l-278 -261l296 -408l8 -11c15 -19 8 -34 -7 -45c-6 -4 -12 -6 -19 -6h-84c-12 0 -21 3 -30 18l1 -2l-264 364c-28 -27 -49 -46 -78 -73v-275c0 -21 -11 -32 -33 -32h-67
c-21 0 -31 11 -31 32l-2 736c0 21 11 32 33 32h67c22 0 33 -11 33 -32z" />
    <glyph glyph-name="l" unicode="l" horiz-adv-x="603" 
d="M531 0h-440c-20 0 -30 11 -30 32l-2 736c0 21 11 32 32 32h69c31 0 32 -19 32 -39v-628h332c36 0 39 -3 39 -39v-54c0 -20 -1 -40 -32 -40z" />
    <glyph glyph-name="m" unicode="m" horiz-adv-x="902" 
d="M745 800h39c19 0 55 2 55 -42v-729c0 -29 -16 -29 -35 -29h-59c-35 0 -40 5 -40 40v525c-69 -88 -135 -173 -207 -258l1 2c-9 -15 -15 -15 -30 -15h-39c-19 0 -21 3 -32 16l-205 255v-525c0 -35 -5 -40 -40 -40h-59c-19 -1 -33 0 -33 27l-2 732c0 41 41 41 58 41h36
c19 0 30 -2 42 -18l255 -320l256 323c8 10 21 15 39 15z" />
    <glyph glyph-name="n" unicode="n" horiz-adv-x="732" 
d="M669 768v-736c0 -16 -14 -32 -33 -32h-68c-13 0 -22 5 -28 15c-120 179 -224 333 -347 515v-498c0 -16 -14 -32 -33 -32h-69c-19 0 -30 16 -30 32l-2 736c0 16 13 32 32 32h74c12 0 21 -5 27 -16v1l343 -516v499c0 16 14 32 33 32h68c19 0 33 -16 33 -32z" />
    <glyph glyph-name="o" unicode="o" horiz-adv-x="795" 
d="M745 480v-157c0 -184 -157 -332 -349 -332s-350 148 -350 332v157c0 184 159 331 351 331c193 0 348 -147 348 -331zM610 323v157c0 112 -97 204 -214 204c-118 0 -215 -93 -215 -204v-157c0 -112 97 -204 215 -204c117 0 214 92 214 204z" />
    <glyph glyph-name="p" unicode="p" horiz-adv-x="647" 
d="M531 457c-35 -23 -59 -39 -78 -50l-262 -145v-223c0 -20 -1 -39 -32 -39h-68c-19 0 -31 16 -31 32l-2 736c0 16 14 32 33 32h336c217 0 236 -255 104 -343zM420 667h-229v-255c51 27 111 59 162 90c24 13 84 52 95 68c13 21 17 43 12 64c-5 22 -19 33 -40 33z" />
    <glyph glyph-name="q" unicode="q" horiz-adv-x="807" 
d="M395 819c189 0 349 -154 349 -338v-158c0 -61 -20 -122 -51 -173l3 -3c1 0 11 -6 31 -19c19 -13 29 -25 29 -37c-1 -16 -18 -37 -30 -56c-10 -17 -21 -26 -33 -28s-29 4 -52 18l-41 25c-60 -43 -129 -61 -205 -61c-192 0 -349 149 -349 334v158c0 184 157 338 349 338z
M609 323v158c0 112 -98 206 -214 206s-214 -94 -214 -206v-158c0 -107 91 -207 206 -207c27 0 60 2 84 17c0 0 -9 6 -26 17c-17 12 -23 26 -19 42c1 1 1 1 1 2c9 12 20 27 29 43c4 4 7 8 8 11c8 10 17 15 28 15c5 0 18 -6 40 -19l47 -27c20 32 30 67 30 106z" />
    <glyph glyph-name="r" unicode="r" horiz-adv-x="699" 
d="M439 667h-245v-218c79 39 257 127 278 160v-1c4 6 6 13 6 21c0 21 -16 38 -39 38zM91 800h356c90 0 169 -79 169 -170c0 -76 -41 -120 -98 -159c21 -56 41 -108 61 -164c32 -88 65 -177 100 -266c11 -27 -4 -41 -31 -41h-76c-21 0 -27 12 -32 25l-144 381
c-69 -36 -130 -70 -202 -107v-260c0 -20 -1 -39 -32 -39h-71c-19 0 -31 16 -31 32l-2 736c0 16 14 32 33 32z" />
    <glyph glyph-name="s" unicode="s" horiz-adv-x="668" 
d="M623 248c0 -76 -31 -160 -76 -200s-109 -57 -181 -57h-76c-87 0 -165 44 -208 113c-15 22 -24 44 -28 65c-8 41 -7 58 -7 81v-2c0 20 1 39 32 39h68c16 0 26 -8 30 -24c4 -13 3 -16 3 -32c0 -5 1 -14 2 -27c11 -49 56 -85 108 -85h76c60 0 112 33 121 86c1 7 2 13 2 20
c1 13 2 43 -15 58c-28 24 -89 34 -161 51c-128 29 -266 68 -266 202v14c0 21 -1 42 6 69l-1 -1c21 111 124 192 238 192h76c60 0 117 -22 162 -58s73 -105 70 -182c-1 -20 -1 -39 -32 -39h-66c-19 0 -31 16 -32 32c-3 85 -38 117 -102 117h-76c-51 0 -98 -37 -109 -88v1
c-3 -17 -9 -47 16 -72c13 -13 28 -22 43 -26l115 -32c60 -17 103 -28 128 -37c27 -9 50 -21 70 -34c41 -28 70 -76 70 -144z" />
    <glyph glyph-name="t" unicode="t" horiz-adv-x="640" 
d="M579 671h-192v-632c0 -20 -1 -39 -32 -39h-69c-31 0 -32 19 -32 39v632h-194c-35 0 -40 7 -40 39v51c0 20 1 39 32 39h533c31 0 33 -19 33 -39v-51c0 -32 -4 -39 -39 -39z" />
    <glyph glyph-name="u" unicode="u" horiz-adv-x="700" 
d="M637 768v-514c0 -140 -118 -254 -258 -254h-77c-132 0 -243 105 -243 241v527c0 21 11 32 32 32h67c31 0 32 -19 32 -39v-520c0 -61 52 -110 112 -110h77c69 0 126 55 126 123v507c0 20 2 39 33 39h66c22 0 33 -11 33 -32z" />
    <glyph glyph-name="v" unicode="v" horiz-adv-x="712" 
d="M693 768c0 -3 -13 -48 -36 -113l-107 -297l-103 -285l-17 -47c-7 -16 -12 -26 -32 -26h-88c-23 0 -28 12 -32 25l-69 199c-63 180 -118 347 -191 527c-4 7 -4 14 -4 17c0 21 11 32 33 32h78c20 0 25 -13 32 -26l197 -583l195 583l-1 -6c0 3 2 3 2 4c6 19 17 28 32 28h79
c16 0 32 -16 32 -32z" />
    <glyph glyph-name="w" unicode="w" horiz-adv-x="965" 
d="M60 799h56c15 0 30 0 37 -25l130 -533c47 180 92 351 137 532l-1 -3c3 19 14 29 33 29h48c17 0 28 -9 32 -26l137 -532l131 533c7 25 20 25 36 25h56c16 0 46 -5 41 -34l-3 -16c-45 -239 -123 -492 -179 -728c-5 -12 -4 -21 -31 -21h-98c-23 0 -28 10 -31 22
c-24 88 -45 179 -68 267l-48 188l-114 -454c-5 -13 -7 -23 -30 -23h-99c-25 0 -25 8 -32 24l-179 725c-1 4 -2 9 -2 17c0 33 21 33 41 33z" />
    <glyph glyph-name="x" unicode="x" horiz-adv-x="670" 
d="M653 48l2 -12c0 -20 -10 -36 -31 -36h-84c-16 0 -24 10 -29 19v-1l-177 283l-179 -283l1 3c-5 -14 -15 -21 -30 -21h-75c-19 0 -33 16 -33 32c0 5 16 34 39 73c11 20 39 64 86 136c46 71 75 115 87 132l27 39l-220 338c-1 3 -5 13 -5 18c0 16 14 32 33 32h78
c16 0 23 -10 30 -19v1l165 -265c87 148 141 237 161 269c6 9 15 14 28 14h81c16 0 32 -16 32 -32c0 -4 -4 -12 -12 -25c-7 -14 -17 -30 -29 -49l-183 -282z" />
    <glyph glyph-name="y" unicode="y" horiz-adv-x="696" 
d="M537 789l-2 -2c7 9 16 13 27 13h90c21 0 32 -11 32 -32c0 -11 -7 -20 -12 -27c0 -1 -1 -1 -1 -2l-1 -1l-257 -367v-332c0 -20 0 -39 -33 -39h-68c-31 0 -32 19 -32 39v334l-264 377c-4 7 -4 11 -4 19c0 21 10 31 31 31h89c13 0 22 -5 29 -15l187 -277
c104 160 166 253 189 281z" />
    <glyph glyph-name="z" unicode="z" horiz-adv-x="654" 
d="M596 0h-543c-31 0 -33 20 -33 40v43c0 11 4 18 9 25l409 557h-357c-35 0 -40 5 -40 40v56c0 20 -1 39 34 39h509c19 0 32 -16 32 -32v-63c0 -7 -1 -15 -8 -22l-397 -548h379c35 0 39 -5 39 -40v-55c0 -20 -2 -40 -33 -40z" />
    <glyph glyph-name="braceleft" unicode="{" horiz-adv-x="366" 
d="M82 300h-28c-17 0 -26 9 -26 27v69c0 18 9 27 26 27h28c14 0 25 4 32 12c8 8 13 42 13 68v176c0 43 2 84 26 127c20 37 44 59 80 95l6 6c13 13 25 13 38 0l57 -56c11 -11 11 -26 0 -37l-16 -15l-23 -24c-7 -8 -12 -16 -17 -27c-8 -16 -13 -41 -14 -76l-4 -180
c-1 -55 -14 -104 -45 -131c35 -28 44 -73 45 -120l4 -181c1 -33 5 -58 13 -75c1 -1 3 -4 4 -8l3 -6c8 -15 15 -23 28 -30l19 -9c15 -13 16 -25 3 -38l-57 -56c-12 -15 -27 -11 -38 0l-11 11l-41 37c-15 12 -26 26 -34 42c-24 43 -26 82 -26 125v177c0 27 -4 52 -11 57
c-9 9 -21 13 -34 13z" />
    <glyph glyph-name="bar" unicode="|" 
d="M192 878v-1014c0 -16 -14 -32 -33 -32h-66c-19 0 -32 16 -32 32l-2 1014c0 16 13 32 32 32h68c19 0 33 -16 33 -32z" />
    <glyph glyph-name="braceright" unicode="}" horiz-adv-x="366" 
d="M308 300h-27c-13 0 -25 -4 -34 -13c-7 -5 -11 -30 -11 -57v-177c0 -43 -2 -82 -26 -125c-9 -15 -21 -29 -34 -42l-42 -37l-10 -11c-9 -11 -25 -15 -36 0l-57 56c-13 13 -12 25 3 38l18 9c15 7 20 15 27 30c3 3 2 3 3 6c1 4 3 7 4 8c8 17 12 42 13 75l3 181
c1 47 10 92 46 120c-31 27 -45 76 -46 131l-3 180c-1 35 -6 60 -14 76c-5 11 -11 19 -18 27l-23 24l-15 15c-11 11 -11 26 0 37l57 56c13 13 25 13 38 0l6 -6c35 -35 60 -58 80 -95c23 -43 26 -84 26 -127v-176c0 -26 5 -61 12 -68c8 -8 19 -12 33 -12h27c17 0 26 -9 26 -27
v-69c0 -18 -9 -27 -26 -27z" />
    <glyph glyph-name="asciitilde" unicode="~" horiz-adv-x="438" 
d="M37 330c-7 3 -12 7 -15 14c-6 5 -6 15 0 29l22 54c7 15 23 22 43 14c105 -40 190 50 306 -14c8 -4 13 -9 18 -14c6 -6 6 -15 -1 -28l-25 -54c-9 -19 -30 -18 -43 -11c-80 54 -199 -38 -305 10z" />
    <glyph glyph-name="exclamdown" unicode="&#xa1;" 
d="M60 -259l-2 523c0 16 14 32 33 32h68c19 0 32 -16 32 -32v-523c0 -16 -13 -32 -32 -32h-68c-19 0 -31 16 -31 32zM58 401v74c0 16 14 32 33 32h68c19 0 32 -16 32 -32v-74c0 -16 -13 -32 -32 -32h-68c-19 0 -33 16 -33 32z" />
    <glyph glyph-name="cent" unicode="&#xa2;" horiz-adv-x="755" 
d="M442 781v-34c134 -24 232 -127 261 -263c0 -1 -1 -9 -1 -10c-4 -13 -12 -29 -31 -29h-67c-17 0 -24 9 -31 22c-11 31 -18 55 -35 78c-36 49 -93 78 -157 78c-107 0 -195 -88 -195 -196v-84c0 -108 88 -196 195 -196c64 0 120 29 159 80c20 27 28 53 36 86l-1 -2
c3 18 13 27 31 27h67c19 0 32 -16 32 -32c0 -20 -6 -43 -13 -62c-37 -108 -138 -197 -250 -221v-38c0 -16 -14 -32 -33 -32h-68c-19 0 -32 16 -32 32v40c-145 32 -253 163 -253 318v84c0 153 108 286 253 318v36c0 16 13 32 32 32h68c19 0 33 -16 33 -32z" />
    <glyph glyph-name="sterling" unicode="&#xa3;" horiz-adv-x="785" 
d="M101 -56c-6 3 -11 9 -14 17c-5 5 -5 17 -1 36l22 63c0 1 1 3 1 4l2 213h-59c-19 0 -32 16 -32 32v63c0 16 13 32 32 32h61l1 83c3 179 145 326 325 326c163 0 290 -113 322 -269c0 -1 -1 -9 -1 -10c-4 -13 -12 -29 -31 -29h-67c-17 0 -24 9 -31 22c-11 31 -18 55 -35 78
c-36 49 -93 78 -157 78c-107 0 -195 -88 -195 -196v-83h211c19 0 33 -16 33 -32v-63c0 -16 -14 -32 -33 -32h-211v-207c138 16 357 96 444 38c8 -6 14 -11 18 -16c7 -9 6 -17 -1 -34l-25 -64c-9 -23 -30 -24 -42 -13c-80 64 -433 -93 -537 -37z" />
    <glyph glyph-name="yen" unicode="&#xa5;" horiz-adv-x="696" 
d="M540 222v-63c0 -16 -14 -32 -33 -32h-94v-88c0 -20 0 -39 -33 -39h-68c-31 0 -32 19 -32 39v88h-96c-19 0 -32 16 -32 32v63c0 16 13 32 32 32h96v63h-96c-19 0 -32 16 -32 32v63c0 16 13 32 32 32h46l-214 306c-4 7 -4 11 -4 19c0 21 10 31 31 31h89c13 0 22 -5 29 -15
l187 -277c104 160 166 253 189 281l-2 -2c7 9 16 13 27 13h90c21 0 32 -11 32 -32c0 -11 -7 -20 -12 -27c0 -1 -1 -1 -1 -2l-1 -1l-206 -294h43c19 0 33 -16 33 -32v-63c0 -16 -14 -32 -33 -32h-94v-63h94c19 0 33 -16 33 -32z" />
    <glyph glyph-name="quotesingle" unicode="'" horiz-adv-x="226" 
d="M144 519h-61c-16 0 -32 14 -32 33v220c0 19 16 32 32 32h61c16 0 32 -13 32 -32v-220c0 -19 -16 -33 -32 -33z" />
    <glyph glyph-name="quotedblleft" unicode="&#x201c;" horiz-adv-x="421" 
d="M144 519h-61c-16 0 -32 14 -32 33v220c0 19 16 32 32 32h61c16 0 32 -13 32 -32v-220c0 -19 -16 -33 -32 -33zM340 519h-61c-16 0 -32 14 -32 33v220c0 19 16 32 32 32h61c16 0 32 -13 32 -32v-220c0 -19 -16 -33 -32 -33z" />
    <glyph glyph-name="guillemotleft" unicode="&#xab;" horiz-adv-x="689" 
d="M268 608c5 5 12 8 20 8s15 -3 20 -8l52 -51c5 -7 8 -13 8 -20c0 -8 -3 -15 -8 -20l-159 -159l150 -150c5 -5 8 -12 8 -20c0 -9 -3 -15 -8 -20l-51 -51c-5 -5 -11 -8 -20 -8c-8 0 -15 3 -20 8c-224 224 -229 216 -229 241c0 21 2 15 237 250zM552 608c5 5 12 8 20 8
s15 -3 20 -8l52 -51c5 -7 8 -13 8 -20c0 -8 -3 -15 -8 -20l-159 -159l150 -150c5 -5 8 -12 8 -20c0 -9 -3 -15 -8 -20l-51 -51c-5 -5 -11 -8 -20 -8c-8 0 -15 3 -20 8c-224 224 -229 216 -229 241c0 21 2 15 237 250z" />
    <glyph glyph-name="guilsinglleft" unicode="&#x2039;" horiz-adv-x="492" 
d="M312 608c5 5 12 8 20 8s15 -3 20 -8l52 -51c5 -7 8 -13 8 -20c0 -8 -3 -15 -8 -20l-159 -159l150 -150c5 -5 8 -12 8 -20c0 -9 -3 -15 -8 -20l-51 -51c-5 -5 -11 -8 -20 -8c-8 0 -15 3 -20 8c-224 224 -229 216 -229 241c0 21 2 15 237 250z" />
    <glyph glyph-name="guilsinglright" unicode="&#x203a;" horiz-adv-x="492" 
d="M175 608c233 -237 237 -228 237 -250c0 -25 -5 -17 -229 -241c-5 -5 -12 -8 -20 -8c-9 0 -15 3 -20 8l-51 51c-5 5 -8 11 -8 20c0 8 3 15 8 20l150 150l-159 159c-5 5 -8 12 -8 20c0 7 3 13 8 20l52 51c5 5 12 8 20 8s15 -3 20 -8z" />
    <glyph glyph-name="dagger" unicode="&#x2020;" 
d="M320 622v-63c0 -16 -14 -32 -33 -32h-95v-543c0 -16 -14 -32 -33 -32h-67c-19 0 -31 16 -31 32l-2 543h-91c-19 0 -31 16 -31 32v63c0 16 11 32 30 32h92v114c0 16 13 32 32 32h68c19 0 33 -16 33 -32v-114h95c19 0 33 -16 33 -32z" />
    <glyph glyph-name="daggerdbl" unicode="&#x2021;" 
d="M320 202v-63c0 -16 -14 -32 -33 -32h-95v-123c0 -16 -14 -32 -33 -32h-67c-19 0 -31 16 -31 32l-1 123h-91c-19 0 -32 16 -32 32v63c0 16 13 32 32 32h90v293h-91c-19 0 -31 16 -31 32v63c0 16 11 32 30 32h92v114c0 16 13 32 32 32h68c19 0 33 -16 33 -32v-114h95
c19 0 33 -16 33 -32v-63c0 -16 -14 -32 -33 -32h-95v-293h95c19 0 33 -16 33 -32z" />
    <glyph glyph-name="periodcentered" unicode="&#xb7;" 
d="M192 422v-74c0 -16 -14 -32 -33 -32h-68c-19 0 -32 16 -32 32v74c0 16 13 32 32 32h68c19 0 33 -16 33 -32z" />
    <glyph glyph-name="bullet" unicode="&#x2022;" horiz-adv-x="355" 
d="M176 278c-65 0 -116 54 -116 118s51 118 116 118c67 0 121 -54 121 -118s-54 -118 -121 -118z" />
    <glyph glyph-name="quotesinglbase" unicode="&#x201a;" horiz-adv-x="226" 
d="M144 -50h-61c-16 0 -32 14 -32 33v218c0 19 16 32 32 32h61c16 0 32 -13 32 -32v-218c0 -19 -16 -33 -32 -33z" />
    <glyph glyph-name="quotedblbase" unicode="&#x201e;" horiz-adv-x="421" 
d="M144 -49h-61c-16 0 -32 14 -32 33v218c0 19 16 32 32 32h61c16 0 32 -13 32 -32v-218c0 -19 -16 -33 -32 -33zM340 -49h-61c-16 0 -32 14 -32 33v218c0 19 16 32 32 32h61c16 0 32 -13 32 -32v-218c0 -19 -16 -33 -32 -33z" />
    <glyph glyph-name="quotedblright" unicode="&#x201d;" horiz-adv-x="421" 
d="M144 519h-61c-16 0 -32 14 -32 33v220c0 19 16 32 32 32h61c16 0 32 -13 32 -32v-220c0 -19 -16 -33 -32 -33zM340 519h-61c-16 0 -32 14 -32 33v220c0 19 16 32 32 32h61c16 0 32 -13 32 -32v-220c0 -19 -16 -33 -32 -33z" />
    <glyph glyph-name="guillemotright" unicode="&#xbb;" horiz-adv-x="689" 
d="M415 608c235 -235 237 -229 237 -250c0 -25 -5 -17 -229 -241c-5 -5 -12 -8 -20 -8c-9 0 -15 3 -20 8l-51 51c-5 5 -8 11 -8 20c0 8 3 15 8 20l150 150l-159 159c-5 5 -8 12 -8 20c0 7 3 13 8 20l52 51c5 5 12 8 20 8s15 -3 20 -8zM131 608c233 -237 237 -228 237 -250
c0 -25 -5 -17 -229 -241c-5 -5 -12 -8 -20 -8c-9 0 -15 3 -20 8l-51 51c-5 5 -8 11 -8 20c0 8 3 15 8 20l150 150l-159 159c-5 5 -8 12 -8 20c0 7 3 13 8 20l52 51c5 5 12 8 20 8s15 -3 20 -8z" />
    <glyph glyph-name="ellipsis" unicode="&#x2026;" horiz-adv-x="701" 
d="M195 106v-74c0 -16 -14 -32 -33 -32h-68c-19 0 -32 16 -32 32v74c0 16 13 32 32 32h68c19 0 33 -16 33 -32zM415 106v-74c0 -16 -14 -32 -33 -32h-68c-19 0 -32 16 -32 32v74c0 16 13 32 32 32h68c19 0 33 -16 33 -32zM635 106v-74c0 -16 -14 -32 -33 -32h-68
c-19 0 -32 16 -32 32v74c0 16 13 32 32 32h68c19 0 33 -16 33 -32z" />
    <glyph glyph-name="perthousand" unicode="&#x2030;" horiz-adv-x="1276" 
d="M1143 156v181c0 33 -26 61 -61 61h-16c-29 0 -54 -23 -54 -54v-195c0 -31 25 -54 54 -54h16c35 0 61 26 61 61zM1082 0h-16c-80 0 -147 65 -147 149v195c0 84 67 149 147 149h16c84 0 155 -71 155 -156v-181c0 -85 -71 -156 -155 -156zM753 156v181c0 33 -26 61 -61 61
h-16c-29 0 -54 -23 -54 -54v-195c0 -31 25 -54 54 -54h16c35 0 61 26 61 61zM692 0h-16c-80 0 -147 65 -147 149v195c0 84 67 149 147 149h16c84 0 155 -71 155 -156v-181c0 -85 -71 -156 -155 -156zM257 555v181c0 35 -27 61 -62 61h-16c-29 0 -54 -23 -54 -54v-195
c0 -31 25 -54 54 -54h16c35 0 62 28 62 61zM350 736v-181c0 -85 -71 -156 -155 -156h-16c-80 0 -147 65 -147 149v195c0 84 67 149 147 149h16c84 0 155 -71 155 -156zM769 860l-523 -840c-11 -16 -14 -20 -33 -20h-78c-19 0 -23 14 -12 30l523 840c11 16 13 22 32 22h78
c19 0 24 -16 13 -32z" />
    <glyph glyph-name="questiondown" unicode="&#xbf;" horiz-adv-x="661" 
d="M220 -163h160c64 0 97 15 108 64c1 13 2 22 2 27v4c0 25 6 35 33 35h67c28 0 32 -10 32 -35v-18c0 -23 -5 -73 -24 -112c-10 -21 -30 -42 -61 -63c-30 -21 -82 -32 -157 -32h-163c-212 0 -232 255 -104 339c35 23 59 39 78 50l73 40v146c0 20 8 32 37 32h67
c19 0 29 -16 29 -32v-137c0 -54 -3 -76 -63 -111l-114 -63c-16 -13 -27 -22 -32 -27c-17 -19 -21 -41 -13 -66c9 -25 24 -39 45 -41zM264 408v74c0 16 14 32 33 32h68c19 0 32 -16 32 -32v-74c0 -16 -13 -32 -32 -32h-68c-19 0 -33 16 -33 32z" />
    <glyph glyph-name="grave" unicode="`" horiz-adv-x="282" 
d="M208 653h-50c-17 0 -34 6 -54 27l-69 87c-12 19 -1 31 23 31h71c25 0 43 -8 55 -25l48 -88c11 -19 5 -32 -24 -32z" />
    <glyph glyph-name="acute" unicode="&#xb4;" horiz-adv-x="245" 
d="M92 653h-47c-29 0 -35 13 -24 32l48 88c12 17 30 25 55 25h68c24 0 35 -12 23 -31l-69 -87c-20 -21 -37 -27 -54 -27z" />
    <glyph glyph-name="circumflex" unicode="&#x2c6;" horiz-adv-x="417" 
d="M364 650h-67c-24 0 -36 6 -59 26l-37 34l-38 -34c-23 -20 -35 -26 -59 -26h-65c-27 0 -35 18 -15 37l94 87c17 20 36 27 56 27h52c29 0 43 -11 60 -27l93 -87c23 -20 13 -37 -15 -37z" />
    <glyph glyph-name="tilde" unicode="&#x2dc;" horiz-adv-x="396" 
d="M44 680c-7 3 -12 7 -15 14c-6 5 -6 15 0 29l22 54c7 15 23 22 43 14c105 -40 130 46 246 -14c8 -3 14 -8 17 -14c7 -5 7 -14 0 -28l-25 -54c-9 -19 -30 -18 -43 -11c-79 55 -141 -38 -245 10z" />
    <glyph glyph-name="macron" unicode="&#xaf;" horiz-adv-x="404" 
d="M394 768v-63c0 -16 -14 -32 -33 -32h-323c-19 0 -29 16 -32 32v63c0 16 13 32 32 32h323c19 0 33 -16 33 -32z" />
    <glyph glyph-name="breve" unicode="&#x2d8;" horiz-adv-x="404" 
d="M303 803h32c23 0 35 -16 35 -32v-5c0 -11 1 -18 -2 -29c-11 -57 -70 -88 -133 -88h-31l-35 1c-64 1 -121 30 -132 87c-3 11 -3 18 -3 29v5c0 16 12 32 35 32h32c21 0 36 -15 36 -32v-5c0 -9 0 -13 3 -18c5 -11 17 -18 29 -18h66c12 0 25 7 30 18c1 3 2 9 2 18v5
c0 17 15 32 36 32z" />
    <glyph glyph-name="dotaccent" unicode="&#x2d9;" horiz-adv-x="404" 
d="M269 765v-74c0 -16 -14 -32 -33 -32h-68c-19 0 -32 16 -32 32v74c0 16 13 32 32 32h68c19 0 33 -16 33 -32z" />
    <glyph glyph-name="dieresis" unicode="&#xa8;" horiz-adv-x="455" 
d="M173 776v-70c0 -16 -14 -31 -31 -31h-65c-19 0 -31 15 -31 31v70c0 16 12 31 31 31h65c17 0 31 -15 31 -31zM401 776v-70c0 -16 -13 -31 -32 -31h-65c-17 0 -30 15 -30 31v70c0 16 13 31 30 31h65c19 0 32 -15 32 -31z" />
    <glyph glyph-name="ring" unicode="&#x2da;" horiz-adv-x="308" 
d="M169 572h-41c-60 0 -107 52 -107 114s47 114 107 114h41c59 0 110 -53 110 -114c0 -64 -51 -114 -110 -114zM140 650h16c19 0 34 17 37 36c-3 21 -18 36 -37 36h-16c-19 0 -36 -15 -33 -36c-3 -19 14 -36 33 -36z" />
    <glyph glyph-name="cedilla" unicode="&#xb8;" horiz-adv-x="368" 
d="M194 33h35c23 0 26 -16 19 -33l-18 -46c7 -1 13 -2 20 -5c47 -15 78 -53 78 -109c0 -73 -60 -134 -131 -134h-48c-39 0 -71 17 -95 42c-7 9 -13 18 -18 28c-8 16 -7 32 8 40l44 25c15 8 30 -1 38 -16c7 -11 20 -21 36 -21h19c25 0 41 13 41 36c0 21 -16 39 -41 39h-4h-43
c-19 0 -25 13 -18 33l35 93c16 23 30 28 43 28z" />
    <glyph glyph-name="hungarumlaut" unicode="&#x2dd;" horiz-adv-x="439" 
d="M92 653h-47c-29 0 -35 13 -24 32l48 88c12 17 30 25 55 25h68c24 0 35 -12 23 -31l-69 -87c-20 -21 -37 -27 -54 -27zM285 653h-47c-29 0 -35 13 -24 32l48 88c12 17 30 25 55 25h68c24 0 35 -12 23 -31l-69 -87c-20 -21 -37 -27 -54 -27z" />
    <glyph glyph-name="ogonek" unicode="&#x2db;" horiz-adv-x="368" 
d="M160 0h118h-118zM278 0h-128c-7 -3 -54 -31 -54 -31c-46 -30 -58 -53 -58 -109c0 -73 60 -134 131 -134h48c39 0 71 7 95 32c7 9 13 18 18 28c8 16 7 32 -8 40l-44 25c-15 8 -30 -1 -38 -16c-7 -11 -20 -11 -36 -11h-19c-25 0 -41 13 -41 36c0 21 13 32 32 49z" />
    <glyph glyph-name="caron" unicode="&#x2c7;" horiz-adv-x="404" 
d="M40 800h67c24 0 36 -6 59 -26l37 -34l38 34c23 20 35 26 59 26h65c28 0 36 -17 15 -37l-94 -87c-17 -20 -36 -27 -56 -27h-52c-29 0 -43 11 -60 27l-93 87c-23 20 -13 37 15 37z" />
    <glyph glyph-name="AE" unicode="&#xc6;" horiz-adv-x="974" 
d="M898 0h-404c-19 0 -34 13 -34 32v224l-211 -69l-81 -156c-15 -27 -18 -31 -42 -31h-79c-24 0 -42 13 -27 42c15 28 80 153 204 381s187 343 190 351c7 15 16 23 41 26h430c33 0 33 -19 33 -39v-55c0 -36 -5 -39 -40 -39h-286v-191h244c19 0 32 -14 32 -33v-64
c0 -19 -13 -33 -32 -33h-244v-213h299c35 0 40 -3 40 -39v-54c0 -20 0 -40 -33 -40zM315 341l145 50v211z" />
    <glyph glyph-name="ordfeminine" unicode="&#xaa;" horiz-adv-x="435" 
 />
    <glyph glyph-name="Lslash" unicode="&#x141;" horiz-adv-x="608" 
d="M536 0h-440c-21 0 -31 11 -31 32l-1 268l-31 -15c-21 -11 -36 -9 -36 28v41c0 21 3 32 18 43l49 24v347c0 21 11 32 32 32h69c31 0 32 -19 32 -39v-274l88 43c23 11 42 9 42 -28v-41c0 -21 -8 -32 -24 -43l-106 -52v-233h332c36 0 39 -3 39 -39v-54c0 -20 -1 -40 -32 -40
z" />
    <glyph glyph-name="Oslash" unicode="&#xd8;" horiz-adv-x="795" 
d="M745 480v-157c0 -184 -157 -332 -349 -332c-43 0 -83 7 -122 19l-35 -68c-11 -16 -22 -24 -43 -24h-51c-37 0 -40 19 -28 42l55 107c-8 6 -16 13 -23 20c-64 60 -103 144 -103 236v157c0 184 159 331 351 331c47 0 92 -9 135 -26l5 -2l30 58c11 16 22 24 43 24h51
c37 0 39 -19 28 -42l-52 -103l6 -6c63 -63 102 -142 102 -234zM396 684c-118 0 -215 -93 -215 -204v-157c0 -27 6 -53 17 -79c9 -20 21 -39 36 -56l245 480c-25 11 -53 16 -83 16zM610 323v157c0 27 -6 53 -17 79c-5 11 -12 23 -21 35l-238 -467c21 -5 42 -8 62 -8
c117 0 214 92 214 204z" />
    <glyph glyph-name="OE" unicode="&#x152;" horiz-adv-x="986" 
d="M910 0h-514c-85 0 -156 19 -213 58s-95 81 -112 127c-17 45 -25 91 -25 138v157c0 92 39 177 103 230c64 56 152 90 248 90h500c33 0 33 -19 33 -39v-52c0 -36 -5 -39 -40 -39h-296v-180h254c19 0 32 -14 32 -33v-68c0 -19 -13 -33 -32 -33h-254v-226h309
c35 0 40 -3 40 -39v-51c0 -20 0 -40 -33 -40zM392 128h74v551h-73c-27 0 -54 -5 -81 -16c-77 -31 -131 -94 -131 -183v-157c0 -89 55 -148 131 -176c27 -11 52 -19 80 -19z" />
    <glyph glyph-name="ae" unicode="&#xe6;" horiz-adv-x="974" 
d="M898 0h-404c-19 0 -34 13 -34 32v224l-211 -69l-81 -156c-15 -27 -18 -31 -42 -31h-79c-24 0 -42 13 -27 42c15 28 80 153 204 381s187 343 190 351c7 15 16 23 41 26h430c33 0 33 -19 33 -39v-55c0 -36 -5 -39 -40 -39h-286v-191h244c19 0 32 -14 32 -33v-64
c0 -19 -13 -33 -32 -33h-244v-213h299c35 0 40 -3 40 -39v-54c0 -20 0 -40 -33 -40zM315 341l145 50v211z" />
    <glyph glyph-name="dotlessi" unicode="&#x131;" 
d="M192 768v-736c0 -16 -14 -32 -33 -32h-68c-19 0 -30 16 -30 32l-2 736c0 16 13 32 32 32h68c19 0 33 -16 33 -32z" />
    <glyph glyph-name="lslash" unicode="&#x142;" horiz-adv-x="608" 
d="M536 0h-440c-21 0 -31 11 -31 32l-1 268l-31 -15c-21 -11 -36 -9 -36 28v41c0 21 3 32 18 43l49 24v347c0 21 11 32 32 32h69c31 0 32 -19 32 -39v-274l88 43c23 11 42 9 42 -28v-41c0 -21 -8 -32 -24 -43l-106 -52v-233h332c36 0 39 -3 39 -39v-54c0 -20 -1 -40 -32 -40
z" />
    <glyph glyph-name="oslash" unicode="&#xf8;" horiz-adv-x="795" 
d="M745 480v-157c0 -184 -157 -332 -349 -332c-43 0 -83 7 -122 19l-35 -68c-11 -16 -22 -24 -43 -24h-51c-37 0 -40 19 -28 42l55 107c-8 6 -16 13 -23 20c-64 60 -103 144 -103 236v157c0 184 159 331 351 331c47 0 92 -9 135 -26l5 -2l30 58c11 16 22 24 43 24h51
c37 0 39 -19 28 -42l-52 -103l6 -6c63 -63 102 -142 102 -234zM396 684c-118 0 -215 -93 -215 -204v-157c0 -27 6 -53 17 -79c9 -20 21 -39 36 -56l245 480c-25 11 -53 16 -83 16zM610 323v157c0 27 -6 53 -17 79c-5 11 -12 23 -21 35l-238 -467c21 -5 42 -8 62 -8
c117 0 214 92 214 204z" />
    <glyph glyph-name="oe" unicode="&#x153;" horiz-adv-x="986" 
d="M910 0h-514c-85 0 -156 19 -213 58s-95 81 -112 127c-17 45 -25 91 -25 138v157c0 92 39 177 103 230c64 56 152 90 248 90h500c33 0 33 -19 33 -39v-52c0 -36 -5 -39 -40 -39h-296v-180h254c19 0 32 -14 32 -33v-68c0 -19 -13 -33 -32 -33h-254v-226h309
c35 0 40 -3 40 -39v-51c0 -20 0 -40 -33 -40zM392 128h74v551h-73c-27 0 -54 -5 -81 -16c-77 -31 -131 -94 -131 -183v-157c0 -89 55 -148 131 -176c27 -11 52 -19 80 -19z" />
    <glyph glyph-name="germandbls" unicode="&#xdf;" horiz-adv-x="704" 
d="M192 858v-58h227c94 0 168 -77 168 -170c0 -35 -6 -62 -18 -83s-39 -43 -80 -65c109 -20 155 -74 155 -182v-83c0 -120 -97 -217 -217 -217h-235v-96c0 -16 -14 -32 -33 -32h-76c-19 0 -32 16 -32 32l-2 954c0 16 13 32 32 32h78c19 0 33 -16 33 -32zM314 370l-123 -67
v-170h236c23 0 43 8 60 25l10 12c16 19 15 43 15 47c0 11 1 19 1 30c0 9 1 19 1 28c0 72 -35 95 -72 95h-128zM191 667v-220c77 40 237 127 256 157c4 6 6 15 6 26c0 20 -14 37 -34 37h-228z" />
    <glyph glyph-name="trademark" unicode="&#x2122;" horiz-adv-x="786" 
d="M710 393h-52c-13 0 -19 6 -19 19v228l-81 -98c-4 -8 -10 -9 -17 -9h-31c-5 0 -12 1 -16 9l-81 98v-228c0 -13 -6 -19 -19 -19h-52c-13 0 -19 6 -19 19v298h-73v-298c0 -13 -7 -19 -20 -19h-51c-12 0 -18 6 -18 19v298h-103c-12 0 -18 6 -18 18v50c0 13 6 19 18 19h281h3
h50c1 0 11 -1 15 -8l119 -145l119 145c4 7 14 8 15 8h50c13 0 19 -6 19 -19v-366c0 -13 -6 -19 -19 -19z" />
    <glyph glyph-name="Eth" unicode="&#xd0;" horiz-adv-x="746" 
d="M91 800h283c175 0 318 -143 318 -317v-166c0 -174 -143 -317 -318 -317h-283c-19 0 -32 13 -32 32l-2 316h-35c-17 0 -26 16 -26 32l-1 53c0 16 8 32 27 32h35v303c0 16 15 32 34 32zM361 433v-53c0 -16 -14 -32 -33 -32h-137v-215h183c101 0 185 84 185 184v166
c0 100 -84 184 -185 184h-183v-202h137c19 0 33 -16 33 -32z" />
    <glyph glyph-name="plusminus" unicode="&#xb1;" horiz-adv-x="492" 
d="M438 412v-63c0 -16 -14 -32 -33 -32h-323c-19 0 -32 16 -32 32v63c0 16 13 32 32 32h323c19 0 33 -16 33 -32zM213 575h63c16 0 32 -14 32 -33v-323c0 -19 -16 -32 -32 -32h-63c-16 0 -32 13 -32 32v323c0 19 16 33 32 33zM438 92v-63c0 -16 -14 -30 -33 -30h-323
c-19 0 -31 14 -31 30l-1 63c0 16 13 32 32 32h323c19 0 33 -16 33 -32z" />
    <glyph glyph-name="Thorn" unicode="&#xde;" horiz-adv-x="647" 
d="M60 32l-2 736c0 16 14 32 33 32h68c31 0 32 -14 32 -29v-90h236c217 0 236 -255 104 -343c-35 -23 -59 -39 -78 -50l-262 -145v-104c0 -20 -1 -39 -32 -39h-68c-19 0 -31 16 -31 32zM420 548h-229v-255c51 27 111 60 162 89c25 15 43 26 52 33c20 15 38 28 43 36
c13 21 17 43 12 64c-5 22 -19 33 -40 33z" />
    <glyph glyph-name="divide" unicode="&#xf7;" horiz-adv-x="492" 
d="M438 412v-63c0 -16 -14 -32 -33 -32h-323c-19 0 -32 16 -32 32v63c0 16 13 32 32 32h323c19 0 33 -16 33 -32zM311 246v-74c0 -16 -14 -32 -33 -32h-68c-19 0 -32 16 -32 32v74c0 16 13 32 32 32h68c19 0 33 -16 33 -32zM311 596v-74c0 -16 -14 -32 -33 -32h-68
c-19 0 -32 16 -32 32v74c0 16 13 32 32 32h68c19 0 33 -16 33 -32z" />
    <glyph glyph-name="brokenbar" unicode="&#xa6;" 
d="M192 878v-426c0 -16 -14 -32 -33 -32h-68c-19 0 -32 16 -32 32v426c0 16 13 32 32 32h68c19 0 33 -16 33 -32zM192 288v-424c0 -16 -14 -32 -33 -32h-66c-19 0 -32 16 -32 32l-2 424c0 16 13 32 32 32h68c19 0 33 -16 33 -32z" />
    <glyph glyph-name="degree" unicode="&#xb0;" horiz-adv-x="258" 
d="M128 728c-35 0 -55 -25 -52 -56c-3 -33 19 -56 52 -56s53 23 56 56c-3 31 -23 56 -56 56zM128 554c-64 0 -118 51 -118 118c0 64 52 118 118 118c63 0 120 -54 120 -118c0 -68 -57 -118 -120 -118z" />
    <glyph glyph-name="thorn" unicode="&#xfe;" horiz-adv-x="647" 
d="M60 32l-2 736c0 16 14 32 33 32h68c31 0 32 -14 32 -29v-90h236c217 0 236 -255 104 -343c-35 -23 -59 -39 -78 -50l-262 -145v-104c0 -20 -1 -39 -32 -39h-68c-19 0 -31 16 -31 32zM420 548h-229v-255c51 27 111 60 162 89c25 15 43 26 52 33c20 15 38 28 43 36
c13 21 17 43 12 64c-5 22 -19 33 -40 33z" />
    <glyph glyph-name="registered" unicode="&#xae;" horiz-adv-x="736" 
d="M227 590h178c45 0 85 -40 85 -85c0 -39 -21 -60 -49 -79c11 -28 19 -55 30 -82c16 -45 33 -89 50 -133c5 -14 0 -21 -15 -21h-38c-11 0 -13 6 -16 13l-72 190c-35 -19 -65 -34 -101 -53v-130c0 -11 -1 -20 -16 -20h-36c-9 0 -16 8 -16 16v368c0 8 7 16 16 16zM401 524
h-122v-109c40 19 128 63 139 80v-1c2 3 3 6 3 11c0 11 -8 19 -20 19zM366 652c-144 0 -248 -109 -248 -262s104 -262 248 -262c143 0 252 109 252 262s-109 262 -252 262zM366 32c-197 0 -346 151 -346 358s148 358 346 358c197 0 350 -151 350 -358s-153 -358 -350 -358z
" />
    <glyph glyph-name="eth" unicode="&#xf0;" horiz-adv-x="746" 
d="M91 800h283c175 0 318 -143 318 -317v-166c0 -174 -143 -317 -318 -317h-283c-19 0 -32 13 -32 32l-2 316h-35c-17 0 -26 16 -26 32l-1 53c0 16 8 32 27 32h35v303c0 16 15 32 34 32zM361 433v-53c0 -16 -14 -32 -33 -32h-137v-215h183c101 0 185 84 185 184v166
c0 100 -84 184 -185 184h-183v-202h137c19 0 33 -16 33 -32z" />
    <glyph glyph-name="multiply" unicode="&#xd7;" horiz-adv-x="492" 
d="M84 488l45 45c11 11 31 14 46 -1l69 -69l69 69c15 15 34 11 46 0l45 -44c11 -11 12 -33 -1 -46l-67 -69l67 -69c15 -15 12 -34 0 -46l-44 -44c-12 -12 -31 -15 -46 0l-69 69l-69 -69c-15 -15 -34 -12 -46 0l-44 44c-12 12 -15 30 0 45l69 69l-69 70c-13 15 -12 35 -1 46z
" />
    <glyph glyph-name="copyright" unicode="&#xa9;" horiz-adv-x="736" 
d="M366 652c-144 0 -248 -109 -248 -262s104 -262 248 -262c143 0 252 109 252 262s-109 262 -252 262zM366 32c-197 0 -346 151 -346 358s148 358 346 358c197 0 350 -151 350 -358s-153 -358 -350 -358zM528 328c0 -11 -3 -20 -6 -31c-24 -64 -88 -113 -156 -113
c-88 0 -162 74 -162 162v87c0 90 74 163 162 163c83 0 145 -55 161 -134v-5c-3 -7 -5 -15 -16 -15h-33c-9 0 -12 4 -16 11c-5 16 -9 28 -17 39c-19 25 -47 39 -79 39c-53 0 -97 -44 -97 -98v-87c0 -52 44 -98 97 -98c32 0 60 15 80 40c11 15 14 27 18 43l-1 -1
c2 9 7 14 16 14h33c11 0 16 -8 16 -16z" />
    <glyph glyph-name="Aacute" unicode="&#xc1;" horiz-adv-x="689" 
d="M675 32c0 -21 -11 -32 -32 -32h-72c-21 0 -25 11 -32 26l-91 263l-246 -109l-55 -154c-7 -16 -9 -26 -32 -26h-70c-16 0 -33 13 -33 32c0 4 229 679 255 742c7 15 12 26 32 26h88c20 0 24 -13 31 -26l256 -730c1 -7 1 -8 1 -12zM262 361l138 61c-12 32 -20 52 -23 63
s-7 20 -10 31c-7 20 -13 41 -24 72zM359 864h-47c-29 0 -35 13 -24 32l48 88c12 17 30 25 55 25h68c24 0 35 -12 23 -31l-69 -87c-20 -21 -37 -27 -54 -27z" />
    <glyph glyph-name="Acircumflex" unicode="&#xc2;" horiz-adv-x="689" 
d="M506 861h-67c-24 0 -36 6 -59 26l-37 34l-38 -34c-23 -20 -35 -26 -59 -26h-65c-28 0 -36 17 -15 37l94 87c17 20 36 27 56 27h52c29 0 43 -11 60 -27l93 -87c23 -20 13 -37 -15 -37zM675 32c0 -21 -11 -32 -32 -32h-72c-21 0 -25 11 -32 26l-91 263l-246 -109l-55 -154
c-7 -16 -9 -26 -32 -26h-70c-16 0 -33 13 -33 32c0 4 229 679 255 742c7 15 12 26 32 26h88c20 0 24 -13 31 -26l256 -730c1 -7 1 -8 1 -12zM262 361l138 61c-12 32 -20 52 -23 63s-5 20 -10 31c-7 20 -13 41 -24 72z" />
    <glyph glyph-name="Adieresis" unicode="&#xc4;" horiz-adv-x="689" 
d="M291 965v-70c0 -16 -14 -31 -31 -31h-65c-19 0 -31 15 -31 31v70c0 16 12 31 31 31h65c17 0 31 -15 31 -31zM519 965v-70c0 -16 -13 -31 -32 -31h-65c-17 0 -30 15 -30 31v70c0 16 13 31 30 31h65c19 0 32 -15 32 -31zM675 32c0 -21 -11 -32 -32 -32h-72
c-21 0 -25 11 -32 26l-91 263l-246 -109l-55 -154c-7 -16 -9 -26 -33 -26h-69c-16 0 -33 13 -33 32c0 4 229 679 255 742c7 15 12 26 32 26h88c20 0 24 -13 31 -26l256 -730c1 -7 1 -8 1 -12zM262 361l138 61c-12 32 -20 52 -23 63s-7 20 -10 31c-7 20 -13 41 -24 72z" />
    <glyph glyph-name="Agrave" unicode="&#xc0;" horiz-adv-x="689" 
d="M675 32c0 -21 -11 -32 -32 -32h-72c-21 0 -25 11 -32 26l-91 263l-246 -109l-55 -154c-7 -16 -9 -26 -32 -26h-70c-16 0 -33 13 -33 32c0 4 229 679 255 742c7 15 12 26 32 26h88c20 0 24 -13 31 -26l256 -730c1 -7 1 -8 1 -12zM262 361l138 61c-12 32 -20 52 -23 63
s-7 20 -10 31c-7 20 -13 41 -24 72zM370 863h-50c-17 0 -34 6 -54 27l-69 87c-12 19 -1 31 23 31h71c25 0 43 -8 55 -25l48 -88c11 -19 5 -32 -24 -32z" />
    <glyph glyph-name="Aring" unicode="&#xc5;" horiz-adv-x="689" 
d="M675 32c0 -21 -11 -32 -32 -32h-72c-21 0 -25 11 -32 26l-91 263l-246 -109l-55 -154c-7 -16 -9 -26 -33 -26h-69c-16 0 -33 13 -33 32c0 4 176 520 236 692l10 28l-13 12c-21 20 -32 50 -32 81c0 62 49 114 109 114h41c59 0 108 -53 108 -114c0 -32 -12 -60 -32 -81
c-4 -5 -8 -9 -13 -12l248 -708c1 -7 1 -8 1 -12zM262 361l138 61l-57 182zM334 804h16c19 0 35 17 35 36c0 21 -16 36 -35 36h-16c-19 0 -35 -15 -35 -36c0 -19 16 -36 35 -36z" />
    <glyph glyph-name="Atilde" unicode="&#xc3;" horiz-adv-x="689" 
d="M675 32c0 -21 -11 -32 -32 -32h-72c-21 0 -25 11 -32 26l-91 263l-246 -109l-55 -154c-7 -16 -9 -26 -32 -26h-70c-16 0 -33 13 -33 32c0 4 229 679 255 742c7 15 12 26 32 26h88c20 0 24 -13 31 -26l256 -730c1 -7 1 -8 1 -12zM262 361l138 61c-12 32 -20 52 -23 63
s-7 20 -10 31c-7 20 -13 41 -24 72zM198 880c-7 3 -12 7 -15 14c-6 5 -6 15 0 29l22 54c7 15 23 22 43 14c105 -40 130 46 246 -14c8 -3 14 -8 17 -14c7 -5 7 -14 0 -28l-25 -54c-9 -19 -30 -18 -43 -11c-81 53 -140 -38 -245 10z" />
    <glyph glyph-name="Ccedilla" unicode="&#xc7;" horiz-adv-x="755" 
d="M381 813c163 0 290 -113 322 -269c0 -1 -1 -9 -1 -10c-4 -13 -12 -29 -31 -29h-67c-17 0 -24 9 -31 22c-11 31 -18 55 -35 78c-36 49 -93 78 -157 78c-107 0 -195 -88 -195 -196v-174c0 -108 88 -196 195 -196c64 0 120 29 159 80c20 27 28 53 36 86l-1 -2
c3 18 13 27 31 27h67c19 0 32 -16 32 -32c0 -20 -6 -43 -13 -62c-35 -97 -111 -183 -212 -210l-31 -7l-16 -43c7 -1 13 -2 20 -5c47 -15 78 -53 78 -109c0 -73 -60 -134 -131 -134h-48c-39 0 -71 17 -95 42c-7 9 -13 18 -18 28c-8 16 -7 32 8 40l44 25c15 8 30 -1 38 -16
c7 -11 20 -21 36 -21h19c25 0 41 13 41 36c0 21 -16 39 -41 39h-47c-19 0 -27 14 -18 33l29 79c-33 3 -64 9 -93 22c-117 51 -199 164 -199 300v174c0 179 146 326 325 326z" />
    <glyph glyph-name="Eacute" unicode="&#xc9;" horiz-adv-x="664" 
d="M588 0h-495c-19 0 -33 13 -33 32l-2 736c0 19 15 32 34 32h483c33 0 33 -19 33 -39v-55c0 -36 -5 -39 -40 -39h-375v-177h333c19 0 32 -14 32 -33v-68c0 -19 -13 -33 -32 -33h-333v-223h388c35 0 40 -3 40 -39v-54c0 -20 0 -40 -33 -40zM351 868h-47c-29 0 -35 13 -24 32
l48 88c12 17 30 25 55 25h68c24 0 35 -12 23 -31l-69 -87c-20 -21 -37 -27 -54 -27z" />
    <glyph glyph-name="Ecircumflex" unicode="&#xca;" horiz-adv-x="664" 
d="M588 0h-495c-19 0 -33 13 -33 32l-2 736c0 19 15 32 34 32h483c33 0 33 -19 33 -39v-55c0 -36 -5 -39 -40 -39h-375v-177h333c19 0 32 -14 32 -33v-68c0 -19 -13 -33 -32 -33h-333v-223h388c35 0 40 -3 40 -39v-54c0 -20 0 -40 -33 -40zM501 865h-67c-24 0 -36 6 -59 26
l-37 34l-38 -34c-23 -20 -35 -26 -59 -26h-65c-28 0 -36 17 -15 37l94 87c17 20 36 27 56 27h52c29 0 43 -11 60 -27l93 -87c23 -20 13 -37 -15 -37z" />
    <glyph glyph-name="Edieresis" unicode="&#xcb;" horiz-adv-x="664" 
d="M588 0h-495c-19 0 -33 13 -33 32l-2 736c0 19 15 32 34 32h483c33 0 33 -19 33 -39v-55c0 -36 -5 -39 -40 -39h-375v-177h333c19 0 32 -14 32 -33v-68c0 -19 -13 -33 -32 -33h-333v-223h388c35 0 40 -3 40 -39v-54c0 -20 0 -40 -33 -40zM285 957v-64
c0 -13 -14 -27 -31 -27h-65c-19 0 -31 14 -31 27v64c0 13 12 28 31 28h65c17 0 31 -15 31 -28zM514 957v-64c0 -13 -13 -27 -32 -27h-65c-17 0 -30 14 -30 27v64c0 13 13 28 30 28h65c19 0 32 -15 32 -28z" />
    <glyph glyph-name="Egrave" unicode="&#xc8;" horiz-adv-x="664" 
d="M379 870h-57c-17 0 -34 6 -54 27l-69 87c-12 19 -1 31 23 31h78c25 0 43 -8 55 -25l48 -88c11 -19 5 -32 -24 -32zM588 0h-495c-19 0 -33 13 -33 32l-2 736c0 19 15 32 34 32h483c33 0 33 -19 33 -39v-55c0 -36 -5 -39 -40 -39h-375v-177h333c19 0 32 -14 32 -33v-68
c0 -19 -13 -33 -32 -33h-333v-223h388c35 0 40 -3 40 -39v-54c0 -20 0 -40 -33 -40z" />
    <glyph glyph-name="Iacute" unicode="&#xcd;" 
d="M192 768v-736c0 -16 -14 -32 -33 -32h-67c-19 0 -31 16 -31 32l-2 736c0 16 13 32 32 32h68c19 0 33 -16 33 -32zM145 863h-47c-29 0 -35 13 -24 32l48 88c12 17 30 25 55 25h68c24 0 35 -12 23 -31l-69 -87c-20 -21 -37 -27 -54 -27z" />
    <glyph glyph-name="Icircumflex" unicode="&#xce;" 
d="M192 768v-736c0 -16 -14 -32 -33 -32h-67c-19 0 -31 16 -31 32l-2 736c0 16 13 32 32 32h68c19 0 33 -16 33 -32zM287 860h-67c-24 0 -36 6 -59 26l-37 34l-38 -34c-23 -20 -35 -26 -59 -26h-61c-27 0 -35 17 -15 37l90 87c17 20 36 27 56 27h52c29 0 43 -11 60 -27
l93 -87c23 -20 13 -37 -15 -37z" />
    <glyph glyph-name="Idieresis" unicode="&#xcf;" 
d="M192 768v-736c0 -16 -14 -32 -33 -32h-67c-19 0 -31 16 -31 32l-2 736c0 16 13 32 32 32h68c19 0 33 -16 33 -32zM74 967v-70c0 -16 -14 -31 -31 -31h-61c-19 0 -31 15 -31 31v70c0 16 12 31 31 31h61c17 0 31 -15 31 -31zM302 967v-70c0 -16 -13 -31 -32 -31h-65
c-17 0 -30 15 -30 31v70c0 16 13 31 30 31h65c19 0 32 -15 32 -31z" />
    <glyph glyph-name="Igrave" unicode="&#xcc;" 
d="M192 768v-736c0 -16 -14 -32 -33 -32h-67c-19 0 -31 16 -31 32l-2 736c0 16 13 32 32 32h68c19 0 33 -16 33 -32zM157 866h-50c-17 0 -34 6 -54 27l-65 87c-15 19 -1 31 19 31h71c25 0 43 -8 55 -25l48 -88c11 -19 5 -32 -24 -32z" />
    <glyph glyph-name="Ntilde" unicode="&#xd1;" horiz-adv-x="732" 
d="M669 768v-736c0 -16 -14 -32 -33 -32h-68c-13 0 -22 5 -28 15c-120 179 -224 333 -347 515v-498c0 -16 -14 -32 -33 -32h-68c-19 0 -31 16 -31 32l-2 736c0 16 13 32 32 32h74c12 0 21 -5 27 -16v1l343 -516v499c0 16 14 32 33 32h68c19 0 33 -16 33 -32zM217 873
c-7 3 -12 7 -15 14c-6 5 -6 15 0 29l22 54c7 15 23 22 43 14c105 -40 130 46 246 -14c8 -3 14 -8 17 -14c7 -5 7 -14 0 -28l-25 -54c-9 -19 -30 -18 -43 -11c-81 53 -140 -38 -245 10z" />
    <glyph glyph-name="Oacute" unicode="&#xd3;" horiz-adv-x="795" 
d="M745 480v-157c0 -184 -157 -332 -349 -332s-350 148 -350 332v157c0 184 159 331 351 331c193 0 348 -147 348 -331zM610 323v157c0 112 -97 204 -214 204c-118 0 -215 -93 -215 -204v-157c0 -112 97 -204 215 -204c117 0 214 92 214 204zM409 870h-47
c-29 0 -35 13 -24 32l48 88c12 17 30 25 55 25h68c24 0 35 -12 23 -31l-69 -87c-20 -21 -37 -27 -54 -27z" />
    <glyph glyph-name="Ocircumflex" unicode="&#xd4;" horiz-adv-x="795" 
d="M745 480v-157c0 -184 -157 -332 -349 -332s-350 148 -350 332v157c0 184 159 331 351 331c193 0 348 -147 348 -331zM610 323v157c0 112 -97 204 -214 204c-118 0 -215 -93 -215 -204v-157c0 -112 97 -204 215 -204c117 0 214 92 214 204zM556 864h-67
c-24 0 -36 6 -59 26l-37 34l-38 -34c-23 -20 -35 -26 -59 -26h-65c-28 0 -36 17 -15 37l94 87c17 20 36 27 56 27h52c29 0 43 -11 60 -27l93 -87c23 -20 13 -37 -15 -37z" />
    <glyph glyph-name="Odieresis" unicode="&#xd6;" horiz-adv-x="795" 
d="M745 480v-157c0 -184 -157 -332 -349 -332s-350 148 -350 332v157c0 184 159 331 351 331c193 0 348 -147 348 -331zM610 323v157c0 112 -97 204 -214 204c-118 0 -215 -93 -215 -204v-157c0 -112 97 -204 215 -204c117 0 214 92 214 204zM343 966v-67
c0 -16 -13 -30 -32 -30h-66c-19 0 -31 14 -31 30v67c0 15 12 29 31 29h66c19 0 32 -14 32 -29zM575 966v-67c0 -16 -13 -30 -33 -30h-66c-17 0 -30 14 -30 30v67c0 15 13 29 30 29h66c20 0 33 -14 33 -29z" />
    <glyph glyph-name="Ograve" unicode="&#xd2;" horiz-adv-x="795" 
d="M745 480v-157c0 -184 -157 -332 -349 -332s-350 148 -350 332v157c0 184 159 331 351 331c193 0 348 -147 348 -331zM610 323v157c0 112 -97 204 -214 204c-118 0 -215 -93 -215 -204v-157c0 -112 97 -204 215 -204c117 0 214 92 214 204zM431 870h-50
c-17 0 -34 6 -54 27l-69 87c-12 19 -1 31 23 31h71c25 0 43 -8 55 -25l48 -88c11 -19 5 -32 -24 -32z" />
    <glyph glyph-name="Otilde" unicode="&#xd5;" horiz-adv-x="795" 
d="M745 480v-157c0 -184 -157 -332 -349 -332s-350 148 -350 332v157c0 184 159 331 351 331c193 0 348 -147 348 -331zM610 323v157c0 112 -97 204 -214 204c-118 0 -215 -93 -215 -204v-157c0 -112 97 -204 215 -204c117 0 214 92 214 204zM250 888c-7 3 -12 7 -15 14
c-6 5 -6 15 0 29l22 54c7 15 23 22 43 14c105 -40 130 46 246 -14c8 -3 14 -8 17 -14c7 -5 7 -14 0 -28l-25 -54c-9 -19 -30 -18 -43 -11c-79 55 -141 -38 -245 10z" />
    <glyph glyph-name="Scaron" unicode="&#x160;" horiz-adv-x="668" 
d="M623 248c0 -76 -31 -160 -76 -200s-109 -57 -181 -57h-76c-87 0 -164 44 -207 113c-14 23 -23 44 -27 65c-8 41 -8 58 -8 81v-2c0 20 0 39 31 39h68c16 0 26 -8 30 -24c4 -13 3 -16 3 -32c0 -5 1 -14 2 -27c11 -49 56 -85 108 -85h76c60 0 112 33 121 86c1 7 2 13 2 20
c1 13 2 43 -15 58c-28 24 -89 34 -161 51c-128 29 -266 68 -266 202v14c0 21 -1 42 6 69l-1 -1c21 111 124 192 238 192h76c60 0 117 -22 162 -58s73 -105 70 -182c-1 -20 -1 -39 -32 -39h-66c-19 0 -31 16 -32 32c-3 85 -38 117 -102 117h-76c-51 0 -98 -37 -109 -88v1
c-3 -17 -9 -47 16 -72c13 -13 28 -22 43 -26l115 -32c60 -17 103 -28 128 -37c27 -9 50 -21 70 -34c41 -28 70 -76 70 -144zM173 1018h67c24 0 36 -6 59 -26l37 -34l38 34c23 20 35 26 59 26h65c28 0 36 -17 15 -37l-94 -87c-17 -20 -36 -27 -56 -27h-52
c-29 0 -43 11 -60 27l-93 87c-23 20 -13 37 15 37z" />
    <glyph glyph-name="Uacute" unicode="&#xda;" horiz-adv-x="700" 
d="M637 768v-514c0 -140 -118 -254 -258 -254h-77c-132 0 -243 105 -243 241v527c0 21 11 32 32 32h67c31 0 32 -19 32 -39v-520c0 -61 52 -110 112 -110h77c69 0 126 55 126 123v507c0 20 2 39 33 39h66c22 0 33 -11 33 -32zM366 862h-47c-29 0 -35 13 -24 32l48 88
c12 17 30 25 55 25h68c24 0 35 -12 23 -31l-69 -87c-20 -21 -37 -27 -54 -27z" />
    <glyph glyph-name="Ucircumflex" unicode="&#xdb;" horiz-adv-x="700" 
d="M637 768v-514c0 -140 -118 -254 -258 -254h-77c-133 0 -242 105 -242 241l-1 527c0 21 11 32 32 32h67c31 0 32 -19 32 -39v-520c0 -61 52 -110 112 -110h77c69 0 126 55 126 123v507c0 20 2 39 33 39h66c22 0 33 -11 33 -32zM506 868h-67c-24 0 -36 6 -59 26l-37 34
l-38 -34c-23 -20 -35 -26 -59 -26h-65c-28 0 -36 17 -15 37l94 87c17 20 36 27 56 27h52c29 0 43 -11 60 -27l93 -87c23 -20 13 -37 -15 -37z" />
    <glyph glyph-name="Udieresis" unicode="&#xdc;" horiz-adv-x="700" 
d="M637 768v-514c0 -140 -118 -254 -258 -254h-77c-132 0 -243 105 -243 241v527c0 21 11 32 32 32h67c31 0 32 -19 32 -39v-520c0 -61 52 -110 112 -110h77c69 0 126 55 126 123v507c0 20 2 39 33 39h66c22 0 33 -11 33 -32zM296 957v-63c0 -15 -14 -28 -31 -28h-65
c-19 0 -31 13 -31 28v63c0 15 12 29 31 29h65c17 0 31 -14 31 -29zM525 957v-63c0 -15 -13 -28 -32 -28h-65c-17 0 -30 13 -30 28v63c0 15 13 29 30 29h65c19 0 32 -14 32 -29z" />
    <glyph glyph-name="Ugrave" unicode="&#xd9;" horiz-adv-x="700" 
d="M637 768v-514c0 -140 -118 -254 -258 -254h-77c-132 0 -243 105 -243 241v527c0 21 11 32 32 32h67c31 0 32 -19 32 -39v-520c0 -61 52 -110 112 -110h77c69 0 126 55 126 123v507c0 20 2 39 33 39h66c22 0 33 -11 33 -32zM392 862h-50c-17 0 -34 6 -54 27l-69 87
c-12 19 -1 31 23 31h71c25 0 43 -8 55 -25l48 -88c11 -19 5 -32 -24 -32z" />
    <glyph glyph-name="Yacute" unicode="&#xdd;" horiz-adv-x="696" 
d="M537 789l-2 -2c7 9 16 13 27 13h90c21 0 32 -11 32 -32c0 -11 -7 -20 -12 -27c0 -1 -1 -1 -1 -2l-1 -1l-257 -367v-332c0 -20 0 -39 -33 -39h-68c-31 0 -32 19 -32 39v334l-264 377c-4 7 -4 11 -4 19c0 21 10 31 31 31h89c13 0 22 -5 29 -15l187 -277
c104 160 166 253 189 281zM359 860h-47c-29 0 -35 13 -24 32l48 88c12 17 30 25 55 25h68c24 0 35 -12 23 -31l-69 -87c-20 -21 -37 -27 -54 -27z" />
    <glyph glyph-name="Ydieresis" unicode="&#x178;" horiz-adv-x="696" 
d="M537 789l-2 -2c7 9 16 13 27 13h90c21 0 32 -11 32 -32c0 -11 -7 -20 -12 -27c0 -1 -1 -1 -1 -2l-1 -1l-257 -367v-332c0 -20 0 -39 -33 -39h-68c-31 0 -32 19 -32 39v334l-264 377c-4 7 -4 11 -4 19c0 21 10 31 31 31h89c13 0 22 -5 29 -15l187 -277
c104 160 166 253 189 281zM297 962v-70c0 -16 -14 -31 -31 -31h-65c-19 0 -31 15 -31 31v70c0 16 12 31 31 31h65c17 0 31 -15 31 -31zM525 962v-70c0 -16 -13 -31 -32 -31h-65c-17 0 -30 15 -30 31v70c0 16 13 31 30 31h65c19 0 32 -15 32 -31z" />
    <glyph glyph-name="Zcaron" unicode="&#x17d;" horiz-adv-x="654" 
d="M596 0h-543c-31 0 -33 20 -33 40v43c0 11 4 18 9 25l409 557h-357c-35 0 -40 5 -40 40v56c0 20 -1 39 34 39h509c19 0 32 -16 32 -32v-63c0 -7 -1 -15 -8 -22l-397 -548h379c35 0 39 -5 39 -40v-55c0 -20 -2 -40 -33 -40zM170 1019h67c24 0 36 -6 59 -26l37 -34l38 34
c23 20 35 26 59 26h65c28 0 36 -17 15 -37l-94 -87c-17 -20 -36 -27 -56 -27h-52c-29 0 -43 11 -60 27l-93 87c-23 20 -13 37 15 37z" />
    <glyph glyph-name="aacute" unicode="&#xe1;" horiz-adv-x="689" 
d="M675 32c0 -21 -11 -32 -32 -32h-72c-21 0 -25 11 -32 26l-91 263l-246 -109l-55 -154c-7 -16 -9 -26 -32 -26h-70c-16 0 -33 13 -33 32c0 4 229 679 255 742c7 15 12 26 32 26h88c20 0 24 -13 31 -26l256 -730c1 -7 1 -8 1 -12zM262 361l138 61c-12 32 -20 52 -23 63
s-7 20 -10 31c-7 20 -13 41 -24 72zM374 866h-47c-29 0 -35 13 -24 32l48 88c12 17 30 25 55 25h68c24 0 35 -12 23 -31l-69 -87c-20 -21 -37 -27 -54 -27z" />
    <glyph glyph-name="acircumflex" unicode="&#xe2;" horiz-adv-x="689" 
d="M506 861h-67c-24 0 -36 6 -59 26l-37 34l-38 -34c-23 -20 -35 -26 -59 -26h-65c-28 0 -36 17 -15 37l94 87c17 20 36 27 56 27h52c29 0 43 -11 60 -27l93 -87c23 -20 13 -37 -15 -37zM675 32c0 -21 -11 -32 -32 -32h-72c-21 0 -25 11 -32 26l-91 263l-246 -109l-55 -154
c-7 -16 -9 -26 -32 -26h-70c-16 0 -33 13 -33 32c0 4 229 679 255 742c7 15 12 26 32 26h88c20 0 24 -13 31 -26l256 -730c1 -7 1 -8 1 -12zM262 361l138 61c-12 32 -20 52 -23 63s-5 20 -10 31c-7 20 -13 41 -24 72z" />
    <glyph glyph-name="adieresis" unicode="&#xe4;" horiz-adv-x="689" 
d="M291 965v-70c0 -16 -14 -31 -31 -31h-65c-19 0 -31 15 -31 31v70c0 16 12 31 31 31h65c17 0 31 -15 31 -31zM519 965v-70c0 -16 -13 -31 -32 -31h-65c-17 0 -30 15 -30 31v70c0 16 13 31 30 31h65c19 0 32 -15 32 -31zM675 32c0 -21 -11 -32 -32 -32h-72
c-21 0 -25 11 -32 26l-91 263l-246 -109l-55 -154c-7 -16 -9 -26 -33 -26h-69c-16 0 -33 13 -33 32c0 4 229 679 255 742c7 15 12 26 32 26h88c20 0 24 -13 31 -26l256 -730c1 -7 1 -8 1 -12zM262 361l138 61c-12 32 -20 52 -23 63s-7 20 -10 31c-7 20 -13 41 -24 72z" />
    <glyph glyph-name="agrave" unicode="&#xe0;" horiz-adv-x="689" 
d="M675 32c0 -21 -11 -32 -32 -32h-72c-21 0 -25 11 -32 26l-91 263l-246 -109l-55 -154c-7 -16 -9 -26 -32 -26h-70c-16 0 -33 13 -33 32c0 4 229 679 255 742c7 15 12 26 32 26h88c20 0 24 -13 31 -26l256 -730c1 -7 1 -8 1 -12zM262 361l138 61c-12 32 -20 52 -23 63
s-7 20 -10 31c-7 20 -13 41 -24 72zM376 862h-50c-17 0 -34 6 -54 27l-69 87c-12 19 -1 31 23 31h71c25 0 43 -8 55 -25l48 -88c11 -19 5 -32 -24 -32z" />
    <glyph glyph-name="aring" unicode="&#xe5;" horiz-adv-x="689" 
d="M675 32c0 -21 -11 -32 -32 -32h-72c-21 0 -25 11 -32 26l-91 263l-246 -109l-55 -154c-7 -16 -9 -26 -33 -26h-69c-16 0 -33 13 -33 32c0 4 176 520 236 692l10 28l-13 12c-21 20 -32 50 -32 81c0 62 49 114 109 114h41c59 0 108 -53 108 -114c0 -32 -12 -60 -32 -81
c-4 -5 -8 -9 -13 -12l248 -708c1 -7 1 -8 1 -12zM262 361l138 61l-57 182zM334 804h16c19 0 35 17 35 36c0 21 -16 36 -35 36h-16c-19 0 -35 -15 -35 -36c0 -19 16 -36 35 -36z" />
    <glyph glyph-name="atilde" unicode="&#xe3;" horiz-adv-x="689" 
d="M675 32c0 -21 -11 -32 -32 -32h-72c-21 0 -25 11 -32 26l-91 263l-246 -109l-55 -154c-7 -16 -9 -26 -32 -26h-70c-16 0 -33 13 -33 32c0 4 229 679 255 742c7 15 12 26 32 26h88c20 0 24 -13 31 -26l256 -730c1 -7 1 -8 1 -12zM262 361l138 61c-12 32 -20 52 -23 63
s-7 20 -10 31c-7 20 -13 41 -24 72zM198 880c-7 3 -12 7 -15 14c-6 5 -6 15 0 29l22 54c7 15 23 22 43 14c105 -40 130 46 246 -14c8 -3 14 -8 17 -14c7 -5 7 -14 0 -28l-25 -54c-9 -19 -30 -18 -43 -11c-81 53 -140 -38 -245 10z" />
    <glyph glyph-name="ccedilla" unicode="&#xe7;" horiz-adv-x="755" 
d="M381 813c163 0 290 -113 322 -269c0 -1 -1 -9 -1 -10c-4 -13 -12 -29 -31 -29h-67c-17 0 -24 9 -31 22c-11 31 -18 55 -35 78c-36 49 -93 78 -157 78c-107 0 -195 -88 -195 -196v-174c0 -108 88 -196 195 -196c64 0 120 29 159 80c20 27 28 53 36 86l-1 -2
c3 18 13 27 31 27h67c19 0 32 -16 32 -32c0 -20 -6 -43 -13 -62c-35 -97 -111 -183 -212 -210l-31 -7l-16 -43c7 -1 13 -2 20 -5c47 -15 78 -53 78 -109c0 -73 -60 -134 -131 -134h-48c-39 0 -71 17 -95 42c-7 9 -13 18 -18 28c-8 16 -7 32 8 40l44 25c15 8 30 -1 38 -16
c7 -11 20 -21 36 -21h19c25 0 41 13 41 36c0 21 -16 39 -41 39h-47c-19 0 -27 14 -18 33l29 79c-33 3 -64 9 -93 22c-117 51 -199 164 -199 300v174c0 179 146 326 325 326z" />
    <glyph glyph-name="eacute" unicode="&#xe9;" horiz-adv-x="664" 
d="M588 0h-495c-19 0 -33 13 -33 32l-2 736c0 19 15 32 34 32h483c33 0 33 -19 33 -39v-55c0 -36 -5 -39 -40 -39h-375v-177h333c19 0 32 -14 32 -33v-68c0 -19 -13 -33 -32 -33h-333v-223h388c35 0 40 -3 40 -39v-54c0 -20 0 -40 -33 -40zM351 868h-47c-29 0 -35 13 -24 32
l48 88c12 17 30 25 55 25h68c24 0 35 -12 23 -31l-69 -87c-20 -21 -37 -27 -54 -27z" />
    <glyph glyph-name="ecircumflex" unicode="&#xea;" horiz-adv-x="664" 
d="M588 0h-495c-19 0 -33 13 -33 32l-2 736c0 19 15 32 34 32h483c33 0 33 -19 33 -39v-55c0 -36 -5 -39 -40 -39h-375v-177h333c19 0 32 -14 32 -33v-68c0 -19 -13 -33 -32 -33h-333v-223h388c35 0 40 -3 40 -39v-54c0 -20 0 -40 -33 -40zM501 865h-67c-24 0 -36 6 -59 26
l-37 34l-38 -34c-23 -20 -35 -26 -59 -26h-65c-28 0 -36 17 -15 37l94 87c17 20 36 27 56 27h52c29 0 43 -11 60 -27l93 -87c23 -20 13 -37 -15 -37z" />
    <glyph glyph-name="edieresis" unicode="&#xeb;" horiz-adv-x="664" 
d="M588 0h-495c-19 0 -33 13 -33 32l-2 736c0 19 15 32 34 32h483c33 0 33 -19 33 -39v-55c0 -36 -5 -39 -40 -39h-375v-177h333c19 0 32 -14 32 -33v-68c0 -19 -13 -33 -32 -33h-333v-223h388c35 0 40 -3 40 -39v-54c0 -20 0 -40 -33 -40zM285 957v-64
c0 -13 -14 -27 -31 -27h-65c-19 0 -31 14 -31 27v64c0 13 12 28 31 28h65c17 0 31 -15 31 -28zM514 957v-64c0 -13 -13 -27 -32 -27h-65c-17 0 -30 14 -30 27v64c0 13 13 28 30 28h65c19 0 32 -15 32 -28z" />
    <glyph glyph-name="egrave" unicode="&#xe8;" horiz-adv-x="664" 
d="M379 870h-57c-17 0 -34 6 -54 27l-69 87c-12 19 -1 31 23 31h78c25 0 43 -8 55 -25l48 -88c11 -19 5 -32 -24 -32zM588 0h-495c-19 0 -33 13 -33 32l-2 736c0 19 15 32 34 32h483c33 0 33 -19 33 -39v-55c0 -36 -5 -39 -40 -39h-375v-177h333c19 0 32 -14 32 -33v-68
c0 -19 -13 -33 -32 -33h-333v-223h388c35 0 40 -3 40 -39v-54c0 -20 0 -40 -33 -40z" />
    <glyph glyph-name="iacute" unicode="&#xed;" 
d="M192 768v-736c0 -16 -14 -32 -33 -32h-67c-19 0 -31 16 -31 32l-2 736c0 16 13 32 32 32h68c19 0 33 -16 33 -32zM145 863h-47c-29 0 -35 13 -24 32l48 88c12 17 30 25 55 25h68c24 0 35 -12 23 -31l-69 -87c-20 -21 -37 -27 -54 -27z" />
    <glyph glyph-name="icircumflex" unicode="&#xee;" 
d="M192 768v-736c0 -16 -14 -32 -33 -32h-67c-19 0 -31 16 -31 32l-2 736c0 16 13 32 32 32h68c19 0 33 -16 33 -32zM287 860h-67c-24 0 -36 6 -59 26l-37 34l-38 -34c-23 -20 -35 -26 -59 -26h-61c-27 0 -35 17 -15 37l90 87c17 20 36 27 56 27h52c29 0 43 -11 60 -27
l93 -87c23 -20 13 -37 -15 -37z" />
    <glyph glyph-name="idieresis" unicode="&#xef;" 
d="M192 768v-736c0 -16 -14 -32 -33 -32h-67c-19 0 -31 16 -31 32l-2 736c0 16 13 32 32 32h68c19 0 33 -16 33 -32zM74 967v-70c0 -16 -14 -31 -31 -31h-61c-19 0 -31 15 -31 31v70c0 16 12 31 31 31h61c17 0 31 -15 31 -31zM302 967v-70c0 -16 -13 -31 -32 -31h-65
c-17 0 -30 15 -30 31v70c0 16 13 31 30 31h65c19 0 32 -15 32 -31z" />
    <glyph glyph-name="igrave" unicode="&#xec;" 
d="M192 768v-736c0 -16 -14 -32 -33 -32h-67c-19 0 -31 16 -31 32l-2 736c0 16 13 32 32 32h68c19 0 33 -16 33 -32zM157 866h-50c-17 0 -34 6 -54 27l-65 87c-15 19 -1 31 19 31h71c25 0 43 -8 55 -25l48 -88c11 -19 5 -32 -24 -32z" />
    <glyph glyph-name="ntilde" unicode="&#xf1;" horiz-adv-x="732" 
d="M669 768v-736c0 -16 -14 -32 -33 -32h-68c-13 0 -22 5 -28 15c-120 179 -224 333 -347 515v-498c0 -16 -14 -32 -33 -32h-68c-19 0 -31 16 -31 32l-2 736c0 16 13 32 32 32h74c12 0 21 -5 27 -16v1l343 -516v499c0 16 14 32 33 32h68c19 0 33 -16 33 -32zM217 873
c-7 3 -12 7 -15 14c-6 5 -6 15 0 29l22 54c7 15 23 22 43 14c105 -40 130 46 246 -14c8 -3 14 -8 17 -14c7 -5 7 -14 0 -28l-25 -54c-9 -19 -30 -18 -43 -11c-81 53 -140 -38 -245 10z" />
    <glyph glyph-name="oacute" unicode="&#xf3;" horiz-adv-x="795" 
d="M745 480v-157c0 -184 -157 -332 -349 -332s-350 148 -350 332v157c0 184 159 331 351 331c193 0 348 -147 348 -331zM610 323v157c0 112 -97 204 -214 204c-118 0 -215 -93 -215 -204v-157c0 -112 97 -204 215 -204c117 0 214 92 214 204zM409 870h-47
c-29 0 -35 13 -24 32l48 88c12 17 30 25 55 25h68c24 0 35 -12 23 -31l-69 -87c-20 -21 -37 -27 -54 -27z" />
    <glyph glyph-name="ocircumflex" unicode="&#xf4;" horiz-adv-x="795" 
d="M745 480v-157c0 -184 -157 -332 -349 -332s-350 148 -350 332v157c0 184 159 331 351 331c193 0 348 -147 348 -331zM610 323v157c0 112 -97 204 -214 204c-118 0 -215 -93 -215 -204v-157c0 -112 97 -204 215 -204c117 0 214 92 214 204zM556 864h-67
c-24 0 -36 6 -59 26l-37 34l-38 -34c-23 -20 -35 -26 -59 -26h-65c-28 0 -36 17 -15 37l94 87c17 20 36 27 56 27h52c29 0 43 -11 60 -27l93 -87c23 -20 13 -37 -15 -37z" />
    <glyph glyph-name="odieresis" unicode="&#xf6;" horiz-adv-x="795" 
d="M745 480v-157c0 -184 -157 -332 -349 -332s-350 148 -350 332v157c0 184 159 331 351 331c193 0 348 -147 348 -331zM610 323v157c0 112 -97 204 -214 204c-118 0 -215 -93 -215 -204v-157c0 -112 97 -204 215 -204c117 0 214 92 214 204zM343 966v-67
c0 -16 -13 -30 -32 -30h-66c-19 0 -31 14 -31 30v67c0 15 12 29 31 29h66c19 0 32 -14 32 -29zM575 966v-67c0 -16 -13 -30 -33 -30h-66c-17 0 -30 14 -30 30v67c0 15 13 29 30 29h66c20 0 33 -14 33 -29z" />
    <glyph glyph-name="ograve" unicode="&#xf2;" horiz-adv-x="795" 
d="M745 480v-157c0 -184 -157 -332 -349 -332s-350 148 -350 332v157c0 184 159 331 351 331c193 0 348 -147 348 -331zM610 323v157c0 112 -97 204 -214 204c-118 0 -215 -93 -215 -204v-157c0 -112 97 -204 215 -204c117 0 214 92 214 204zM431 870h-50
c-17 0 -34 6 -54 27l-69 87c-12 19 -1 31 23 31h71c25 0 43 -8 55 -25l48 -88c11 -19 5 -32 -24 -32z" />
    <glyph glyph-name="otilde" unicode="&#xf5;" horiz-adv-x="795" 
d="M745 480v-157c0 -184 -157 -332 -349 -332s-350 148 -350 332v157c0 184 159 331 351 331c193 0 348 -147 348 -331zM610 323v157c0 112 -97 204 -214 204c-118 0 -215 -93 -215 -204v-157c0 -112 97 -204 215 -204c117 0 214 92 214 204zM250 888c-7 3 -12 7 -15 14
c-6 5 -6 15 0 29l22 54c7 15 23 22 43 14c105 -40 130 46 246 -14c8 -3 14 -8 17 -14c7 -5 7 -14 0 -28l-25 -54c-9 -19 -30 -18 -43 -11c-79 55 -141 -38 -245 10z" />
    <glyph glyph-name="scaron" unicode="&#x161;" horiz-adv-x="668" 
d="M623 248c0 -76 -31 -160 -76 -200s-109 -57 -181 -57h-76c-87 0 -164 44 -207 113c-14 23 -23 44 -27 65c-8 41 -8 58 -8 81v-2c0 20 0 39 31 39h68c16 0 26 -8 30 -24c4 -13 3 -16 3 -32c0 -5 1 -14 2 -27c11 -49 56 -85 108 -85h76c60 0 112 33 121 86c1 7 2 13 2 20
c1 13 2 43 -15 58c-28 24 -89 34 -161 51c-128 29 -266 68 -266 202v14c0 21 -1 42 6 69l-1 -1c21 111 124 192 238 192h76c60 0 117 -22 162 -58s73 -105 70 -182c-1 -20 -1 -39 -32 -39h-66c-19 0 -31 16 -32 32c-3 85 -38 117 -102 117h-76c-51 0 -98 -37 -109 -88v1
c-3 -17 -9 -47 16 -72c13 -13 28 -22 43 -26l115 -32c60 -17 103 -28 128 -37c27 -9 50 -21 70 -34c41 -28 70 -76 70 -144zM173 1018h67c24 0 36 -6 59 -26l37 -34l38 34c23 20 35 26 59 26h65c28 0 36 -17 15 -37l-94 -87c-17 -20 -36 -27 -56 -27h-52
c-29 0 -43 11 -60 27l-93 87c-23 20 -13 37 15 37z" />
    <glyph glyph-name="uacute" unicode="&#xfa;" horiz-adv-x="700" 
d="M637 768v-514c0 -140 -118 -254 -258 -254h-77c-132 0 -243 105 -243 241v527c0 21 11 32 32 32h67c31 0 32 -19 32 -39v-520c0 -61 52 -110 112 -110h77c69 0 126 55 126 123v507c0 20 2 39 33 39h66c22 0 33 -11 33 -32zM366 862h-47c-29 0 -35 13 -24 32l48 88
c12 17 30 25 55 25h68c24 0 35 -12 23 -31l-69 -87c-20 -21 -37 -27 -54 -27z" />
    <glyph glyph-name="ucircumflex" unicode="&#xfb;" horiz-adv-x="700" 
d="M637 768v-514c0 -140 -118 -254 -258 -254h-77c-133 0 -242 105 -242 241l-1 527c0 21 11 32 32 32h67c31 0 32 -19 32 -39v-520c0 -61 52 -110 112 -110h77c69 0 126 55 126 123v507c0 20 2 39 33 39h66c22 0 33 -11 33 -32zM506 868h-67c-24 0 -36 6 -59 26l-37 34
l-38 -34c-23 -20 -35 -26 -59 -26h-65c-28 0 -36 17 -15 37l94 87c17 20 36 27 56 27h52c29 0 43 -11 60 -27l93 -87c23 -20 13 -37 -15 -37z" />
    <glyph glyph-name="udieresis" unicode="&#xfc;" horiz-adv-x="700" 
d="M637 768v-514c0 -140 -118 -254 -258 -254h-77c-132 0 -243 105 -243 241v527c0 21 11 32 32 32h67c31 0 32 -19 32 -39v-520c0 -61 52 -110 112 -110h77c69 0 126 55 126 123v507c0 20 2 39 33 39h66c22 0 33 -11 33 -32zM296 957v-63c0 -15 -14 -28 -31 -28h-65
c-19 0 -31 13 -31 28v63c0 15 12 29 31 29h65c17 0 31 -14 31 -29zM525 957v-63c0 -15 -13 -28 -32 -28h-65c-17 0 -30 13 -30 28v63c0 15 13 29 30 29h65c19 0 32 -14 32 -29z" />
    <glyph glyph-name="ugrave" unicode="&#xf9;" horiz-adv-x="700" 
d="M637 768v-514c0 -140 -118 -254 -258 -254h-77c-132 0 -243 105 -243 241v527c0 21 11 32 32 32h67c31 0 32 -19 32 -39v-520c0 -61 52 -110 112 -110h77c69 0 126 55 126 123v507c0 20 2 39 33 39h66c22 0 33 -11 33 -32zM392 862h-50c-17 0 -34 6 -54 27l-69 87
c-12 19 -1 31 23 31h71c25 0 43 -8 55 -25l48 -88c11 -19 5 -32 -24 -32z" />
    <glyph glyph-name="yacute" unicode="&#xfd;" horiz-adv-x="696" 
d="M537 789l-2 -2c7 9 16 13 27 13h90c21 0 32 -11 32 -32c0 -11 -7 -20 -12 -27c0 -1 -1 -1 -1 -2l-1 -1l-257 -367v-332c0 -20 0 -39 -33 -39h-68c-31 0 -32 19 -32 39v334l-264 377c-4 7 -4 11 -4 19c0 21 10 31 31 31h89c13 0 22 -5 29 -15l187 -277
c104 160 166 253 189 281zM359 860h-47c-29 0 -35 13 -24 32l48 88c12 17 30 25 55 25h68c24 0 35 -12 23 -31l-69 -87c-20 -21 -37 -27 -54 -27z" />
    <glyph glyph-name="ydieresis" unicode="&#xff;" horiz-adv-x="696" 
d="M537 789l-2 -2c7 9 16 13 27 13h90c21 0 32 -11 32 -32c0 -11 -7 -20 -12 -27c0 -1 -1 -1 -1 -2l-1 -1l-257 -367v-332c0 -20 0 -39 -33 -39h-68c-31 0 -32 19 -32 39v334l-264 377c-4 7 -4 11 -4 19c0 21 10 31 31 31h89c13 0 22 -5 29 -15l187 -277
c104 160 166 253 189 281zM297 962v-70c0 -16 -14 -31 -31 -31h-65c-19 0 -31 15 -31 31v70c0 16 12 31 31 31h65c17 0 31 -15 31 -31zM525 962v-70c0 -16 -13 -31 -32 -31h-65c-17 0 -30 15 -30 31v70c0 16 13 31 30 31h65c19 0 32 -15 32 -31z" />
    <glyph glyph-name="zcaron" unicode="&#x17e;" horiz-adv-x="654" 
d="M596 0h-543c-31 0 -33 20 -33 40v43c0 11 4 18 9 25l409 557h-357c-35 0 -40 5 -40 40v56c0 20 -1 39 34 39h509c19 0 32 -16 32 -32v-63c0 -7 -1 -15 -8 -22l-397 -548h379c35 0 39 -5 39 -40v-55c0 -20 -2 -40 -33 -40zM170 1019h67c24 0 36 -6 59 -26l37 -34l38 34
c23 20 35 26 59 26h65c28 0 36 -17 15 -37l-94 -87c-17 -20 -36 -27 -56 -27h-52c-29 0 -43 11 -60 27l-93 87c-23 20 -13 37 15 37z" />
    <glyph glyph-name="Amacron" unicode="&#x100;" horiz-adv-x="689" 
d="M675 32c0 -21 -11 -32 -32 -32h-72c-21 0 -25 11 -32 26l-91 263l-246 -109l-55 -154c-7 -16 -9 -26 -32 -26h-70c-16 0 -33 13 -33 32c0 4 229 679 255 742c7 15 12 26 32 26h88c20 0 24 -13 31 -26l256 -730c1 -7 1 -8 1 -12zM262 361l138 61c-12 32 -20 52 -23 63
s-7 20 -10 31c-7 20 -13 41 -24 72zM539 958v-63c0 -16 -14 -32 -33 -32h-323c-19 0 -29 16 -32 32v63c0 16 13 32 32 32h323c19 0 33 -16 33 -32z" />
    <glyph glyph-name="amacron" unicode="&#x101;" horiz-adv-x="689" 
d="M675 32c0 -21 -11 -32 -32 -32h-72c-21 0 -25 11 -32 26l-91 263l-246 -109l-55 -154c-7 -16 -9 -26 -32 -26h-70c-16 0 -33 13 -33 32c0 4 229 679 255 742c7 15 12 26 32 26h88c20 0 24 -13 31 -26l256 -730c1 -7 1 -8 1 -12zM262 361l138 61c-12 32 -20 52 -23 63
s-7 20 -10 31c-7 20 -13 41 -24 72zM539 958v-63c0 -16 -14 -32 -33 -32h-323c-19 0 -29 16 -32 32v63c0 16 13 32 32 32h323c19 0 33 -16 33 -32z" />
    <glyph glyph-name="Abreve" unicode="&#x102;" horiz-adv-x="689" 
d="M445 1017h32c23 0 35 -16 35 -32v-5c0 -11 1 -18 -2 -29c-11 -57 -70 -88 -133 -88h-30l-36 1c-63 0 -121 31 -132 87c-3 11 -2 18 -2 29v5c0 16 12 32 35 32h32c20 0 36 -15 36 -32v-5c0 -9 1 -15 2 -18c5 -11 18 -18 30 -18h65c12 0 25 7 30 18c2 5 3 11 3 18v5
c0 17 15 32 35 32zM262 361l138 61c-12 32 -20 52 -23 63s-7 20 -10 31c-7 20 -13 41 -24 72zM675 32c0 -21 -11 -32 -32 -32h-72c-21 0 -25 11 -32 26l-91 263l-246 -109l-55 -154c-7 -16 -9 -26 -32 -26h-70c-16 0 -33 13 -33 32c0 4 229 679 255 742c7 15 12 26 32 26h88
c20 0 24 -13 31 -26l256 -730c1 -7 1 -8 1 -12z" />
    <glyph glyph-name="abreve" unicode="&#x103;" horiz-adv-x="689" 
d="M445 1017h32c23 0 35 -16 35 -32v-5c0 -11 1 -18 -2 -29c-11 -57 -70 -88 -133 -88h-30l-36 1c-63 0 -121 31 -132 87c-3 11 -2 18 -2 29v5c0 16 12 32 35 32h32c20 0 36 -15 36 -32v-5c0 -9 1 -15 2 -18c5 -11 18 -18 30 -18h65c12 0 25 7 30 18c2 5 3 11 3 18v5
c0 17 15 32 35 32zM262 361l138 61c-12 32 -20 52 -23 63s-7 20 -10 31c-7 20 -13 41 -24 72zM675 32c0 -21 -11 -32 -32 -32h-72c-21 0 -25 11 -32 26l-91 263l-246 -109l-55 -154c-7 -16 -9 -26 -32 -26h-70c-16 0 -33 13 -33 32c0 4 229 679 255 742c7 15 12 26 32 26h88
c20 0 24 -13 31 -26l256 -730c1 -7 1 -8 1 -12z" />
    <glyph glyph-name="Aogonek" unicode="&#x104;" horiz-adv-x="689" 
d="M675 32c0 -21 -11 -32 -32 -32h-4l-66 -59c-19 -17 -32 -28 -32 -49c0 -23 16 -36 41 -36h19c16 0 29 0 36 11c8 15 23 24 38 16l44 -25c15 -8 16 -24 8 -40c-5 -10 -11 -19 -18 -28c-24 -25 -56 -32 -95 -32h-48c-71 0 -131 61 -131 134c0 55 11 81 58 108l45 27
l-90 262l-246 -109l-55 -154c-7 -16 -9 -26 -32 -26h-70c-16 0 -33 13 -33 32c0 4 229 679 255 742c7 15 12 26 32 26h88c20 0 24 -13 31 -26l256 -730c1 -7 1 -8 1 -12zM343 588l-81 -227l138 61c-12 32 -20 52 -23 63s-7 20 -10 31c-7 20 -13 41 -24 72z" />
    <glyph glyph-name="aogonek" unicode="&#x105;" horiz-adv-x="689" 
d="M675 32c0 -21 -11 -32 -32 -32h-4l-66 -59c-19 -17 -32 -28 -32 -49c0 -23 16 -36 41 -36h19c16 0 29 0 36 11c8 15 23 24 38 16l44 -25c15 -8 16 -24 8 -40c-5 -10 -11 -19 -18 -28c-24 -25 -56 -32 -95 -32h-48c-71 0 -131 61 -131 134c0 55 11 81 58 108l45 27
l-90 262l-246 -109l-55 -154c-7 -16 -9 -26 -32 -26h-70c-16 0 -33 13 -33 32c0 4 229 679 255 742c7 15 12 26 32 26h88c20 0 24 -13 31 -26l256 -730c1 -7 1 -8 1 -12zM343 588l-81 -227l138 61c-12 32 -20 52 -23 63s-7 20 -10 31c-7 20 -13 41 -24 72z" />
    <glyph glyph-name="Cacute" unicode="&#x106;" horiz-adv-x="755" 
d="M381 813c163 0 290 -113 322 -269c0 -1 -1 -9 -1 -10c-4 -13 -12 -29 -31 -29h-67c-17 0 -24 9 -31 22c-11 31 -18 55 -35 78c-36 49 -93 78 -157 78c-107 0 -195 -88 -195 -196v-174c0 -108 88 -196 195 -196c64 0 120 29 159 80c20 27 28 53 36 86l-1 -2
c3 18 13 27 31 27h67c19 0 32 -16 32 -32c0 -20 -6 -43 -13 -62c-45 -128 -175 -225 -311 -225c-179 0 -325 145 -325 324v174c0 179 146 326 325 326zM372 866h-47c-29 0 -35 13 -24 32l48 88c12 17 30 25 55 25h68c24 0 35 -12 23 -31l-69 -87c-20 -21 -37 -27 -54 -27z
" />
    <glyph glyph-name="cacute" unicode="&#x107;" horiz-adv-x="755" 
d="M381 813c163 0 290 -113 322 -269c0 -1 -1 -9 -1 -10c-4 -13 -12 -29 -31 -29h-67c-17 0 -24 9 -31 22c-11 31 -18 55 -35 78c-36 49 -93 78 -157 78c-107 0 -195 -88 -195 -196v-174c0 -108 88 -196 195 -196c64 0 120 29 159 80c20 27 28 53 36 86l-1 -2
c3 18 13 27 31 27h67c19 0 32 -16 32 -32c0 -20 -6 -43 -13 -62c-45 -128 -175 -225 -311 -225c-179 0 -325 145 -325 324v174c0 179 146 326 325 326zM372 866h-47c-29 0 -35 13 -24 32l48 88c12 17 30 25 55 25h68c24 0 35 -12 23 -31l-69 -87c-20 -21 -37 -27 -54 -27z
" />
    <glyph glyph-name="Ccircumflex" unicode="&#x108;" horiz-adv-x="755" 
d="M381 813c163 0 290 -113 322 -269c0 -1 -1 -9 -1 -10c-4 -13 -12 -29 -31 -29h-67c-17 0 -24 9 -31 22c-11 31 -18 55 -35 78c-36 49 -93 78 -157 78c-107 0 -195 -88 -195 -196v-174c0 -108 88 -196 195 -196c64 0 120 29 159 80c20 27 28 53 36 86l-1 -2
c3 18 13 27 31 27h67c19 0 32 -16 32 -32c0 -20 -6 -43 -13 -62c-45 -128 -175 -225 -311 -225c-179 0 -325 145 -325 324v174c0 179 146 326 325 326zM540 861h-67c-24 0 -36 6 -59 26l-37 34l-38 -34c-23 -20 -35 -26 -59 -26h-65c-28 0 -36 17 -15 37l94 87
c17 20 36 27 56 27h52c29 0 43 -11 60 -27l93 -87c23 -20 13 -37 -15 -37z" />
    <glyph glyph-name="ccircumflex" unicode="&#x109;" horiz-adv-x="755" 
d="M381 813c163 0 290 -113 322 -269c0 -1 -1 -9 -1 -10c-4 -13 -12 -29 -31 -29h-67c-17 0 -24 9 -31 22c-11 31 -18 55 -35 78c-36 49 -93 78 -157 78c-107 0 -195 -88 -195 -196v-174c0 -108 88 -196 195 -196c64 0 120 29 159 80c20 27 28 53 36 86l-1 -2
c3 18 13 27 31 27h67c19 0 32 -16 32 -32c0 -20 -6 -43 -13 -62c-45 -128 -175 -225 -311 -225c-179 0 -325 145 -325 324v174c0 179 146 326 325 326zM540 861h-67c-24 0 -36 6 -59 26l-37 34l-38 -34c-23 -20 -35 -26 -59 -26h-65c-28 0 -36 17 -15 37l94 87
c17 20 36 27 56 27h52c29 0 43 -11 60 -27l93 -87c23 -20 13 -37 -15 -37z" />
    <glyph glyph-name="Cdotaccent" unicode="&#x10a;" horiz-adv-x="755" 
d="M381 813c163 0 290 -113 322 -269c0 -1 -1 -9 -1 -10c-4 -13 -12 -29 -31 -29h-67c-17 0 -24 9 -31 22c-11 31 -18 55 -35 78c-36 49 -93 78 -157 78c-107 0 -195 -88 -195 -196v-174c0 -108 88 -196 195 -196c64 0 120 29 159 80c20 27 28 53 36 86l-1 -2
c3 18 13 27 31 27h67c19 0 32 -16 32 -32c0 -20 -6 -43 -13 -62c-45 -128 -175 -225 -311 -225c-179 0 -325 145 -325 324v174c0 179 146 326 325 326zM454 967v-74c0 -16 -14 -32 -33 -32h-68c-19 0 -32 16 -32 32v74c0 16 13 32 32 32h68c19 0 33 -16 33 -32z" />
    <glyph glyph-name="cdotaccent" unicode="&#x10b;" horiz-adv-x="755" 
d="M381 813c163 0 290 -113 322 -269c0 -1 -1 -9 -1 -10c-4 -13 -12 -29 -31 -29h-67c-17 0 -24 9 -31 22c-11 31 -18 55 -35 78c-36 49 -93 78 -157 78c-107 0 -195 -88 -195 -196v-174c0 -108 88 -196 195 -196c64 0 120 29 159 80c20 27 28 53 36 86l-1 -2
c3 18 13 27 31 27h67c19 0 32 -16 32 -32c0 -20 -6 -43 -13 -62c-45 -128 -175 -225 -311 -225c-179 0 -325 145 -325 324v174c0 179 146 326 325 326zM454 967v-74c0 -16 -14 -32 -33 -32h-68c-19 0 -32 16 -32 32v74c0 16 13 32 32 32h68c19 0 33 -16 33 -32z" />
    <glyph glyph-name="Ccaron" unicode="&#x10c;" horiz-adv-x="755" 
d="M381 813c163 0 290 -113 322 -269c0 -1 -1 -9 -1 -10c-4 -13 -12 -29 -31 -29h-67c-17 0 -24 9 -31 22c-11 31 -18 55 -35 78c-36 49 -93 78 -157 78c-107 0 -195 -88 -195 -196v-174c0 -108 88 -196 195 -196c64 0 120 29 159 80c20 27 28 53 36 86l-1 -2
c3 18 13 27 31 27h67c19 0 32 -16 32 -32c0 -20 -6 -43 -13 -62c-45 -128 -175 -225 -311 -225c-179 0 -325 145 -325 324v174c0 179 146 326 325 326zM215 1012h67c24 0 36 -6 59 -26l37 -34l38 34c23 20 35 26 59 26h65c28 0 36 -17 15 -37l-94 -87
c-17 -20 -36 -27 -56 -27h-52c-29 0 -43 11 -60 27l-93 87c-23 20 -13 37 15 37z" />
    <glyph glyph-name="ccaron" unicode="&#x10d;" horiz-adv-x="755" 
d="M381 813c163 0 290 -113 322 -269c0 -1 -1 -9 -1 -10c-4 -13 -12 -29 -31 -29h-67c-17 0 -24 9 -31 22c-11 31 -18 55 -35 78c-36 49 -93 78 -157 78c-107 0 -195 -88 -195 -196v-174c0 -108 88 -196 195 -196c64 0 120 29 159 80c20 27 28 53 36 86l-1 -2
c3 18 13 27 31 27h67c19 0 32 -16 32 -32c0 -20 -6 -43 -13 -62c-45 -128 -175 -225 -311 -225c-179 0 -325 145 -325 324v174c0 179 146 326 325 326zM215 1012h67c24 0 36 -6 59 -26l37 -34l38 34c23 20 35 26 59 26h65c28 0 36 -17 15 -37l-94 -87
c-17 -20 -36 -27 -56 -27h-52c-29 0 -43 11 -60 27l-93 87c-23 20 -13 37 15 37z" />
    <glyph glyph-name="Dcaron" unicode="&#x10e;" horiz-adv-x="746" 
d="M374 667h-183v-534h183c101 0 185 84 185 184v166c0 100 -84 184 -185 184zM91 800h283c175 0 318 -143 318 -317v-166c0 -174 -143 -317 -318 -317h-283c-19 0 -32 13 -32 32l-2 736c0 16 15 32 34 32zM215 1012h67c24 0 36 -6 59 -26l37 -34l38 34c23 20 35 26 59 26
h65c28 0 36 -17 15 -37l-94 -87c-17 -20 -36 -27 -56 -27h-52c-29 0 -43 11 -60 27l-93 87c-23 20 -13 37 15 37z" />
    <glyph glyph-name="dcaron" unicode="&#x10f;" horiz-adv-x="746" 
d="M374 667h-183v-534h183c101 0 185 84 185 184v166c0 100 -84 184 -185 184zM91 800h283c175 0 318 -143 318 -317v-166c0 -174 -143 -317 -318 -317h-283c-19 0 -32 13 -32 32l-2 736c0 16 15 32 34 32zM215 1012h67c24 0 36 -6 59 -26l37 -34l38 34c23 20 35 26 59 26
h65c28 0 36 -17 15 -37l-94 -87c-17 -20 -36 -27 -56 -27h-52c-29 0 -43 11 -60 27l-93 87c-23 20 -13 37 15 37z" />
    <glyph glyph-name="Dcroat" unicode="&#x110;" horiz-adv-x="746" 
d="M91 800h283c175 0 318 -143 318 -317v-166c0 -174 -143 -317 -318 -317h-283c-19 0 -32 13 -32 32l-2 316h-35c-17 0 -26 16 -26 32l-1 53c0 16 8 32 27 32h35v303c0 16 15 32 34 32zM361 433v-53c0 -16 -14 -32 -33 -32h-137v-215h183c101 0 185 84 185 184v166
c0 100 -84 184 -185 184h-183v-202h137c19 0 33 -16 33 -32z" />
    <glyph glyph-name="dcroat" unicode="&#x111;" horiz-adv-x="746" 
d="M91 800h283c175 0 318 -143 318 -317v-166c0 -174 -143 -317 -318 -317h-283c-19 0 -32 13 -32 32l-2 316h-35c-17 0 -26 16 -26 32l-1 53c0 16 8 32 27 32h35v303c0 16 15 32 34 32zM361 433v-53c0 -16 -14 -32 -33 -32h-137v-215h183c101 0 185 84 185 184v166
c0 100 -84 184 -185 184h-183v-202h137c19 0 33 -16 33 -32z" />
    <glyph glyph-name="Emacron" unicode="&#x112;" horiz-adv-x="664" 
d="M588 0h-495c-19 0 -33 13 -33 32l-2 736c0 19 15 32 34 32h483c33 0 33 -19 33 -39v-55c0 -36 -5 -39 -40 -39h-375v-177h333c19 0 32 -14 32 -33v-68c0 -19 -13 -33 -32 -33h-333v-223h388c35 0 40 -3 40 -39v-54c0 -20 0 -40 -33 -40zM526 960v-63
c0 -16 -14 -32 -33 -32h-323c-19 0 -29 16 -32 32v63c0 16 13 32 32 32h323c19 0 33 -16 33 -32z" />
    <glyph glyph-name="emacron" unicode="&#x113;" horiz-adv-x="664" 
d="M588 0h-495c-19 0 -33 13 -33 32l-2 736c0 19 15 32 34 32h483c33 0 33 -19 33 -39v-55c0 -36 -5 -39 -40 -39h-375v-177h333c19 0 32 -14 32 -33v-68c0 -19 -13 -33 -32 -33h-333v-223h388c35 0 40 -3 40 -39v-54c0 -20 0 -40 -33 -40zM526 960v-63
c0 -16 -14 -32 -33 -32h-323c-19 0 -29 16 -32 32v63c0 16 13 32 32 32h323c19 0 33 -16 33 -32z" />
    <glyph glyph-name="Ebreve" unicode="&#x114;" horiz-adv-x="664" 
d="M433 1019h32c23 0 35 -16 35 -32v-5c0 -11 1 -18 -2 -29c-11 -57 -70 -88 -133 -88h-31l-35 1c-64 1 -121 30 -132 87c-3 11 -3 18 -3 29v5c0 16 12 32 35 32h32c21 0 36 -15 36 -32v-5c0 -9 0 -13 3 -18c5 -11 17 -18 29 -18h66c12 0 25 7 30 18c1 3 2 9 2 18v5
c0 17 15 32 36 32zM588 0h-495c-19 0 -33 13 -33 32l-2 736c0 19 15 32 34 32h483c33 0 33 -19 33 -39v-55c0 -36 -5 -39 -40 -39h-375v-177h333c19 0 32 -14 32 -33v-68c0 -19 -13 -33 -32 -33h-333v-223h388c35 0 40 -3 40 -39v-54c0 -20 0 -40 -33 -40z" />
    <glyph glyph-name="ebreve" unicode="&#x115;" horiz-adv-x="664" 
d="M433 1019h32c23 0 35 -16 35 -32v-5c0 -11 1 -18 -2 -29c-11 -57 -70 -88 -133 -88h-31l-35 1c-64 1 -121 30 -132 87c-3 11 -3 18 -3 29v5c0 16 12 32 35 32h32c21 0 36 -15 36 -32v-5c0 -9 0 -13 3 -18c5 -11 17 -18 29 -18h66c12 0 25 7 30 18c1 3 2 9 2 18v5
c0 17 15 32 36 32zM588 0h-495c-19 0 -33 13 -33 32l-2 736c0 19 15 32 34 32h483c33 0 33 -19 33 -39v-55c0 -36 -5 -39 -40 -39h-375v-177h333c19 0 32 -14 32 -33v-68c0 -19 -13 -33 -32 -33h-333v-223h388c35 0 40 -3 40 -39v-54c0 -20 0 -40 -33 -40z" />
    <glyph glyph-name="Edotaccent" unicode="&#x116;" horiz-adv-x="664" 
d="M588 0h-495c-19 0 -33 13 -33 32l-2 736c0 19 15 32 34 32h483c33 0 33 -19 33 -39v-55c0 -36 -5 -39 -40 -39h-375v-177h333c19 0 32 -14 32 -33v-68c0 -19 -13 -33 -32 -33h-333v-223h388c35 0 40 -3 40 -39v-54c0 -20 0 -40 -33 -40zM399 967v-74
c0 -16 -14 -32 -33 -32h-68c-19 0 -32 16 -32 32v74c0 16 13 32 32 32h68c19 0 33 -16 33 -32z" />
    <glyph glyph-name="edotaccent" unicode="&#x117;" horiz-adv-x="664" 
d="M588 0h-495c-19 0 -33 13 -33 32l-2 736c0 19 15 32 34 32h483c33 0 33 -19 33 -39v-55c0 -36 -5 -39 -40 -39h-375v-177h333c19 0 32 -14 32 -33v-68c0 -19 -13 -33 -32 -33h-333v-223h388c35 0 40 -3 40 -39v-54c0 -20 0 -40 -33 -40zM399 967v-74
c0 -16 -14 -32 -33 -32h-68c-19 0 -32 16 -32 32v74c0 16 13 32 32 32h68c19 0 33 -16 33 -32z" />
    <glyph glyph-name="Eogonek" unicode="&#x118;" horiz-adv-x="664" 
d="M588 0h-33l-79 -71c-19 -17 -32 -28 -32 -49c0 -23 16 -36 41 -36h19c16 0 29 0 36 11c8 15 23 24 38 16l44 -25c15 -8 16 -24 8 -40c-5 -10 -11 -19 -18 -28c-24 -25 -56 -32 -95 -32h-48c-71 0 -131 61 -131 134c0 56 12 79 58 109c0 1 9 6 18 11h-321
c-19 0 -33 13 -33 32l-2 736c0 19 15 32 34 32h483c33 0 33 -19 33 -39v-55c0 -36 -5 -39 -40 -39h-375v-177h333c19 0 32 -14 32 -33v-68c0 -19 -13 -33 -32 -33h-333v-223h388c35 0 40 -3 40 -39v-54c0 -20 0 -40 -33 -40z" />
    <glyph glyph-name="eogonek" unicode="&#x119;" horiz-adv-x="664" 
d="M588 0h-33l-79 -71c-19 -17 -32 -28 -32 -49c0 -23 16 -36 41 -36h19c16 0 29 0 36 11c8 15 23 24 38 16l44 -25c15 -8 16 -24 8 -40c-5 -10 -11 -19 -18 -28c-24 -25 -56 -32 -95 -32h-48c-71 0 -131 61 -131 134c0 56 12 79 58 109c0 1 9 6 18 11h-321
c-19 0 -33 13 -33 32l-2 736c0 19 15 32 34 32h483c33 0 33 -19 33 -39v-55c0 -36 -5 -39 -40 -39h-375v-177h333c19 0 32 -14 32 -33v-68c0 -19 -13 -33 -32 -33h-333v-223h388c35 0 40 -3 40 -39v-54c0 -20 0 -40 -33 -40z" />
    <glyph glyph-name="Ecaron" unicode="&#x11a;" horiz-adv-x="664" 
d="M588 0h-495c-19 0 -33 13 -33 32l-2 736c0 19 15 32 34 32h483c33 0 33 -19 33 -39v-55c0 -36 -5 -39 -40 -39h-375v-177h333c19 0 32 -14 32 -33v-68c0 -19 -13 -33 -32 -33h-333v-223h388c35 0 40 -3 40 -39v-54c0 -20 0 -40 -33 -40zM170 1016h67c24 0 36 -6 59 -26
l37 -34l38 34c23 20 35 26 59 26h65c28 0 36 -17 15 -37l-94 -87c-17 -20 -36 -27 -56 -27h-52c-29 0 -43 11 -60 27l-93 87c-23 20 -13 37 15 37z" />
    <glyph glyph-name="ecaron" unicode="&#x11b;" horiz-adv-x="664" 
d="M588 0h-495c-19 0 -33 13 -33 32l-2 736c0 19 15 32 34 32h483c33 0 33 -19 33 -39v-55c0 -36 -5 -39 -40 -39h-375v-177h333c19 0 32 -14 32 -33v-68c0 -19 -13 -33 -32 -33h-333v-223h388c35 0 40 -3 40 -39v-54c0 -20 0 -40 -33 -40zM170 1016h67c24 0 36 -6 59 -26
l37 -34l38 34c23 20 35 26 59 26h65c28 0 36 -17 15 -37l-94 -87c-17 -20 -36 -27 -56 -27h-52c-29 0 -43 11 -60 27l-93 87c-23 20 -13 37 15 37z" />
    <glyph glyph-name="Gcircumflex" unicode="&#x11c;" horiz-adv-x="764" 
d="M383 814c138 0 250 -88 306 -218c9 -21 -4 -40 -31 -40h-72c-13 0 -22 6 -29 19l1 -1c-37 68 -95 110 -175 110c-108 0 -197 -88 -197 -196v-162c0 -69 22 -114 58 -150c36 -35 83 -57 139 -57c77 0 149 35 184 107c7 15 12 35 15 58c3 25 5 38 5 39h-172
c-17 0 -32 16 -32 32v62c0 21 11 32 32 32h266c21 0 31 -11 31 -32c0 -15 1 -24 1 -37c1 -15 1 -28 1 -41c0 -7 -1 -24 -4 -52s-6 -51 -11 -70c-11 -37 -29 -73 -58 -110c-64 -81 -153 -120 -258 -116c-181 5 -327 135 -327 335v162c0 179 147 326 327 326zM545 861h-67
c-24 0 -38 6 -59 26l-37 34l-38 -34c-23 -20 -35 -26 -59 -26h-65c-28 0 -38 17 -15 37l94 87c17 20 36 27 56 27h52c29 0 41 -11 60 -27l93 -87c21 -20 13 -37 -15 -37z" />
    <glyph glyph-name="gcircumflex" unicode="&#x11d;" horiz-adv-x="764" 
d="M383 814c138 0 250 -88 306 -218c9 -21 -4 -40 -31 -40h-72c-13 0 -22 6 -29 19l1 -1c-37 68 -95 110 -175 110c-108 0 -197 -88 -197 -196v-162c0 -69 22 -114 58 -150c36 -35 83 -57 139 -57c77 0 149 35 184 107c7 15 12 35 15 58c3 25 5 38 5 39h-172
c-17 0 -32 16 -32 32v62c0 21 11 32 32 32h266c21 0 31 -11 31 -32c0 -15 1 -24 1 -37c1 -15 1 -28 1 -41c0 -7 -1 -24 -4 -52s-6 -51 -11 -70c-11 -37 -29 -73 -58 -110c-64 -81 -153 -120 -258 -116c-181 5 -327 135 -327 335v162c0 179 147 326 327 326zM545 861h-67
c-24 0 -38 6 -59 26l-37 34l-38 -34c-23 -20 -35 -26 -59 -26h-65c-28 0 -38 17 -15 37l94 87c17 20 36 27 56 27h52c29 0 41 -11 60 -27l93 -87c21 -20 13 -37 -15 -37z" />
    <glyph glyph-name="Gbreve" unicode="&#x11e;" horiz-adv-x="764" 
d="M483 1015h32c23 0 35 -16 35 -32v-5c0 -11 1 -18 -2 -29c-11 -57 -70 -88 -133 -88h-31l-35 1c-64 1 -121 30 -132 87c-3 11 -3 18 -3 29v5c0 16 12 32 35 32h32c21 0 36 -15 36 -32v-5c0 -9 0 -13 3 -18c5 -11 17 -18 29 -18h66c12 0 25 7 30 18c1 3 2 9 2 18v5
c0 17 15 32 36 32zM383 814c138 0 250 -88 306 -218c9 -21 -4 -40 -31 -40h-72c-13 0 -22 6 -29 19l1 -1c-37 68 -95 110 -175 110c-108 0 -197 -88 -197 -196v-162c0 -69 22 -114 58 -150c36 -35 83 -57 139 -57c77 0 149 35 184 107c7 15 12 35 15 58c3 25 5 38 5 39h-172
c-17 0 -32 16 -32 32v62c0 21 11 32 32 32h266c21 0 31 -11 31 -32c0 -15 1 -24 1 -37c1 -15 1 -28 1 -41c0 -7 -1 -24 -4 -52s-6 -51 -11 -70c-11 -37 -29 -73 -58 -110c-64 -81 -153 -120 -258 -116c-181 5 -327 135 -327 335v162c0 179 147 326 327 326z" />
    <glyph glyph-name="gbreve" unicode="&#x11f;" horiz-adv-x="764" 
d="M483 1015h32c23 0 35 -16 35 -32v-5c0 -11 1 -18 -2 -29c-11 -57 -70 -88 -133 -88h-31l-35 1c-64 1 -121 30 -132 87c-3 11 -3 18 -3 29v5c0 16 12 32 35 32h32c21 0 36 -15 36 -32v-5c0 -9 0 -13 3 -18c5 -11 17 -18 29 -18h66c12 0 25 7 30 18c1 3 2 9 2 18v5
c0 17 15 32 36 32zM383 814c138 0 250 -88 306 -218c9 -21 -4 -40 -31 -40h-72c-13 0 -22 6 -29 19l1 -1c-37 68 -95 110 -175 110c-108 0 -197 -88 -197 -196v-162c0 -69 22 -114 58 -150c36 -35 83 -57 139 -57c77 0 149 35 184 107c7 15 12 35 15 58c3 25 5 38 5 39h-172
c-17 0 -32 16 -32 32v62c0 21 11 32 32 32h266c21 0 31 -11 31 -32c0 -15 1 -24 1 -37c1 -15 1 -28 1 -41c0 -7 -1 -24 -4 -52s-6 -51 -11 -70c-11 -37 -29 -73 -58 -110c-64 -81 -153 -120 -258 -116c-181 5 -327 135 -327 335v162c0 179 147 326 327 326z" />
    <glyph glyph-name="Gdotaccent" unicode="&#x120;" horiz-adv-x="764" 
d="M383 814c138 0 250 -88 306 -218c9 -21 -4 -40 -31 -40h-72c-13 0 -22 6 -29 19l1 -1c-37 68 -95 110 -175 110c-108 0 -197 -88 -197 -196v-162c0 -69 22 -114 58 -150c36 -35 83 -57 139 -57c77 0 149 35 184 107c7 15 12 35 15 58c3 25 5 38 5 39h-172
c-17 0 -32 16 -32 32v62c0 21 11 32 32 32h266c21 0 31 -11 31 -32c0 -15 1 -24 1 -37c1 -15 1 -28 1 -41c0 -7 -1 -24 -4 -52s-6 -51 -11 -70c-11 -37 -29 -73 -58 -110c-64 -81 -153 -120 -258 -116c-181 5 -327 135 -327 335v162c0 179 147 326 327 326zM449 967v-74
c0 -16 -14 -32 -33 -32h-68c-19 0 -32 16 -32 32v74c0 16 13 32 32 32h68c19 0 33 -16 33 -32z" />
    <glyph glyph-name="gdotaccent" unicode="&#x121;" horiz-adv-x="764" 
d="M383 814c138 0 250 -88 306 -218c9 -21 -4 -40 -31 -40h-72c-13 0 -22 6 -29 19l1 -1c-37 68 -95 110 -175 110c-108 0 -197 -88 -197 -196v-162c0 -69 22 -114 58 -150c36 -35 83 -57 139 -57c77 0 149 35 184 107c7 15 12 35 15 58c3 25 5 38 5 39h-172
c-17 0 -32 16 -32 32v62c0 21 11 32 32 32h266c21 0 31 -11 31 -32c0 -15 1 -24 1 -37c1 -15 1 -28 1 -41c0 -7 -1 -24 -4 -52s-6 -51 -11 -70c-11 -37 -29 -73 -58 -110c-64 -81 -153 -120 -258 -116c-181 5 -327 135 -327 335v162c0 179 147 326 327 326zM449 967v-74
c0 -16 -14 -32 -33 -32h-68c-19 0 -32 16 -32 32v74c0 16 13 32 32 32h68c19 0 33 -16 33 -32z" />
    <glyph glyph-name="uni0122" unicode="&#x122;" horiz-adv-x="764" 
d="M451 -80v-65c0 -8 -3 -12 -4 -15l-36 -76c-5 -12 -12 -14 -24 -14h-43c-19 0 -15 10 -14 17l18 58h-8c-19 0 -32 15 -32 30v65c0 15 13 29 32 29h77c19 0 34 -14 34 -29zM383 815c138 0 250 -88 306 -218c9 -21 -4 -40 -31 -40h-72c-13 0 -22 6 -29 19l1 -1
c-37 68 -95 110 -175 110c-108 0 -197 -88 -197 -196v-162c0 -69 22 -114 58 -150c36 -35 83 -57 139 -57c77 0 149 35 184 107c7 15 12 35 15 58c3 25 5 38 5 39h-172c-17 0 -32 16 -32 32v62c0 21 11 32 32 32h266c21 0 31 -11 31 -32c0 -15 1 -24 1 -37
c1 -15 1 -28 1 -41c0 -7 -1 -24 -4 -52s-6 -51 -11 -70c-11 -37 -29 -73 -58 -110c-64 -81 -153 -120 -258 -116c-181 5 -327 135 -327 335v162c0 179 147 326 327 326z" />
    <glyph glyph-name="uni0123" unicode="&#x123;" horiz-adv-x="764" 
d="M451 -80v-65c0 -8 -3 -12 -4 -15l-36 -76c-5 -12 -12 -14 -24 -14h-43c-19 0 -15 10 -14 17l18 58h-8c-19 0 -32 15 -32 30v65c0 15 13 29 32 29h77c19 0 34 -14 34 -29zM383 814c138 0 250 -88 306 -218c9 -21 -4 -40 -31 -40h-72c-13 0 -22 6 -29 19l1 -1
c-37 68 -95 110 -175 110c-108 0 -197 -88 -197 -196v-162c0 -69 22 -114 58 -150c36 -35 83 -57 139 -57c77 0 149 35 184 107c7 15 12 35 15 58c3 25 5 38 5 39h-172c-17 0 -32 16 -32 32v62c0 21 11 32 32 32h266c21 0 31 -11 31 -32c0 -15 1 -24 1 -37
c1 -15 1 -28 1 -41c0 -7 -1 -24 -4 -52s-6 -51 -11 -70c-11 -37 -29 -73 -58 -110c-64 -81 -153 -120 -258 -116c-181 5 -327 135 -327 335v162c0 179 147 326 327 326z" />
    <glyph glyph-name="Hcircumflex" unicode="&#x124;" horiz-adv-x="701" 
d="M192 761v-343l312 134v209c0 20 2 39 33 39h67c19 0 34 -16 34 -32v-736c0 -16 -15 -32 -34 -32h-67c-31 0 -33 19 -33 39v366l-312 -132v-234c0 -20 0 -39 -33 -39h-68c-19 0 -30 16 -30 32l-2 736c0 16 13 32 32 32h68c33 0 33 -19 33 -39zM506 861h-67
c-24 0 -36 6 -59 26l-37 34l-38 -34c-23 -20 -35 -26 -59 -26h-65c-28 0 -36 17 -15 37l94 87c17 20 36 27 56 27h52c29 0 43 -11 60 -27l93 -87c23 -20 13 -37 -15 -37z" />
    <glyph glyph-name="hcircumflex" unicode="&#x125;" horiz-adv-x="701" 
d="M192 761v-343l312 134v209c0 20 2 39 33 39h67c19 0 34 -16 34 -32v-736c0 -16 -15 -32 -34 -32h-67c-31 0 -33 19 -33 39v366l-312 -132v-234c0 -20 0 -39 -33 -39h-68c-19 0 -30 16 -30 32l-2 736c0 16 13 32 32 32h68c33 0 33 -19 33 -39zM506 861h-67
c-24 0 -36 6 -59 26l-37 34l-38 -34c-23 -20 -35 -26 -59 -26h-65c-28 0 -36 17 -15 37l94 87c17 20 36 27 56 27h52c29 0 43 -11 60 -27l93 -87c23 -20 13 -37 -15 -37z" />
    <glyph glyph-name="Hbar" unicode="&#x126;" horiz-adv-x="701" 
d="M702 672v-63c0 -16 -14 -32 -33 -32h-31v-545c0 -16 -15 -32 -34 -32h-67c-31 0 -33 19 -33 39v366l-312 -132v-234c0 -20 0 -39 -33 -39h-68c-19 0 -30 16 -30 32l-2 545h-23c-19 0 -32 16 -32 32v63c0 16 13 32 32 32h23v64c0 16 13 32 32 32h68c33 0 33 -19 33 -39
v-57h312v57c0 20 2 39 33 39h67c19 0 34 -16 34 -32v-64h31c19 0 33 -16 33 -32zM192 418l312 134v25h-312v-159z" />
    <glyph glyph-name="hbar" unicode="&#x127;" horiz-adv-x="701" 
d="M702 672v-63c0 -16 -14 -32 -33 -32h-31v-545c0 -16 -15 -32 -34 -32h-67c-31 0 -33 19 -33 39v366l-312 -132v-234c0 -20 0 -39 -33 -39h-68c-19 0 -30 16 -30 32l-2 545h-23c-19 0 -32 16 -32 32v63c0 16 13 32 32 32h23v64c0 16 13 32 32 32h68c33 0 33 -19 33 -39
v-57h312v57c0 20 2 39 33 39h67c19 0 34 -16 34 -32v-64h31c19 0 33 -16 33 -32zM192 418l312 134v25h-312v-159z" />
    <glyph glyph-name="Itilde" unicode="&#x128;" 
d="M192 768v-736c0 -16 -14 -32 -33 -32h-67c-19 0 -31 16 -31 32l-2 736c0 16 13 32 32 32h68c19 0 33 -16 33 -32zM-11 876c-7 3 -12 8 -15 14c-5 5 -5 14 0 29l22 54c7 15 22 22 43 14c104 -40 129 46 246 -14c8 -3 14 -8 17 -14c6 -5 6 -14 0 -28l-25 -54
c-9 -19 -30 -18 -43 -11c-81 53 -140 -38 -245 10z" />
    <glyph glyph-name="itilde" unicode="&#x129;" 
d="M192 768v-736c0 -16 -14 -32 -33 -32h-67c-19 0 -31 16 -31 32l-2 736c0 16 13 32 32 32h68c19 0 33 -16 33 -32zM-11 876c-7 3 -12 8 -15 14c-5 5 -5 14 0 29l22 54c7 15 22 22 43 14c104 -40 129 46 246 -14c8 -3 14 -8 17 -14c6 -5 6 -14 0 -28l-25 -54
c-9 -19 -30 -18 -43 -11c-81 53 -140 -38 -245 10z" />
    <glyph glyph-name="Imacron" unicode="&#x12a;" 
d="M192 768v-736c0 -16 -14 -32 -33 -32h-67c-19 0 -31 16 -31 32l-2 736c0 16 13 32 32 32h68c19 0 33 -16 33 -32zM322 958v-63c0 -16 -14 -32 -33 -32h-323c-19 0 -29 16 -32 32v63c0 16 13 32 32 32h323c19 0 33 -16 33 -32z" />
    <glyph glyph-name="imacron" unicode="&#x12b;" 
d="M192 768v-736c0 -16 -14 -32 -33 -32h-67c-19 0 -31 16 -31 32l-2 736c0 16 13 32 32 32h68c19 0 33 -16 33 -32zM322 958v-63c0 -16 -14 -32 -33 -32h-323c-19 0 -29 16 -32 32v63c0 16 13 32 32 32h323c19 0 33 -16 33 -32z" />
    <glyph glyph-name="Iogonek" unicode="&#x12e;" 
d="M192 768v-736c0 -16 -14 -32 -33 -32h-5l-68 -61c-19 -17 -32 -28 -32 -49c0 -23 16 -36 41 -36h19c16 0 29 0 36 11c8 15 23 24 38 16l44 -25c15 -8 16 -24 8 -40c-5 -10 -11 -19 -18 -28c-24 -25 -56 -32 -95 -32h-48c-71 0 -130 61 -130 134c0 55 12 81 57 109l54 31
h1v2l-2 736c0 16 13 32 32 32h68c19 0 33 -16 33 -32z" />
    <glyph glyph-name="iogonek" unicode="&#x12f;" 
d="M192 768v-736c0 -16 -14 -32 -33 -32h-5l-68 -61c-19 -17 -32 -28 -32 -49c0 -23 16 -36 41 -36h19c16 0 29 0 36 11c8 15 23 24 38 16l44 -25c15 -8 16 -24 8 -40c-5 -10 -11 -19 -18 -28c-24 -25 -56 -32 -95 -32h-48c-71 0 -130 61 -130 134c0 55 12 81 57 109l54 31
h1v2l-2 736c0 16 13 32 32 32h68c19 0 33 -16 33 -32z" />
    <glyph glyph-name="Idotaccent" unicode="&#x130;" 
d="M192 768v-736c0 -16 -14 -32 -33 -32h-67c-19 0 -31 16 -31 32l-2 736c0 16 13 32 32 32h68c19 0 33 -16 33 -32zM194 967v-74c0 -16 -14 -32 -33 -32h-68c-19 0 -32 16 -32 32v74c0 16 13 32 32 32h68c19 0 33 -16 33 -32z" />
    <glyph glyph-name="IJ" unicode="&#x132;" horiz-adv-x="882" 
d="M192 768v-736c0 -16 -14 -32 -33 -32h-68c-19 0 -30 16 -30 32l-2 736c0 16 13 32 32 32h68c19 0 33 -16 33 -32zM819 768v-505c0 -144 -117 -263 -261 -263h-78c-117 0 -221 85 -240 200c-4 23 -5 42 -5 65v11c0 19 12 34 31 34h68c19 0 33 -15 33 -34v-11
c0 -23 0 -40 9 -61c17 -41 60 -71 104 -71h78c71 0 128 59 128 130v477c-3 24 -3 60 33 60h68c19 0 32 -16 32 -32z" />
    <glyph glyph-name="ij" unicode="&#x133;" horiz-adv-x="882" 
d="M192 768v-736c0 -16 -14 -32 -33 -32h-68c-19 0 -30 16 -30 32l-2 736c0 16 13 32 32 32h68c19 0 33 -16 33 -32zM819 768v-505c0 -144 -117 -263 -261 -263h-78c-117 0 -221 85 -240 200c-4 23 -5 42 -5 65v11c0 19 12 34 31 34h68c19 0 33 -15 33 -34v-11
c0 -23 0 -40 9 -61c17 -41 60 -71 104 -71h78c71 0 128 59 128 130v477c-3 24 -3 60 33 60h68c19 0 32 -16 32 -32z" />
    <glyph glyph-name="Jcircumflex" unicode="&#x134;" horiz-adv-x="681" 
d="M619 768v-505c0 -144 -117 -263 -261 -263h-78c-117 0 -221 85 -240 200c-4 23 -5 42 -5 65v11c0 19 12 34 31 34h68c19 0 33 -15 33 -34v-11c0 -23 0 -40 9 -61c17 -41 60 -71 104 -71h78c71 0 128 59 128 130v477c-3 24 -3 60 33 60h68c19 0 32 -16 32 -32zM713 861
h-67c-24 0 -36 6 -59 26l-37 34l-38 -34c-23 -20 -35 -26 -59 -26h-65c-28 0 -36 17 -15 37l94 87c17 20 36 27 56 27h52c29 0 43 -11 60 -27l93 -87c23 -20 13 -37 -15 -37z" />
    <glyph glyph-name="jcircumflex" unicode="&#x135;" horiz-adv-x="681" 
d="M619 768v-505c0 -144 -117 -263 -261 -263h-78c-117 0 -221 85 -240 200c-4 23 -5 42 -5 65v11c0 19 12 34 31 34h68c19 0 33 -15 33 -34v-11c0 -23 0 -40 9 -61c17 -41 60 -71 104 -71h78c71 0 128 59 128 130v477c-3 24 -3 60 33 60h68c19 0 32 -16 32 -32zM713 861
h-67c-24 0 -36 6 -59 26l-37 34l-38 -34c-23 -20 -35 -26 -59 -26h-65c-28 0 -36 17 -15 37l94 87c17 20 36 27 56 27h52c29 0 43 -11 60 -27l93 -87c23 -20 13 -37 -15 -37z" />
    <glyph glyph-name="uni0136" unicode="&#x136;" horiz-adv-x="699" 
d="M191 768v-279l338 313l2 -3c1 1 4 1 11 1h93c19 0 34 -13 34 -32c0 -9 -4 -17 -12 -24l-11 -13l-278 -261l296 -408l8 -11c15 -19 8 -34 -7 -45c-6 -4 -12 -6 -19 -6h-84c-12 0 -21 3 -30 18l1 -2l-264 364c-28 -27 -49 -46 -78 -73v-275c0 -21 -11 -32 -33 -32h-67
c-21 0 -31 11 -31 32l-2 736c0 21 11 32 33 32h67c22 0 33 -11 33 -32zM430 -80v-65c0 -8 -3 -12 -4 -15l-36 -76c-5 -12 -12 -14 -24 -14h-43c-19 0 -15 10 -14 17l18 58h-8c-19 0 -32 15 -32 30v65c0 15 13 29 32 29h77c19 0 34 -14 34 -29z" />
    <glyph glyph-name="uni0137" unicode="&#x137;" horiz-adv-x="699" 
d="M191 768v-279l338 313l2 -3c1 1 4 1 11 1h93c19 0 34 -13 34 -32c0 -9 -4 -17 -12 -24l-11 -13l-278 -261l296 -408l8 -11c15 -19 8 -34 -7 -45c-6 -4 -12 -6 -19 -6h-84c-12 0 -21 3 -30 18l1 -2l-264 364c-28 -27 -49 -46 -78 -73v-275c0 -21 -11 -32 -33 -32h-67
c-21 0 -31 11 -31 32l-2 736c0 21 11 32 33 32h67c22 0 33 -11 33 -32zM438 -80v-65c0 -8 -3 -12 -4 -15l-36 -76c-5 -12 -12 -14 -24 -14h-43c-19 0 -15 10 -14 17l18 58h-8c-19 0 -32 15 -32 30v65c0 15 13 29 32 29h77c19 0 34 -14 34 -29z" />
    <glyph glyph-name="kgreenlandic" unicode="&#x138;" horiz-adv-x="699" 
d="M191 768v-279l338 313l2 -3c1 1 4 1 11 1h93c19 0 34 -13 34 -32c0 -9 -4 -17 -12 -24l-11 -13l-278 -261l296 -408l8 -11c15 -19 8 -34 -7 -45c-6 -4 -12 -6 -19 -6h-84c-12 0 -21 3 -30 18l1 -2l-264 364c-28 -27 -49 -46 -78 -73v-275c0 -21 -11 -32 -33 -32h-67
c-21 0 -31 11 -31 32l-2 736c0 21 11 32 33 32h67c22 0 33 -11 33 -32z" />
    <glyph glyph-name="Lacute" unicode="&#x139;" horiz-adv-x="603" 
d="M531 0h-440c-20 0 -30 11 -30 32l-2 736c0 21 11 32 32 32h69c31 0 32 -19 32 -39v-628h332c36 0 39 -3 39 -39v-54c0 -20 -1 -40 -32 -40zM151 864h-47c-29 0 -35 13 -24 32l48 88c12 17 30 25 55 25h68c24 0 35 -12 23 -31l-69 -87c-20 -21 -37 -27 -54 -27z" />
    <glyph glyph-name="lacute" unicode="&#x13a;" horiz-adv-x="603" 
d="M531 0h-440c-20 0 -30 11 -30 32l-2 736c0 21 11 32 32 32h69c31 0 32 -19 32 -39v-628h332c36 0 39 -3 39 -39v-54c0 -20 -1 -40 -32 -40zM151 864h-47c-29 0 -35 13 -24 32l48 88c12 17 30 25 55 25h68c24 0 35 -12 23 -31l-69 -87c-20 -21 -37 -27 -54 -27z" />
    <glyph glyph-name="uni013B" unicode="&#x13b;" horiz-adv-x="603" 
d="M531 0h-440c-20 0 -30 11 -30 32l-2 736c0 21 11 32 32 32h69c31 0 32 -19 32 -39v-628h332c36 0 39 -3 39 -39v-54c0 -20 -1 -40 -32 -40zM383 -80v-65c0 -8 -3 -12 -4 -15l-36 -76c-5 -12 -12 -14 -24 -14h-43c-19 0 -15 10 -14 17l18 58h-8c-19 0 -32 15 -32 30v65
c0 15 13 29 32 29h77c19 0 34 -14 34 -29z" />
    <glyph glyph-name="uni013C" unicode="&#x13c;" horiz-adv-x="603" 
d="M531 0h-440c-20 0 -30 11 -30 32l-2 736c0 21 11 32 32 32h69c31 0 32 -19 32 -39v-628h332c36 0 39 -3 39 -39v-54c0 -20 -1 -40 -32 -40zM380 -80v-65c0 -8 -3 -12 -4 -15l-36 -76c-5 -12 -12 -14 -24 -14h-43c-19 0 -15 10 -14 17l18 58h-8c-19 0 -32 15 -32 30v65
c0 15 13 29 32 29h77c19 0 34 -14 34 -29z" />
    <glyph glyph-name="Lcaron" unicode="&#x13d;" horiz-adv-x="603" 
d="M531 0h-440c-20 0 -30 11 -30 32l-2 736c0 21 11 32 32 32h69c31 0 32 -19 32 -39v-628h332c36 0 39 -3 39 -39v-54c0 -20 -1 -40 -32 -40zM362 515h-61c-16 0 -32 14 -32 33v220c0 19 16 32 32 32h61c16 0 32 -13 32 -32v-220c0 -19 -16 -33 -32 -33z" />
    <glyph glyph-name="lcaron" unicode="&#x13e;" horiz-adv-x="603" 
d="M531 0h-440c-20 0 -30 11 -30 32l-2 736c0 21 11 32 32 32h69c31 0 32 -19 32 -39v-628h332c36 0 39 -3 39 -39v-54c0 -20 -1 -40 -32 -40zM362 515h-61c-16 0 -32 14 -32 33v220c0 19 16 32 32 32h61c16 0 32 -13 32 -32v-220c0 -19 -16 -33 -32 -33z" />
    <glyph glyph-name="Ldot" unicode="&#x13f;" horiz-adv-x="603" 
d="M531 0h-440c-20 0 -30 11 -30 32l-2 736c0 21 11 32 32 32h69c31 0 32 -19 32 -39v-628h332c36 0 39 -3 39 -39v-54c0 -20 -1 -40 -32 -40zM392 422v-74c0 -16 -14 -32 -33 -32h-68c-19 0 -32 16 -32 32v74c0 16 13 32 32 32h68c19 0 33 -16 33 -32z" />
    <glyph glyph-name="ldot" unicode="&#x140;" horiz-adv-x="603" 
d="M531 0h-440c-20 0 -30 11 -30 32l-2 736c0 21 11 32 32 32h69c31 0 32 -19 32 -39v-628h332c36 0 39 -3 39 -39v-54c0 -20 -1 -40 -32 -40zM392 422v-74c0 -16 -14 -32 -33 -32h-68c-19 0 -32 16 -32 32v74c0 16 13 32 32 32h68c19 0 33 -16 33 -32z" />
    <glyph glyph-name="Nacute" unicode="&#x143;" horiz-adv-x="732" 
d="M669 768v-736c0 -16 -14 -32 -33 -32h-68c-13 0 -22 5 -28 15c-120 179 -224 333 -347 515v-498c0 -16 -14 -32 -33 -32h-68c-19 0 -31 16 -31 32l-2 736c0 16 13 32 32 32h74c12 0 21 -5 27 -16v1l343 -516v499c0 16 14 32 33 32h68c19 0 33 -16 33 -32zM411 863h-50
c-17 0 -34 6 -54 27l-69 87c-12 19 -1 31 23 31h71c25 0 43 -8 55 -25l48 -88c9 -19 5 -32 -24 -32z" />
    <glyph glyph-name="nacute" unicode="&#x144;" horiz-adv-x="732" 
d="M669 768v-736c0 -16 -14 -32 -33 -32h-68c-13 0 -22 5 -28 15c-120 179 -224 333 -347 515v-498c0 -16 -14 -32 -33 -32h-68c-19 0 -31 16 -31 32l-2 736c0 16 13 32 32 32h74c12 0 21 -5 27 -16v1l343 -516v499c0 16 14 32 33 32h68c19 0 33 -16 33 -32zM411 863h-50
c-17 0 -34 6 -54 27l-69 87c-12 19 -1 31 23 31h71c25 0 43 -8 55 -25l48 -88c9 -19 5 -32 -24 -32z" />
    <glyph glyph-name="uni0145" unicode="&#x145;" horiz-adv-x="732" 
d="M669 768v-736c0 -16 -14 -32 -33 -32h-68c-13 0 -22 5 -28 15c-120 179 -224 333 -347 515v-498c0 -16 -14 -32 -33 -32h-68c-19 0 -31 16 -31 32l-2 736c0 16 13 32 32 32h74c12 0 21 -5 27 -16v1l343 -516v499c0 16 14 32 33 32h68c19 0 33 -16 33 -32zM450 -80v-65
c0 -8 -3 -12 -4 -15l-36 -76c-5 -12 -12 -14 -24 -14h-43c-19 0 -15 10 -14 17l18 58h-8c-19 0 -32 15 -32 30v65c0 15 13 29 32 29h77c19 0 34 -14 34 -29z" />
    <glyph glyph-name="uni0146" unicode="&#x146;" horiz-adv-x="732" 
d="M669 768v-736c0 -16 -14 -32 -33 -32h-68c-13 0 -22 5 -28 15c-120 179 -224 333 -347 515v-498c0 -16 -14 -32 -33 -32h-68c-19 0 -31 16 -31 32l-2 736c0 16 13 32 32 32h74c12 0 21 -5 27 -16v1l343 -516v499c0 16 14 32 33 32h68c19 0 33 -16 33 -32zM448 -80v-65
c0 -8 -3 -12 -4 -15l-36 -76c-5 -12 -12 -14 -24 -14h-43c-19 0 -15 10 -14 17l18 58h-8c-19 0 -32 15 -32 30v65c0 15 13 29 32 29h77c19 0 34 -14 34 -29z" />
    <glyph glyph-name="Ncaron" unicode="&#x147;" horiz-adv-x="732" 
d="M669 768v-736c0 -16 -14 -32 -33 -32h-68c-13 0 -22 5 -28 15c-120 179 -224 333 -347 515v-498c0 -16 -14 -32 -33 -32h-68c-19 0 -31 16 -31 32l-2 736c0 16 13 32 32 32h74c12 0 21 -5 27 -16v1l343 -516v499c0 16 14 32 33 32h68c19 0 33 -16 33 -32zM204 1016h67
c24 0 36 -6 59 -26l37 -34l38 34c23 20 35 26 59 26h65c28 0 36 -17 15 -37l-94 -87c-17 -20 -36 -27 -56 -27h-52c-29 0 -43 11 -60 27l-93 87c-23 20 -13 37 15 37z" />
    <glyph glyph-name="ncaron" unicode="&#x148;" horiz-adv-x="732" 
d="M669 768v-736c0 -16 -14 -32 -33 -32h-68c-13 0 -22 5 -28 15c-120 179 -224 333 -347 515v-498c0 -16 -14 -32 -33 -32h-68c-19 0 -31 16 -31 32l-2 736c0 16 13 32 32 32h74c12 0 21 -5 27 -16v1l343 -516v499c0 16 14 32 33 32h68c19 0 33 -16 33 -32zM204 1016h67
c24 0 36 -6 59 -26l37 -34l38 34c23 20 35 26 59 26h65c28 0 36 -17 15 -37l-94 -87c-17 -20 -36 -27 -56 -27h-52c-29 0 -43 11 -60 27l-93 87c-23 20 -13 37 15 37z" />
    <glyph glyph-name="napostrophe" unicode="&#x149;" horiz-adv-x="900" 
d="M846 768v-736c0 -16 -14 -32 -33 -32h-68c-13 0 -22 5 -28 15c-120 179 -224 333 -347 515v-498c0 -16 -14 -32 -33 -32h-68c-19 0 -31 16 -31 32l-2 736c0 16 13 32 32 32h74c12 0 21 -5 27 -16v1l343 -516v499c0 16 14 32 33 32h68c19 0 33 -16 33 -32zM151 519h-61
c-16 0 -32 14 -32 33v220c0 19 16 32 32 32h61c16 0 32 -13 32 -32v-220c0 -19 -16 -33 -32 -33z" />
    <glyph glyph-name="Omacron" unicode="&#x14c;" horiz-adv-x="795" 
d="M745 480v-157c0 -184 -157 -332 -349 -332s-350 148 -350 332v157c0 184 159 331 351 331c193 0 348 -147 348 -331zM610 323v157c0 112 -97 204 -214 204c-118 0 -215 -93 -215 -204v-157c0 -112 97 -204 215 -204c117 0 214 92 214 204zM592 958v-63
c0 -16 -14 -32 -33 -32h-323c-19 0 -29 16 -32 32v63c0 16 13 32 32 32h323c19 0 33 -16 33 -32z" />
    <glyph glyph-name="omacron" unicode="&#x14d;" horiz-adv-x="795" 
d="M745 480v-157c0 -184 -157 -332 -349 -332s-350 148 -350 332v157c0 184 159 331 351 331c193 0 348 -147 348 -331zM610 323v157c0 112 -97 204 -214 204c-118 0 -215 -93 -215 -204v-157c0 -112 97 -204 215 -204c117 0 214 92 214 204zM592 958v-63
c0 -16 -14 -32 -33 -32h-323c-19 0 -29 16 -32 32v63c0 16 13 32 32 32h323c19 0 33 -16 33 -32z" />
    <glyph glyph-name="Obreve" unicode="&#x14e;" horiz-adv-x="795" 
d="M498 1015h32c23 0 35 -16 35 -32v-5c0 -11 1 -18 -2 -29c-11 -57 -70 -88 -133 -88h-30l-36 1c-63 0 -121 31 -132 87c-3 11 -2 18 -2 29v5c0 16 12 32 35 32h32c20 0 36 -15 36 -32v-5c0 -9 1 -15 2 -18c5 -11 18 -18 30 -18h65c12 0 25 7 30 18c2 5 3 11 3 18v5
c0 17 15 32 35 32zM610 323v157c0 112 -97 204 -214 204c-118 0 -215 -93 -215 -204v-157c0 -112 97 -204 215 -204c117 0 214 92 214 204zM745 480v-157c0 -184 -157 -332 -349 -332s-350 148 -350 332v157c0 184 159 331 351 331c193 0 348 -147 348 -331z" />
    <glyph glyph-name="obreve" unicode="&#x14f;" horiz-adv-x="795" 
d="M498 1015h32c23 0 35 -16 35 -32v-5c0 -11 1 -18 -2 -29c-11 -57 -70 -88 -133 -88h-30l-36 1c-63 0 -121 31 -132 87c-3 11 -2 18 -2 29v5c0 16 12 32 35 32h32c20 0 36 -15 36 -32v-5c0 -9 1 -15 2 -18c5 -11 18 -18 30 -18h65c12 0 25 7 30 18c2 5 3 11 3 18v5
c0 17 15 32 35 32zM610 323v157c0 112 -97 204 -214 204c-118 0 -215 -93 -215 -204v-157c0 -112 97 -204 215 -204c117 0 214 92 214 204zM745 480v-157c0 -184 -157 -332 -349 -332s-350 148 -350 332v157c0 184 159 331 351 331c193 0 348 -147 348 -331z" />
    <glyph glyph-name="Ohungarumlaut" unicode="&#x150;" horiz-adv-x="795" 
d="M745 480v-157c0 -184 -157 -332 -349 -332s-350 148 -350 332v157c0 184 159 331 351 331c193 0 348 -147 348 -331zM610 323v157c0 112 -97 204 -214 204c-118 0 -215 -93 -215 -204v-157c0 -112 97 -204 215 -204c117 0 214 92 214 204zM325 862h-47
c-29 0 -35 13 -24 32l48 88c12 17 30 25 55 25h68c24 0 35 -12 23 -31l-69 -87c-20 -21 -37 -27 -54 -27zM518 862h-47c-29 0 -35 13 -24 32l48 88c12 17 30 25 55 25h68c24 0 35 -12 23 -31l-69 -87c-20 -21 -37 -27 -54 -27z" />
    <glyph glyph-name="ohungarumlaut" unicode="&#x151;" horiz-adv-x="795" 
d="M745 480v-157c0 -184 -157 -332 -349 -332s-350 148 -350 332v157c0 184 159 331 351 331c193 0 348 -147 348 -331zM610 323v157c0 112 -97 204 -214 204c-118 0 -215 -93 -215 -204v-157c0 -112 97 -204 215 -204c117 0 214 92 214 204zM325 862h-47
c-29 0 -35 13 -24 32l48 88c12 17 30 25 55 25h68c24 0 35 -12 23 -31l-69 -87c-20 -21 -37 -27 -54 -27zM518 862h-47c-29 0 -35 13 -24 32l48 88c12 17 30 25 55 25h68c24 0 35 -12 23 -31l-69 -87c-20 -21 -37 -27 -54 -27z" />
    <glyph glyph-name="Racute" unicode="&#x154;" horiz-adv-x="699" 
d="M439 667h-245v-218c79 39 257 127 278 160v-1c4 6 6 13 6 21c0 21 -16 38 -39 38zM91 800h356c90 0 169 -79 169 -170c0 -76 -41 -120 -98 -159c21 -56 41 -108 61 -164c32 -88 65 -177 100 -266c11 -27 -4 -41 -31 -41h-76c-21 0 -27 12 -32 25l-144 381
c-69 -36 -130 -70 -202 -107v-260c0 -20 -1 -39 -32 -39h-71c-19 0 -31 16 -31 32l-2 736c0 16 14 32 33 32zM324 866h-47c-29 0 -35 13 -24 32l48 88c12 17 30 25 55 25h68c24 0 35 -12 23 -31l-69 -87c-20 -21 -37 -27 -54 -27z" />
    <glyph glyph-name="racute" unicode="&#x155;" horiz-adv-x="699" 
d="M439 667h-245v-218c79 39 257 127 278 160v-1c4 6 6 13 6 21c0 21 -16 38 -39 38zM91 800h356c90 0 169 -79 169 -170c0 -76 -41 -120 -98 -159c21 -56 41 -108 61 -164c32 -88 65 -177 100 -266c11 -27 -4 -41 -31 -41h-76c-21 0 -27 12 -32 25l-144 381
c-69 -36 -130 -70 -202 -107v-260c0 -20 -1 -39 -32 -39h-71c-19 0 -31 16 -31 32l-2 736c0 16 14 32 33 32zM324 866h-47c-29 0 -35 13 -24 32l48 88c12 17 30 25 55 25h68c24 0 35 -12 23 -31l-69 -87c-20 -21 -37 -27 -54 -27z" />
    <glyph glyph-name="uni0156" unicode="&#x156;" horiz-adv-x="699" 
d="M439 667h-245v-218c79 39 257 127 278 160v-1c4 6 6 13 6 21c0 21 -16 38 -39 38zM91 800h356c90 0 169 -79 169 -170c0 -76 -41 -120 -98 -159c21 -56 41 -108 61 -164c32 -88 65 -177 100 -266c11 -27 -4 -41 -31 -41h-76c-21 0 -27 12 -32 25l-144 381
c-69 -36 -130 -70 -202 -107v-260c0 -20 -1 -39 -32 -39h-71c-19 0 -31 16 -31 32l-2 736c0 16 14 32 33 32zM443 -80v-65c0 -8 -3 -12 -4 -15l-36 -76c-5 -12 -12 -14 -24 -14h-43c-19 0 -15 10 -14 17l18 58h-8c-19 0 -32 15 -32 30v65c0 15 13 29 32 29h77
c19 0 34 -14 34 -29z" />
    <glyph glyph-name="uni0157" unicode="&#x157;" horiz-adv-x="699" 
d="M439 667h-245v-218c79 39 257 127 278 160v-1c4 6 6 13 6 21c0 21 -16 38 -39 38zM91 800h356c90 0 169 -79 169 -170c0 -76 -41 -120 -98 -159c21 -56 41 -108 61 -164c32 -88 65 -177 100 -266c11 -27 -4 -41 -31 -41h-76c-21 0 -27 12 -32 25l-144 381
c-69 -36 -130 -70 -202 -107v-260c0 -20 -1 -39 -32 -39h-71c-19 0 -31 16 -31 32l-2 736c0 16 14 32 33 32zM444 -80v-65c0 -8 -3 -12 -4 -15l-36 -76c-5 -12 -12 -14 -24 -14h-43c-19 0 -15 10 -14 17l18 58h-8c-19 0 -32 15 -32 30v65c0 15 13 29 32 29h77
c19 0 34 -14 34 -29z" />
    <glyph glyph-name="Rcaron" unicode="&#x158;" horiz-adv-x="699" 
d="M439 667h-245v-218c79 39 257 127 278 160v-1c4 6 6 13 6 21c0 21 -16 38 -39 38zM91 800h356c90 0 169 -79 169 -170c0 -76 -41 -120 -98 -159c21 -56 41 -108 61 -164c32 -88 65 -177 100 -266c11 -27 -4 -41 -31 -41h-76c-21 0 -27 12 -32 25l-144 381
c-69 -36 -130 -70 -202 -107v-260c0 -20 -1 -39 -32 -39h-71c-19 0 -31 16 -31 32l-2 736c0 16 14 32 33 32zM170 1016h67c24 0 36 -6 59 -26l37 -34l38 34c23 20 35 26 59 26h65c28 0 36 -17 15 -37l-94 -87c-17 -20 -36 -27 -56 -27h-52c-29 0 -43 11 -60 27l-93 87
c-23 20 -13 37 15 37z" />
    <glyph glyph-name="rcaron" unicode="&#x159;" horiz-adv-x="699" 
d="M439 667h-245v-218c79 39 257 127 278 160v-1c4 6 6 13 6 21c0 21 -16 38 -39 38zM91 800h356c90 0 169 -79 169 -170c0 -76 -41 -120 -98 -159c21 -56 41 -108 61 -164c32 -88 65 -177 100 -266c11 -27 -4 -41 -31 -41h-76c-21 0 -27 12 -32 25l-144 381
c-69 -36 -130 -70 -202 -107v-260c0 -20 -1 -39 -32 -39h-71c-19 0 -31 16 -31 32l-2 736c0 16 14 32 33 32zM170 1016h67c24 0 36 -6 59 -26l37 -34l38 34c23 20 35 26 59 26h65c28 0 36 -17 15 -37l-94 -87c-17 -20 -36 -27 -56 -27h-52c-29 0 -43 11 -60 27l-93 87
c-23 20 -13 37 15 37z" />
    <glyph glyph-name="Sacute" unicode="&#x15a;" horiz-adv-x="668" 
d="M623 248c0 -76 -31 -160 -76 -200s-109 -57 -181 -57h-76c-87 0 -164 44 -207 113c-14 23 -23 44 -27 65c-8 41 -8 58 -8 81v-2c0 20 0 39 31 39h68c16 0 26 -8 30 -24c4 -13 3 -16 3 -32c0 -5 1 -14 2 -27c11 -49 56 -85 108 -85h76c60 0 112 33 121 86c1 7 2 13 2 20
c1 13 2 43 -15 58c-28 24 -89 34 -161 51c-128 29 -266 68 -266 202v14c0 21 -1 42 6 69l-1 -1c21 111 124 192 238 192h76c60 0 117 -22 162 -58s73 -105 70 -182c-1 -20 -1 -39 -32 -39h-66c-19 0 -31 16 -32 32c-3 85 -38 117 -102 117h-76c-51 0 -98 -37 -109 -88v1
c-3 -17 -9 -47 16 -72c13 -13 28 -22 43 -26l115 -32c60 -17 103 -28 128 -37c27 -9 50 -21 70 -34c41 -28 70 -76 70 -144zM348 864h-47c-29 0 -35 13 -24 32l48 88c12 17 30 25 55 25h68c24 0 35 -12 23 -31l-69 -87c-20 -21 -37 -27 -54 -27z" />
    <glyph glyph-name="sacute" unicode="&#x15b;" horiz-adv-x="668" 
d="M623 248c0 -76 -31 -160 -76 -200s-109 -57 -181 -57h-76c-87 0 -164 44 -207 113c-14 23 -23 44 -27 65c-8 41 -8 58 -8 81v-2c0 20 0 39 31 39h68c16 0 26 -8 30 -24c4 -13 3 -16 3 -32c0 -5 1 -14 2 -27c11 -49 56 -85 108 -85h76c60 0 112 33 121 86c1 7 2 13 2 20
c1 13 2 43 -15 58c-28 24 -89 34 -161 51c-128 29 -266 68 -266 202v14c0 21 -1 42 6 69l-1 -1c21 111 124 192 238 192h76c60 0 117 -22 162 -58s73 -105 70 -182c-1 -20 -1 -39 -32 -39h-66c-19 0 -31 16 -32 32c-3 85 -38 117 -102 117h-76c-51 0 -98 -37 -109 -88v1
c-3 -17 -9 -47 16 -72c13 -13 28 -22 43 -26l115 -32c60 -17 103 -28 128 -37c27 -9 50 -21 70 -34c41 -28 70 -76 70 -144zM348 864h-47c-29 0 -35 13 -24 32l48 88c12 17 30 25 55 25h68c24 0 35 -12 23 -31l-69 -87c-20 -21 -37 -27 -54 -27z" />
    <glyph glyph-name="Scircumflex" unicode="&#x15c;" horiz-adv-x="668" 
d="M623 248c0 -76 -31 -160 -76 -200s-109 -57 -181 -57h-76c-87 0 -164 44 -207 113c-14 23 -23 44 -27 65c-8 41 -8 58 -8 81v-2c0 20 0 39 31 39h68c16 0 26 -8 30 -24c4 -13 3 -16 3 -32c0 -5 1 -14 2 -27c11 -49 56 -85 108 -85h76c60 0 112 33 121 86c1 7 2 13 2 20
c1 13 2 43 -15 58c-28 24 -89 34 -161 51c-128 29 -266 68 -266 202v14c0 21 -1 42 6 69l-1 -1c21 111 124 192 238 192h76c60 0 117 -22 162 -58s73 -105 70 -182c-1 -20 -1 -39 -32 -39h-66c-19 0 -31 16 -32 32c-3 85 -38 117 -102 117h-76c-51 0 -98 -37 -109 -88v1
c-3 -17 -9 -47 16 -72c13 -13 28 -22 43 -26l115 -32c60 -17 103 -28 128 -37c27 -9 50 -21 70 -34c41 -28 70 -76 70 -144zM497 861h-67c-24 0 -38 6 -59 26l-37 34l-38 -34c-23 -20 -35 -26 -59 -26h-65c-28 0 -38 17 -15 37l94 87c17 20 36 27 56 27h52
c29 0 41 -11 60 -27l93 -87c21 -20 13 -37 -15 -37z" />
    <glyph glyph-name="scircumflex" unicode="&#x15d;" horiz-adv-x="668" 
d="M623 248c0 -76 -31 -160 -76 -200s-109 -57 -181 -57h-76c-87 0 -164 44 -207 113c-14 23 -23 44 -27 65c-8 41 -8 58 -8 81v-2c0 20 0 39 31 39h68c16 0 26 -8 30 -24c4 -13 3 -16 3 -32c0 -5 1 -14 2 -27c11 -49 56 -85 108 -85h76c60 0 112 33 121 86c1 7 2 13 2 20
c1 13 2 43 -15 58c-28 24 -89 34 -161 51c-128 29 -266 68 -266 202v14c0 21 -1 42 6 69l-1 -1c21 111 124 192 238 192h76c60 0 117 -22 162 -58s73 -105 70 -182c-1 -20 -1 -39 -32 -39h-66c-19 0 -31 16 -32 32c-3 85 -38 117 -102 117h-76c-51 0 -98 -37 -109 -88v1
c-3 -17 -9 -47 16 -72c13 -13 28 -22 43 -26l115 -32c60 -17 103 -28 128 -37c27 -9 50 -21 70 -34c41 -28 70 -76 70 -144zM497 861h-67c-24 0 -38 6 -59 26l-37 34l-38 -34c-23 -20 -35 -26 -59 -26h-65c-28 0 -38 17 -15 37l94 87c17 20 36 27 56 27h52
c29 0 41 -11 60 -27l93 -87c21 -20 13 -37 -15 -37z" />
    <glyph glyph-name="Scedilla" unicode="&#x15e;" horiz-adv-x="668" 
d="M248 -88l30 79c-83 4 -155 48 -195 113c-14 23 -23 44 -27 65c-8 40 -8 56 -8 79c0 20 0 39 31 39h68c16 0 26 -8 30 -24c4 -13 3 -16 3 -32c0 -5 1 -14 2 -27c11 -49 56 -85 108 -85h76c60 0 112 33 121 86c1 7 2 13 2 20c1 13 2 43 -15 58c-28 24 -89 34 -161 51
c-128 29 -266 68 -266 202v14c0 21 -1 42 6 69l-1 -1c21 111 124 192 238 192h76c60 0 117 -22 162 -58s73 -105 70 -182c-1 -20 -1 -39 -32 -39h-66c-19 0 -31 16 -32 32c-3 85 -38 117 -102 117h-76c-51 0 -98 -37 -109 -88v1c-3 -17 -9 -47 16 -72c13 -13 28 -22 43 -26
l115 -32c60 -17 103 -28 128 -37c27 -9 50 -21 70 -34c41 -28 70 -76 70 -144c0 -76 -31 -160 -76 -200c-43 -39 -103 -54 -171 -57l-14 -37c7 -1 13 -2 20 -5c47 -15 78 -53 78 -109c0 -73 -60 -134 -131 -134h-48c-39 0 -71 17 -95 42c-7 9 -13 18 -18 28
c-8 16 -7 32 8 40l44 25c15 8 30 -1 38 -16c7 -11 20 -21 36 -21h19c25 0 41 13 41 36c0 21 -16 39 -41 39h-47c-19 0 -25 13 -18 33z" />
    <glyph glyph-name="uni0162" unicode="&#x162;" horiz-adv-x="640" 
d="M579 671h-192v-632c0 -17 -1 -34 -21 -38v-1l-18 -46c7 -1 13 -2 20 -5c47 -15 78 -53 78 -109c0 -73 -60 -134 -131 -134h-48c-39 0 -71 17 -95 42c-7 9 -13 18 -18 28c-8 16 -7 32 8 40l44 25c15 8 30 -1 38 -16c7 -11 20 -21 36 -21h19c25 0 41 13 41 36
c0 21 -16 39 -41 39h-47c-19 0 -25 13 -18 33l34 91c-15 7 -14 21 -14 36v632h-194c-35 0 -40 7 -40 39v51c0 20 1 39 32 39h533c31 0 33 -19 33 -39v-51c0 -32 -4 -39 -39 -39z" />
    <glyph glyph-name="uni0163" unicode="&#x163;" horiz-adv-x="640" 
d="M579 671h-192v-632c0 -17 -1 -34 -21 -38v-1l-18 -46c7 -1 13 -2 20 -5c47 -15 78 -53 78 -109c0 -73 -60 -134 -131 -134h-48c-39 0 -71 17 -95 42c-7 9 -13 18 -18 28c-8 16 -7 32 8 40l44 25c15 8 30 -1 38 -16c7 -11 20 -21 36 -21h19c25 0 41 13 41 36
c0 21 -16 39 -41 39h-47c-19 0 -25 13 -18 33l34 91c-15 7 -14 21 -14 36v632h-194c-35 0 -40 7 -40 39v51c0 20 1 39 32 39h533c31 0 33 -19 33 -39v-51c0 -32 -4 -39 -39 -39z" />
    <glyph glyph-name="Tcaron" unicode="&#x164;" horiz-adv-x="640" 
d="M579 671h-192v-632c0 -20 -1 -39 -32 -39h-69c-31 0 -32 19 -32 39v632h-194c-35 0 -40 7 -40 39v51c0 20 1 39 32 39h533c31 0 33 -19 33 -39v-51c0 -32 -4 -39 -39 -39zM158 1016h67c24 0 36 -6 59 -26l37 -34l38 34c23 20 35 26 59 26h65c28 0 36 -17 15 -37l-94 -87
c-17 -20 -36 -27 -56 -27h-52c-29 0 -43 11 -60 27l-93 87c-23 20 -13 37 15 37z" />
    <glyph glyph-name="tcaron" unicode="&#x165;" horiz-adv-x="640" 
d="M579 671h-192v-632c0 -20 -1 -39 -32 -39h-69c-31 0 -32 19 -32 39v632h-194c-35 0 -40 7 -40 39v51c0 20 1 39 32 39h533c31 0 33 -19 33 -39v-51c0 -32 -4 -39 -39 -39zM158 1016h67c24 0 36 -6 59 -26l37 -34l38 34c23 20 35 26 59 26h65c28 0 36 -17 15 -37l-94 -87
c-17 -20 -36 -27 -56 -27h-52c-29 0 -43 11 -60 27l-93 87c-23 20 -13 37 15 37z" />
    <glyph glyph-name="Tbar" unicode="&#x166;" horiz-adv-x="640" 
d="M594 462v-63c0 -16 -14 -32 -33 -32h-174v-328c0 -20 -1 -39 -32 -39h-69c-31 0 -32 19 -32 39v328h-176c-19 0 -32 16 -32 32v63c0 16 13 32 32 32h176v177h-194c-35 0 -40 7 -40 39v51c0 20 1 39 32 39h533c31 0 33 -19 33 -39v-51c0 -32 -4 -39 -39 -39h-192v-177h174
c19 0 33 -16 33 -32z" />
    <glyph glyph-name="tbar" unicode="&#x167;" horiz-adv-x="640" 
d="M594 462v-63c0 -16 -14 -32 -33 -32h-174v-328c0 -20 -1 -39 -32 -39h-69c-31 0 -32 19 -32 39v328h-176c-19 0 -32 16 -32 32v63c0 16 13 32 32 32h176v177h-194c-35 0 -40 7 -40 39v51c0 20 1 39 32 39h533c31 0 33 -19 33 -39v-51c0 -32 -4 -39 -39 -39h-192v-177h174
c19 0 33 -16 33 -32z" />
    <glyph glyph-name="Utilde" unicode="&#x168;" horiz-adv-x="700" 
d="M637 768v-514c0 -140 -118 -254 -258 -254h-77c-132 0 -243 105 -243 241v527c0 21 11 32 32 32h67c31 0 32 -19 32 -39v-520c0 -61 52 -110 112 -110h77c69 0 126 55 126 123v507c0 20 2 39 33 39h66c22 0 33 -11 33 -32zM201 880c-7 3 -12 7 -15 14c-6 5 -6 15 0 29
l22 54c7 15 23 22 43 14c105 -40 130 46 246 -14c8 -3 14 -8 17 -14c7 -5 7 -14 0 -28l-25 -54c-9 -19 -30 -18 -43 -11c-81 53 -140 -38 -245 10z" />
    <glyph glyph-name="utilde" unicode="&#x169;" horiz-adv-x="700" 
d="M637 768v-514c0 -140 -118 -254 -258 -254h-77c-132 0 -243 105 -243 241v527c0 21 11 32 32 32h67c31 0 32 -19 32 -39v-520c0 -61 52 -110 112 -110h77c69 0 126 55 126 123v507c0 20 2 39 33 39h66c22 0 33 -11 33 -32zM201 880c-7 3 -12 7 -15 14c-6 5 -6 15 0 29
l22 54c7 15 23 22 43 14c105 -40 130 46 246 -14c8 -3 14 -8 17 -14c7 -5 7 -14 0 -28l-25 -54c-9 -19 -30 -18 -43 -11c-81 53 -140 -38 -245 10z" />
    <glyph glyph-name="Umacron" unicode="&#x16a;" horiz-adv-x="700" 
d="M637 768v-514c0 -140 -118 -254 -258 -254h-77c-132 0 -243 105 -243 241v527c0 21 11 32 32 32h67c31 0 32 -19 32 -39v-520c0 -61 52 -110 112 -110h77c69 0 126 55 126 123v507c0 20 2 39 33 39h66c22 0 33 -11 33 -32zM544 958v-63c0 -16 -14 -32 -33 -32h-323
c-19 0 -29 16 -32 32v63c0 16 13 32 32 32h323c19 0 33 -16 33 -32z" />
    <glyph glyph-name="umacron" unicode="&#x16b;" horiz-adv-x="700" 
d="M637 768v-514c0 -140 -118 -254 -258 -254h-77c-132 0 -243 105 -243 241v527c0 21 11 32 32 32h67c31 0 32 -19 32 -39v-520c0 -61 52 -110 112 -110h77c69 0 126 55 126 123v507c0 20 2 39 33 39h66c22 0 33 -11 33 -32zM544 958v-63c0 -16 -14 -32 -33 -32h-323
c-19 0 -29 16 -32 32v63c0 16 13 32 32 32h323c19 0 33 -16 33 -32z" />
    <glyph glyph-name="Ubreve" unicode="&#x16c;" horiz-adv-x="700" 
d="M451 1015h32c23 0 35 -16 35 -32v-5c0 -11 1 -18 -2 -29c-11 -57 -70 -88 -133 -88h-31l-35 1c-64 1 -121 30 -132 87c-3 11 -3 18 -3 29v5c0 16 12 32 35 32h32c21 0 36 -15 36 -32v-5c0 -9 0 -13 3 -18c5 -11 17 -18 29 -18h66c12 0 25 7 30 18c1 3 2 9 2 18v5
c0 17 15 32 36 32zM637 768v-514c0 -140 -118 -254 -258 -254h-77c-132 0 -243 105 -243 241v527c0 21 11 32 32 32h67c31 0 32 -19 32 -39v-520c0 -61 52 -110 112 -110h77c69 0 126 55 126 123v507c0 20 2 39 33 39h66c22 0 33 -11 33 -32z" />
    <glyph glyph-name="ubreve" unicode="&#x16d;" horiz-adv-x="700" 
d="M451 1015h32c23 0 35 -16 35 -32v-5c0 -11 1 -18 -2 -29c-11 -57 -70 -88 -133 -88h-31l-35 1c-64 1 -121 30 -132 87c-3 11 -3 18 -3 29v5c0 16 12 32 35 32h32c21 0 36 -15 36 -32v-5c0 -9 0 -13 3 -18c5 -11 17 -18 29 -18h66c12 0 25 7 30 18c1 3 2 9 2 18v5
c0 17 15 32 36 32zM637 768v-514c0 -140 -118 -254 -258 -254h-77c-132 0 -243 105 -243 241v527c0 21 11 32 32 32h67c31 0 32 -19 32 -39v-520c0 -61 52 -110 112 -110h77c69 0 126 55 126 123v507c0 20 2 39 33 39h66c22 0 33 -11 33 -32z" />
    <glyph glyph-name="Uring" unicode="&#x16e;" horiz-adv-x="700" 
d="M637 768v-514c0 -140 -118 -254 -258 -254h-77c-132 0 -243 105 -243 241v527c0 21 11 32 32 32h67c31 0 32 -19 32 -39v-520c0 -61 52 -110 112 -110h77c69 0 126 55 126 123v507c0 20 2 39 33 39h66c22 0 33 -11 33 -32zM369 791h-41c-60 0 -107 52 -107 114
s47 114 107 114h41c59 0 110 -53 110 -114c0 -64 -51 -114 -110 -114zM340 869h16c19 0 34 17 37 36c-3 21 -18 36 -37 36h-16c-19 0 -36 -15 -33 -36c-3 -19 14 -36 33 -36z" />
    <glyph glyph-name="uring" unicode="&#x16f;" horiz-adv-x="700" 
d="M637 768v-514c0 -140 -118 -254 -258 -254h-77c-132 0 -243 105 -243 241v527c0 21 11 32 32 32h67c31 0 32 -19 32 -39v-520c0 -61 52 -110 112 -110h77c69 0 126 55 126 123v507c0 20 2 39 33 39h66c22 0 33 -11 33 -32zM369 791h-41c-60 0 -107 52 -107 114
s47 114 107 114h41c59 0 110 -53 110 -114c0 -64 -51 -114 -110 -114zM340 869h16c19 0 34 17 37 36c-3 21 -18 36 -37 36h-16c-19 0 -36 -15 -33 -36c-3 -19 14 -36 33 -36z" />
    <glyph glyph-name="Uhungarumlaut" unicode="&#x170;" horiz-adv-x="700" 
d="M637 768v-514c0 -140 -118 -254 -258 -254h-77c-132 0 -243 105 -243 241v527c0 21 11 32 32 32h67c31 0 32 -19 32 -39v-520c0 -61 52 -110 112 -110h77c69 0 126 55 126 123v507c0 20 2 39 33 39h66c22 0 33 -11 33 -32zM268 862h-47c-29 0 -35 13 -24 32l48 88
c12 17 30 25 55 25h68c24 0 35 -12 23 -31l-69 -87c-20 -21 -37 -27 -54 -27zM461 862h-47c-29 0 -35 13 -24 32l48 88c12 17 30 25 55 25h68c24 0 35 -12 23 -31l-69 -87c-20 -21 -37 -27 -54 -27z" />
    <glyph glyph-name="uhungarumlaut" unicode="&#x171;" horiz-adv-x="700" 
d="M637 768v-514c0 -140 -118 -254 -258 -254h-77c-132 0 -243 105 -243 241v527c0 21 11 32 32 32h67c31 0 32 -19 32 -39v-520c0 -61 52 -110 112 -110h77c69 0 126 55 126 123v507c0 20 2 39 33 39h66c22 0 33 -11 33 -32zM268 862h-47c-29 0 -35 13 -24 32l48 88
c12 17 30 25 55 25h68c24 0 35 -12 23 -31l-69 -87c-20 -21 -37 -27 -54 -27zM461 862h-47c-29 0 -35 13 -24 32l48 88c12 17 30 25 55 25h68c24 0 35 -12 23 -31l-69 -87c-20 -21 -37 -27 -54 -27z" />
    <glyph glyph-name="Uogonek" unicode="&#x172;" horiz-adv-x="700" 
d="M637 768v-514c0 -128 -100 -236 -224 -252l-71 -63c-19 -17 -32 -28 -32 -49c0 -23 16 -36 41 -36h19c16 0 29 0 36 11c8 15 23 24 38 16l44 -25c15 -8 16 -24 8 -40c-5 -10 -11 -19 -18 -28c-24 -25 -56 -32 -95 -32h-48c-71 0 -131 61 -131 134c0 56 12 79 58 109
c1 0 1 0 2 1l3 2c-116 16 -208 116 -208 239v527c0 21 11 32 32 32h67c31 0 32 -19 32 -39v-520c0 -61 52 -110 112 -110h77c69 0 126 55 126 123v507c0 20 2 39 33 39h66c22 0 33 -11 33 -32z" />
    <glyph glyph-name="uogonek" unicode="&#x173;" horiz-adv-x="700" 
d="M637 768v-514c0 -128 -100 -236 -224 -252l-71 -63c-19 -17 -32 -28 -32 -49c0 -23 16 -36 41 -36h19c16 0 29 0 36 11c8 15 23 24 38 16l44 -25c15 -8 16 -24 8 -40c-5 -10 -11 -19 -18 -28c-24 -25 -56 -32 -95 -32h-48c-71 0 -131 61 -131 134c0 56 12 79 58 109
c1 0 1 0 2 1l3 2c-116 16 -208 116 -208 239v527c0 21 11 32 32 32h67c31 0 32 -19 32 -39v-520c0 -61 52 -110 112 -110h77c69 0 126 55 126 123v507c0 20 2 39 33 39h66c22 0 33 -11 33 -32z" />
    <glyph glyph-name="Wcircumflex" unicode="&#x174;" horiz-adv-x="965" 
d="M60 799h56c15 0 30 0 37 -25l130 -533c47 180 92 351 137 532l-1 -3c3 19 14 29 33 29h48c17 0 28 -9 32 -26l137 -532l131 533c7 25 20 25 36 25h56c16 0 46 -5 41 -34l-3 -16c-45 -239 -123 -492 -179 -728c-5 -12 -4 -21 -31 -21h-98c-23 0 -28 10 -31 22
c-24 88 -45 179 -68 267l-48 188l-114 -454c-5 -13 -7 -23 -30 -23h-99c-25 0 -25 8 -32 24l-179 725c-1 4 -2 9 -2 17c0 33 21 33 41 33zM645 861h-67c-24 0 -36 6 -59 26l-37 34l-38 -34c-23 -20 -35 -26 -59 -26h-65c-28 0 -36 17 -15 37l94 87c17 20 36 27 56 27h52
c29 0 43 -11 60 -27l93 -87c23 -20 13 -37 -15 -37z" />
    <glyph glyph-name="wcircumflex" unicode="&#x175;" horiz-adv-x="965" 
d="M60 799h56c15 0 30 0 37 -25l130 -533c47 180 92 351 137 532l-1 -3c3 19 14 29 33 29h48c17 0 28 -9 32 -26l137 -532l131 533c7 25 20 25 36 25h56c16 0 46 -5 41 -34l-3 -16c-45 -239 -123 -492 -179 -728c-5 -12 -4 -21 -31 -21h-98c-23 0 -28 10 -31 22
c-24 88 -45 179 -68 267l-48 188l-114 -454c-5 -13 -7 -23 -30 -23h-99c-25 0 -25 8 -32 24l-179 725c-1 4 -2 9 -2 17c0 33 21 33 41 33zM645 861h-67c-24 0 -36 6 -59 26l-37 34l-38 -34c-23 -20 -35 -26 -59 -26h-65c-28 0 -36 17 -15 37l94 87c17 20 36 27 56 27h52
c29 0 43 -11 60 -27l93 -87c23 -20 13 -37 -15 -37z" />
    <glyph glyph-name="Ycircumflex" unicode="&#x176;" horiz-adv-x="696" 
d="M537 789l-2 -2c7 9 16 13 27 13h90c21 0 32 -11 32 -32c0 -11 -7 -20 -12 -27c0 -1 -1 -1 -1 -2l-1 -1l-257 -367v-332c0 -20 0 -39 -33 -39h-68c-31 0 -32 19 -32 39v334l-264 377c-4 7 -4 11 -4 19c0 21 10 31 31 31h89c13 0 22 -5 29 -15l187 -277
c104 160 166 253 189 281zM511 861h-67c-24 0 -38 6 -59 26l-37 34l-38 -34c-23 -20 -35 -26 -59 -26h-65c-28 0 -38 17 -15 37l94 87c17 20 36 27 56 27h52c29 0 41 -11 60 -27l93 -87c21 -20 13 -37 -15 -37z" />
    <glyph glyph-name="ycircumflex" unicode="&#x177;" horiz-adv-x="696" 
d="M537 789l-2 -2c7 9 16 13 27 13h90c21 0 32 -11 32 -32c0 -11 -7 -20 -12 -27c0 -1 -1 -1 -1 -2l-1 -1l-257 -367v-332c0 -20 0 -39 -33 -39h-68c-31 0 -32 19 -32 39v334l-264 377c-4 7 -4 11 -4 19c0 21 10 31 31 31h89c13 0 22 -5 29 -15l187 -277
c104 160 166 253 189 281zM511 861h-67c-24 0 -38 6 -59 26l-37 34l-38 -34c-23 -20 -35 -26 -59 -26h-65c-28 0 -38 17 -15 37l94 87c17 20 36 27 56 27h52c29 0 41 -11 60 -27l93 -87c21 -20 13 -37 -15 -37z" />
    <glyph glyph-name="Zacute" unicode="&#x179;" horiz-adv-x="654" 
d="M596 0h-543c-31 0 -33 20 -33 40v43c0 11 4 18 9 25l409 557h-357c-35 0 -40 5 -40 40v56c0 20 -1 39 34 39h509c19 0 32 -16 32 -32v-63c0 -7 -1 -15 -8 -22l-397 -548h379c35 0 39 -5 39 -40v-55c0 -20 -2 -40 -33 -40zM331 864h-47c-29 0 -35 13 -24 32l48 88
c12 17 30 25 55 25h68c24 0 35 -12 23 -31l-69 -87c-20 -21 -37 -27 -54 -27z" />
    <glyph glyph-name="zacute" unicode="&#x17a;" horiz-adv-x="654" 
d="M596 0h-543c-31 0 -33 20 -33 40v43c0 11 4 18 9 25l409 557h-357c-35 0 -40 5 -40 40v56c0 20 -1 39 34 39h509c19 0 32 -16 32 -32v-63c0 -7 -1 -15 -8 -22l-397 -548h379c35 0 39 -5 39 -40v-55c0 -20 -2 -40 -33 -40zM331 864h-47c-29 0 -35 13 -24 32l48 88
c12 17 30 25 55 25h68c24 0 35 -12 23 -31l-69 -87c-20 -21 -37 -27 -54 -27z" />
    <glyph glyph-name="Zdotaccent" unicode="&#x17b;" horiz-adv-x="654" 
d="M596 0h-543c-31 0 -33 20 -33 40v43c0 11 4 18 9 25l409 557h-357c-35 0 -40 5 -40 40v56c0 20 -1 39 34 39h509c19 0 32 -16 32 -32v-63c0 -7 -1 -15 -8 -22l-397 -548h379c35 0 39 -5 39 -40v-55c0 -20 -2 -40 -33 -40zM394 967v-74c0 -16 -14 -32 -33 -32h-68
c-19 0 -32 16 -32 32v74c0 16 13 32 32 32h68c19 0 33 -16 33 -32z" />
    <glyph glyph-name="zdotaccent" unicode="&#x17c;" horiz-adv-x="654" 
d="M596 0h-543c-31 0 -33 20 -33 40v43c0 11 4 18 9 25l409 557h-357c-35 0 -40 5 -40 40v56c0 20 -1 39 34 39h509c19 0 32 -16 32 -32v-63c0 -7 -1 -15 -8 -22l-397 -548h379c35 0 39 -5 39 -40v-55c0 -20 -2 -40 -33 -40zM394 967v-74c0 -16 -14 -32 -33 -32h-68
c-19 0 -32 16 -32 32v74c0 16 13 32 32 32h68c19 0 33 -16 33 -32z" />
    <glyph glyph-name="longs" unicode="&#x17f;" horiz-adv-x="1000" 
 />
    <glyph glyph-name="uni0218" unicode="&#x218;" horiz-adv-x="668" 
d="M623 248c0 -76 -31 -160 -76 -200s-109 -57 -181 -57h-76c-87 0 -165 44 -208 113c-15 22 -24 44 -28 65c-8 41 -7 58 -7 81v-2c0 20 1 39 32 39h68c16 0 26 -8 30 -24c4 -13 3 -16 3 -32c0 -5 1 -14 2 -27c11 -49 56 -85 108 -85h76c60 0 112 33 121 86c1 7 2 13 2 20
c1 13 2 43 -15 58c-28 24 -89 34 -161 51c-128 29 -266 68 -266 202v14c0 21 -1 42 6 69l-1 -1c21 111 124 192 238 192h76c60 0 117 -22 162 -58s73 -105 70 -182c-1 -20 -1 -39 -32 -39h-66c-19 0 -31 16 -32 32c-3 85 -38 117 -102 117h-76c-51 0 -98 -37 -109 -88v1
c-3 -17 -9 -47 16 -72c13 -13 28 -22 43 -26l115 -32c60 -17 103 -28 128 -37c27 -9 50 -21 70 -34c41 -28 70 -76 70 -144zM392 -63v-74c3 -4 0 -8 -3 -13l-36 -86c-7 -13 -12 -15 -24 -15h-42c-19 0 -17 11 -14 18l16 64h-8c-19 0 -32 16 -32 32v74c0 16 13 32 32 32h78
c19 0 33 -16 33 -32z" />
    <glyph glyph-name="uni0219" unicode="&#x219;" horiz-adv-x="668" 
d="M623 248c0 -76 -31 -160 -76 -200s-109 -57 -181 -57h-76c-87 0 -165 44 -208 113c-15 22 -24 44 -28 65c-8 41 -7 58 -7 81v-2c0 20 1 39 32 39h68c16 0 26 -8 30 -24c4 -13 3 -16 3 -32c0 -5 1 -14 2 -27c11 -49 56 -85 108 -85h76c60 0 112 33 121 86c1 7 2 13 2 20
c1 13 2 43 -15 58c-28 24 -89 34 -161 51c-128 29 -266 68 -266 202v14c0 21 -1 42 6 69l-1 -1c21 111 124 192 238 192h76c60 0 117 -22 162 -58s73 -105 70 -182c-1 -20 -1 -39 -32 -39h-66c-19 0 -31 16 -32 32c-3 85 -38 117 -102 117h-76c-51 0 -98 -37 -109 -88v1
c-3 -17 -9 -47 16 -72c13 -13 28 -22 43 -26l115 -32c60 -17 103 -28 128 -37c27 -9 50 -21 70 -34c41 -28 70 -76 70 -144zM392 -63v-74c3 -4 0 -8 -3 -13l-36 -86c-7 -13 -12 -15 -24 -15h-42c-19 0 -17 11 -14 18l16 64h-8c-19 0 -32 16 -32 32v74c0 16 13 32 32 32h78
c19 0 33 -16 33 -32z" />
    <glyph glyph-name="uni021A" unicode="&#x21a;" horiz-adv-x="640" 
d="M579 671h-192v-632c0 -20 -1 -39 -32 -39h-69c-31 0 -32 19 -32 39v632h-194c-35 0 -40 7 -40 39v51c0 20 1 39 32 39h533c31 0 33 -19 33 -39v-51c0 -32 -4 -39 -39 -39zM392 -63v-74c3 -4 0 -8 -3 -13l-36 -86c-7 -13 -12 -15 -24 -15h-42c-19 0 -17 11 -14 18l16 64
h-8c-19 0 -32 16 -32 32v74c0 16 13 32 32 32h78c19 0 33 -16 33 -32z" />
    <glyph glyph-name="uni021B" unicode="&#x21b;" horiz-adv-x="640" 
d="M579 671h-192v-632c0 -20 -1 -39 -32 -39h-69c-31 0 -32 19 -32 39v632h-194c-35 0 -40 7 -40 39v51c0 20 1 39 32 39h533c31 0 33 -19 33 -39v-51c0 -32 -4 -39 -39 -39zM392 -63v-74c3 -4 0 -8 -3 -13l-36 -86c-7 -13 -12 -15 -24 -15h-42c-19 0 -17 11 -14 18l16 64
h-8c-19 0 -32 16 -32 32v74c0 16 13 32 32 32h78c19 0 33 -16 33 -32z" />
    <glyph glyph-name="uni0237" unicode="&#x237;" horiz-adv-x="681" 
d="M619 768v-505c0 -144 -117 -263 -261 -263h-78c-117 0 -221 85 -240 200c-4 23 -5 42 -5 65v11c0 19 12 34 31 34h68c19 0 33 -15 33 -34v-11c0 -23 0 -40 9 -61c17 -41 60 -71 104 -71h78c71 0 128 59 128 130v477c-3 24 -3 60 33 60h68c19 0 32 -16 32 -32z" />
    <glyph glyph-name="Wgrave" unicode="&#x1e80;" horiz-adv-x="965" 
d="M60 799h56c15 0 30 0 37 -25l130 -533c47 180 92 351 137 532l-1 -3c3 19 14 29 33 29h48c17 0 28 -9 32 -26l137 -532l131 533c7 25 20 25 36 25h56c16 0 46 -5 41 -34l-3 -16c-45 -239 -123 -492 -179 -728c-5 -12 -4 -21 -31 -21h-98c-23 0 -28 10 -31 22
c-24 88 -45 179 -68 267l-48 188l-114 -454c-5 -13 -7 -23 -30 -23h-99c-25 0 -25 8 -32 24l-179 725c-1 4 -2 9 -2 17c0 33 21 33 41 33zM507 863h-50c-17 0 -34 6 -54 27l-69 87c-12 19 -1 31 23 31h71c25 0 43 -8 55 -25l48 -88c11 -19 5 -32 -24 -32z" />
    <glyph glyph-name="wgrave" unicode="&#x1e81;" horiz-adv-x="965" 
d="M60 799h56c15 0 30 0 37 -25l130 -533c47 180 92 351 137 532l-1 -3c3 19 14 29 33 29h48c17 0 28 -9 32 -26l137 -532l131 533c7 25 20 25 36 25h56c16 0 46 -5 41 -34l-3 -16c-45 -239 -123 -492 -179 -728c-5 -12 -4 -21 -31 -21h-98c-23 0 -28 10 -31 22
c-24 88 -45 179 -68 267l-48 188l-114 -454c-5 -13 -7 -23 -30 -23h-99c-25 0 -25 8 -32 24l-179 725c-1 4 -2 9 -2 17c0 33 21 33 41 33zM507 863h-50c-17 0 -34 6 -54 27l-69 87c-12 19 -1 31 23 31h71c25 0 43 -8 55 -25l48 -88c11 -19 5 -32 -24 -32z" />
    <glyph glyph-name="Wacute" unicode="&#x1e82;" horiz-adv-x="965" 
d="M60 799h56c15 0 30 0 37 -25l130 -533c47 180 92 351 137 532l-1 -3c3 19 14 29 33 29h48c17 0 28 -9 32 -26l137 -532l131 533c7 25 20 25 36 25h56c16 0 46 -5 41 -34l-3 -16c-45 -239 -123 -492 -179 -728c-5 -12 -4 -21 -31 -21h-98c-23 0 -28 10 -31 22
c-24 88 -45 179 -68 267l-48 188l-114 -454c-5 -13 -7 -23 -30 -23h-99c-25 0 -25 8 -32 24l-179 725c-1 4 -2 9 -2 17c0 33 21 33 41 33zM497 864h-47c-29 0 -35 13 -24 32l48 88c12 17 30 25 55 25h68c24 0 35 -12 23 -31l-69 -87c-20 -21 -37 -27 -54 -27z" />
    <glyph glyph-name="wacute" unicode="&#x1e83;" horiz-adv-x="965" 
d="M60 799h56c15 0 30 0 37 -25l130 -533c47 180 92 351 137 532l-1 -3c3 19 14 29 33 29h48c17 0 28 -9 32 -26l137 -532l131 533c7 25 20 25 36 25h56c16 0 46 -5 41 -34l-3 -16c-45 -239 -123 -492 -179 -728c-5 -12 -4 -21 -31 -21h-98c-23 0 -28 10 -31 22
c-24 88 -45 179 -68 267l-48 188l-114 -454c-5 -13 -7 -23 -30 -23h-99c-25 0 -25 8 -32 24l-179 725c-1 4 -2 9 -2 17c0 33 21 33 41 33zM497 864h-47c-29 0 -35 13 -24 32l48 88c12 17 30 25 55 25h68c24 0 35 -12 23 -31l-69 -87c-20 -21 -37 -27 -54 -27z" />
    <glyph glyph-name="Wdieresis" unicode="&#x1e84;" horiz-adv-x="965" 
d="M60 799h56c15 0 30 0 37 -25l130 -533c47 180 92 351 137 532l-1 -3c3 19 14 29 33 29h48c17 0 28 -9 32 -26l137 -532l131 533c7 25 20 25 36 25h56c16 0 46 -5 41 -34l-3 -16c-45 -239 -123 -492 -179 -728c-5 -12 -4 -21 -31 -21h-98c-23 0 -28 10 -31 22
c-24 88 -45 179 -68 267l-48 188l-114 -454c-5 -13 -7 -23 -30 -23h-99c-25 0 -25 8 -32 24l-179 725c-1 4 -2 9 -2 17c0 33 21 33 41 33zM432 965v-70c0 -16 -14 -31 -31 -31h-65c-19 0 -31 15 -31 31v70c0 16 12 31 31 31h65c17 0 31 -15 31 -31zM660 965v-70
c0 -16 -13 -31 -32 -31h-65c-17 0 -30 15 -30 31v70c0 16 13 31 30 31h65c19 0 32 -15 32 -31z" />
    <glyph glyph-name="wdieresis" unicode="&#x1e85;" horiz-adv-x="965" 
d="M60 799h56c15 0 30 0 37 -25l130 -533c47 180 92 351 137 532l-1 -3c3 19 14 29 33 29h48c17 0 28 -9 32 -26l137 -532l131 533c7 25 20 25 36 25h56c16 0 46 -5 41 -34l-3 -16c-45 -239 -123 -492 -179 -728c-5 -12 -4 -21 -31 -21h-98c-23 0 -28 10 -31 22
c-24 88 -45 179 -68 267l-48 188l-114 -454c-5 -13 -7 -23 -30 -23h-99c-25 0 -25 8 -32 24l-179 725c-1 4 -2 9 -2 17c0 33 21 33 41 33zM432 965v-70c0 -16 -14 -31 -31 -31h-65c-19 0 -31 15 -31 31v70c0 16 12 31 31 31h65c17 0 31 -15 31 -31zM660 965v-70
c0 -16 -13 -31 -32 -31h-65c-17 0 -30 15 -30 31v70c0 16 13 31 30 31h65c19 0 32 -15 32 -31z" />
    <glyph glyph-name="Euro" unicode="&#x20ac;" horiz-adv-x="755" 
d="M418 813c163 0 290 -113 322 -269c0 -1 -1 -9 -1 -10c-4 -13 -12 -29 -31 -29h-67c-17 0 -24 9 -31 22c-11 31 -18 55 -35 78c-36 49 -93 78 -157 78c-76 0 -143 -45 -175 -109h231c19 0 33 -16 33 -32v-63c0 -16 -14 -32 -33 -32h-251v-93h251c19 0 33 -16 33 -32v-63
c0 -16 -14 -32 -33 -32h-231c32 -65 98 -110 175 -110c64 0 120 29 159 80c20 27 28 53 36 86l-1 -2c3 18 13 27 31 27h67c19 0 32 -16 32 -32c0 -20 -6 -43 -13 -62c-45 -128 -175 -225 -311 -225c-149 0 -277 100 -314 238h-63c-17 0 -30 16 -30 32v63c0 16 11 32 30 32
h52v93h-52c-19 0 -32 16 -32 32v63c0 16 13 32 32 32h64c38 137 164 239 313 239z" />
    <glyph glyph-name="scedilla" unicode="&#x15f;" horiz-adv-x="668" 
d="M248 -88l30 79c-83 4 -155 48 -195 113c-14 23 -23 44 -27 65c-8 40 -8 56 -8 79c0 20 0 39 31 39h68c16 0 26 -8 30 -24c4 -13 3 -16 3 -32c0 -5 1 -14 2 -27c11 -49 56 -85 108 -85h76c60 0 112 33 121 86c1 7 2 13 2 20c1 13 2 43 -15 58c-28 24 -89 34 -161 51
c-128 29 -266 68 -266 202v14c0 21 -1 42 6 69l-1 -1c21 111 124 192 238 192h76c60 0 117 -22 162 -58s73 -105 70 -182c-1 -20 -1 -39 -32 -39h-66c-19 0 -31 16 -32 32c-3 85 -38 117 -102 117h-76c-51 0 -98 -37 -109 -88v1c-3 -17 -9 -47 16 -72c13 -13 28 -22 43 -26
l115 -32c60 -17 103 -28 128 -37c27 -9 50 -21 70 -34c41 -28 70 -76 70 -144c0 -76 -31 -160 -76 -200c-43 -39 -103 -54 -171 -57l-14 -37c7 -1 13 -2 20 -5c47 -15 78 -53 78 -109c0 -73 -60 -134 -131 -134h-48c-39 0 -71 17 -95 42c-7 9 -13 18 -18 28
c-8 16 -7 32 8 40l44 25c15 8 30 -1 38 -16c7 -11 20 -21 36 -21h19c25 0 41 13 41 36c0 21 -16 39 -41 39h-47c-19 0 -25 13 -18 33z" />
  </font>
</defs>
</svg>
